<svg width="1919" height="1213" viewBox="0 0 1919 1213" fill="none" xmlns="http://www.w3.org/2000/svg">
<g clip-path="url(#clip0_58_13341)">
<path d="M2029.8 1125.5L2111 557.804L1543.54 627.524C1465.03 637.171 1385.65 637.467 1307.07 628.408L578.385 544.402L-5 531V1125.5L70.4286 1141.29C297.178 1188.73 530.448 1196.43 759.832 1164.02L770.078 1162.58C944.27 1137.97 1120.95 1136.45 1295.54 1158.06L1438.32 1175.74C1636.83 1200.31 1838.28 1183.2 2029.8 1125.5Z" fill="#ADF7DB"/>
<path d="M528.797 575.515C529.799 573.957 530.411 572.176 530.689 570.339C530.689 570.061 530.745 569.727 530.634 569.448C530.244 568.78 529.242 569.17 528.63 569.615C527.294 570.561 526.069 571.675 524.956 572.843C525.345 569.003 525.791 565.163 526.18 561.378C526.292 560.543 526.347 559.652 526.18 558.817C525.958 557.983 525.345 557.203 524.51 557.036C523.397 556.814 522.395 557.649 521.616 558.539C518.666 562.101 517.441 566.721 515.493 570.895C514.992 570.061 514.435 569.281 513.878 568.558C513.767 568.391 513.6 568.224 513.377 568.112C512.654 567.779 511.93 568.669 511.819 569.504C511.596 570.728 511.819 572.009 512.375 573.122" fill="#A1FFDA"/>
<path d="M528.797 575.515C529.799 573.957 530.411 572.176 530.689 570.339C530.689 570.061 530.745 569.727 530.634 569.448C530.244 568.78 529.242 569.17 528.63 569.615C527.294 570.561 526.069 571.675 524.956 572.843C525.345 569.003 525.791 565.163 526.18 561.378C526.292 560.543 526.347 559.652 526.18 558.817C525.958 557.983 525.345 557.203 524.51 557.036C523.397 556.814 522.395 557.649 521.616 558.539C518.666 562.101 517.441 566.721 515.493 570.895C514.992 570.061 514.435 569.281 513.878 568.558C513.767 568.391 513.6 568.224 513.377 568.112C512.654 567.779 511.93 568.669 511.819 569.504C511.596 570.728 511.819 572.009 512.375 573.122" stroke="black" stroke-width="2" stroke-linecap="round" stroke-linejoin="round"/>
<path d="M446.608 673.531C436.049 672.662 425.727 668.708 415.168 666.81C386.824 661.75 358.718 671.159 331.009 675.666C301.791 680.41 274.956 673.215 245.976 670.843C234.781 669.894 223.507 670.29 212.392 669.262C201.277 668.234 195.798 671.792 191.352 680.568C190.638 681.992 190.082 683.494 190.32 685.075C190.796 688.238 194.369 689.82 197.466 690.61C208.422 693.378 219.935 692.429 231.05 694.327C242.165 696.224 253.836 701.917 257.489 712.591C258.283 715.043 258.679 717.573 259.87 719.866C261.458 722.87 264.396 725.084 267.492 726.508C279.084 731.963 292.581 728.484 305.285 726.428C320.449 723.977 335.931 723.74 351.334 723.503C366.737 723.266 381.266 726.508 396.43 727.219C414.85 728.01 433.032 727.061 451.451 727.535C470.427 728.01 489.402 730.224 508.378 729.749C514.253 729.591 520.605 729.038 525.21 725.321C529.815 721.605 531.402 713.777 526.877 709.982C523.542 707.215 517.508 706.582 517.111 702.312C516.714 698.992 520.287 696.778 523.304 695.354C529.179 692.587 535.134 689.899 541.009 687.131C541.962 686.657 543.074 686.182 543.629 685.234C544.185 684.364 544.106 683.257 543.947 682.229C542.359 673.848 532.276 670.448 523.781 669.341C506.155 667.048 488.132 667.522 470.665 670.922C464.631 672.108 458.676 673.531 452.563 673.769C450.578 673.769 448.673 673.769 446.767 673.61L446.608 673.531Z" fill="#7FEFC1"/>
<path d="M1047.01 697.141C1046 695.582 1045.39 693.801 1045.11 691.964C1045.11 691.686 1045.06 691.352 1045.17 691.074C1045.56 690.406 1046.56 690.795 1047.17 691.241C1048.51 692.187 1049.73 693.3 1050.85 694.469C1050.46 690.629 1050.01 686.788 1049.62 683.003C1049.51 682.168 1049.45 681.278 1049.62 680.443C1049.79 679.608 1050.46 678.829 1051.29 678.662C1052.4 678.439 1053.41 679.274 1054.19 680.165C1057.14 683.727 1058.36 688.347 1060.31 692.521C1060.81 691.686 1061.37 690.907 1061.92 690.183C1062.03 690.016 1062.2 689.849 1062.42 689.738C1063.15 689.404 1063.87 690.295 1063.98 691.129C1064.21 692.354 1063.98 693.634 1063.43 694.747" stroke="black" stroke-width="2" stroke-linecap="round" stroke-linejoin="round"/>
<path d="M856.575 748.736C856.353 745.619 857.856 742.502 860.361 740.665C861.029 740.164 861.864 739.719 862.699 739.886C863.979 740.109 864.703 741.5 865.092 742.725C865.872 745.229 866.317 747.901 866.261 750.517C869.768 744.172 873.386 737.715 878.897 733.096C881.569 730.869 884.742 729.088 888.193 728.754C891.644 728.42 895.43 729.756 897.322 732.706C899.493 736.101 898.77 740.554 897.656 744.45C896.654 747.901 895.43 751.24 893.927 754.468C896.376 755.081 898.714 753.522 901.052 752.632C903.39 751.741 906.841 752.075 907.398 754.468" stroke="black" stroke-width="2" stroke-linecap="round" stroke-linejoin="round"/>
<path d="M967.794 762.15C969.297 759.757 971.022 757.252 973.75 756.361C976.422 755.471 980.096 757.53 979.539 760.313" stroke="black" stroke-width="2" stroke-linecap="round" stroke-linejoin="round"/>
<path d="M1420.24 698.133C1420.19 697.91 1419.85 698.3 1420.08 698.411C1420.3 698.522 1420.52 698.355 1420.69 698.188C1422.91 695.851 1425.31 693.68 1427.81 691.621C1428.65 690.953 1429.54 690.229 1430.6 690.062C1432.6 689.672 1434.55 691.175 1435.38 692.956C1436.22 694.737 1436.22 696.852 1436.22 698.856" stroke="black" stroke-width="2" stroke-linecap="round" stroke-linejoin="round"/>
<path d="M1144.92 658.959C1149.65 659.627 1154.27 655.675 1158.95 656.621C1159.73 656.788 1160.51 657.067 1161.28 657.011C1162.9 656.844 1163.96 655.23 1164.68 653.783C1164.9 653.393 1165.13 652.948 1165.52 652.781C1165.79 652.614 1166.13 652.614 1166.46 652.558C1169.69 652.336 1172.97 653.17 1175.76 654.84C1176.15 651.779 1173.87 648.384 1171.69 646.38C1170.3 645.044 1168.74 643.875 1167.07 642.929C1165.4 641.983 1163.07 640.258 1162.06 640.592C1166.96 638.811 1172.7 639.645 1176.93 642.707C1181.16 645.768 1183.72 651 1183.5 656.176C1183.88 652.948 1184.33 649.664 1185.55 646.603C1186.78 643.542 1188.95 640.759 1191.96 639.478C1192.68 639.144 1193.68 639.033 1194.07 639.701C1194.24 639.979 1194.24 640.313 1194.24 640.647C1194.24 643.263 1194.13 645.935 1193.85 648.551C1193.96 647.66 1196.8 646.102 1197.52 645.712C1199.03 644.877 1200.92 643.486 1202.09 645.323C1203.92 648.328 1201.7 652.224 1200.42 655.007C1200.42 654.562 1203.03 653.17 1203.53 652.948C1204.87 652.28 1206.43 651.89 1207.93 651.723C1208.27 651.723 1208.66 651.723 1208.93 651.89C1209.27 652.113 1209.44 652.503 1209.49 652.836C1209.66 653.56 1209.55 654.284 1209.27 654.952" fill="#A1FFDA"/>
<path d="M1144.92 658.959C1149.65 659.627 1154.27 655.675 1158.95 656.621C1159.73 656.788 1160.51 657.067 1161.28 657.011C1162.9 656.844 1163.96 655.23 1164.68 653.783C1164.9 653.393 1165.13 652.948 1165.52 652.781C1165.79 652.614 1166.13 652.614 1166.46 652.558C1169.69 652.336 1172.97 653.17 1175.76 654.84C1176.15 651.779 1173.87 648.384 1171.69 646.38C1170.3 645.044 1168.74 643.875 1167.07 642.929C1165.4 641.983 1163.07 640.258 1162.06 640.592C1166.96 638.811 1172.7 639.645 1176.93 642.707C1181.16 645.768 1183.72 651 1183.5 656.176C1183.88 652.948 1184.33 649.664 1185.55 646.603C1186.78 643.542 1188.95 640.759 1191.96 639.478C1192.68 639.144 1193.68 639.033 1194.07 639.701C1194.24 639.979 1194.24 640.313 1194.24 640.647C1194.24 643.263 1194.13 645.935 1193.85 648.551C1193.96 647.66 1196.8 646.102 1197.52 645.712C1199.03 644.877 1200.92 643.486 1202.09 645.323C1203.92 648.328 1201.7 652.224 1200.42 655.007C1200.42 654.562 1203.03 653.17 1203.53 652.948C1204.87 652.28 1206.43 651.89 1207.93 651.723C1208.27 651.723 1208.66 651.723 1208.93 651.89C1209.27 652.113 1209.44 652.503 1209.49 652.836C1209.66 653.56 1209.55 654.284 1209.27 654.952" stroke="black" stroke-width="2" stroke-linecap="round" stroke-linejoin="round"/>
<path d="M181.295 505.859C179.109 509.524 177.053 513.318 174.932 517.112C185.022 526.694 193.056 538.204 197.812 551.001C201.09 550.358 204.304 549.522 207.453 548.493C202.89 532.16 194.984 516.276 181.23 505.859H181.295Z" fill="#CCBCF3"/>
<path d="M193.121 491.262C191.321 492.741 189.714 494.348 188.172 496.085C202.183 508.624 216.194 523.736 222.428 541.612C226.67 539.04 230.655 535.954 234.126 532.417C228.277 514.347 214.138 499.557 200.062 486.632C197.62 487.918 195.242 489.461 193.056 491.197L193.121 491.262Z" fill="#CCBCF3"/>
<path d="M211.31 482.71C225.449 491.519 236.183 504.573 243.767 519.363C244.988 517.048 246.016 514.605 246.916 512.033C247.366 510.747 247.751 509.461 248.008 508.11C241.26 498.979 231.748 491.134 224.935 482.067C220.372 481.617 215.809 481.809 211.31 482.71Z" fill="#CCBCF3"/>
<path d="M239.333 486.118C234.77 483.931 229.885 482.581 224.936 482.066C231.749 491.133 241.261 498.979 248.009 508.11C249.873 499.493 248.267 490.426 239.333 486.118Z" fill="#CCBCF3"/>
<path d="M246.916 512.033C250.258 502.322 249.615 491.133 239.332 486.118C224.421 478.916 206.039 480.716 193.185 491.262C175.511 505.731 172.747 536.275 148.838 542.899C148.966 542.899 157.643 548.172 159.186 548.686C191.193 559.361 235.09 546.821 246.98 512.033H246.916Z" stroke="black" stroke-width="2.18509" stroke-linecap="round" stroke-linejoin="round"/>
<path d="M209.061 487.725C201.927 488.561 195.628 493.32 191.065 498.657C186.244 504.316 181.488 511.132 179.817 518.463C179.11 521.614 182.838 525.601 185.987 523.157C191.193 519.17 194.857 514.026 199.163 509.074C201.091 506.888 202.891 504.509 205.204 502.644C207.325 500.907 209.703 500.007 212.146 498.785C217.223 496.278 215.038 487.082 209.125 487.725H209.061Z" fill="#DDD6F2"/>
<path d="M211.31 482.709C207.453 483.481 203.661 484.831 200.126 486.696C214.202 499.557 228.277 514.411 234.19 532.481C237.982 528.687 241.196 524.314 243.767 519.427C236.183 504.637 225.514 491.583 211.31 482.773V482.709Z" fill="black"/>
<path d="M217.545 522.9C211.632 524.057 207.326 528.044 201.927 530.552C196.85 532.931 191.258 534.539 186.695 537.883C185.152 539.04 184.702 541.612 186.695 542.706C193.122 546.114 200.834 544.57 207.197 541.677C213.624 538.783 220.501 534.667 221.98 527.401C222.558 524.572 220.309 522.385 217.481 522.9H217.545Z" fill="#B897F0"/>
<path d="M148.773 542.899C148.902 542.899 157.579 548.172 159.121 548.686C171.14 552.673 184.83 553.445 197.877 550.937C193.121 538.205 185.087 526.63 174.996 517.048C168.633 528.43 161.885 539.234 148.773 542.899Z" fill="black"/>
<path d="M181.294 505.859C195.049 516.276 202.89 532.16 207.517 548.493C212.787 546.757 217.801 544.506 222.492 541.677C216.258 523.8 202.247 508.688 188.236 496.149C185.665 499.107 183.415 502.386 181.359 505.859H181.294Z" fill="black"/>
<path d="M538.579 98.6809C533.437 100.224 528.424 102.346 523.796 105.047C522.64 98.8738 521.804 94.2438 520.004 89.6782C536.072 77.7818 543.335 92.1861 538.515 98.6809H538.579Z" fill="#6FF7C4"/>
<path d="M267.547 367.347C273.138 374.099 272.303 381.816 267.418 388.182C264.59 391.847 259.448 394.677 253.793 394.226C253.793 399.114 249.808 403.422 244.538 405.801C239.267 408.181 232.969 408.824 226.799 408.759C216.901 408.695 205.91 406.38 199.869 399.885C199.162 400.786 198.391 401.622 197.555 402.457C194.47 405.544 190.678 408.181 186.5 410.367C180.652 413.325 174.032 415.318 167.026 416.219C163.748 416.669 160.342 416.797 157 416.733C152.758 416.605 148.516 416.09 144.338 415.061C139.068 413.775 133.798 411.782 130.07 408.438C126.407 405.094 124.864 398.985 126.921 395.127C118.694 395.77 111.753 393.583 107.318 388.825C98.3202 379.115 105.647 362.267 120.301 360.659C124.993 360.145 130.906 361.302 135.212 363.167C135.405 363.232 135.598 363.296 135.79 363.296C135.919 363.296 135.983 363.167 136.047 363.103C139.839 358.409 142.41 353.586 147.552 349.663C152.437 345.934 158.414 343.104 164.97 341.497C178.145 338.281 192.478 340.532 205.139 345.548C207.196 346.384 209.188 347.284 211.116 348.313C217.993 352.042 222.685 358.666 222.942 364.582C225.192 361.817 231.298 359.888 233.483 359.373C237.339 358.409 241.581 358.344 245.694 358.602C253.728 359.116 262.726 361.688 267.482 367.411L267.547 367.347Z" fill="#A1FFDA"/>
<path d="M342.873 363.939C338.052 357.637 333.489 351.078 329.311 344.326C325.905 343.49 322.499 342.654 319.156 341.689C313.886 340.21 307.845 337.509 301.61 334.166C302.767 336.159 303.924 338.152 305.145 340.082C310.608 348.634 316.136 357.187 321.599 365.739C328.283 362.653 335.481 362.653 342.873 363.874V363.939Z" fill="#B897F0"/>
<path d="M439.601 361.495C443.072 354.486 445.643 347.026 447.121 339.374C439.473 342.396 435.745 344.261 425.783 346.255C423.662 353.135 419.741 359.501 414.792 365.289C422.569 366.639 431.117 364.067 439.601 361.431V361.495Z" fill="#B897F0"/>
<path d="M555.225 681.476C550.855 679.418 546.356 677.232 542.178 675.174C530.545 669.451 518.526 663.599 505.608 663.021C495.967 662.57 486.455 665.143 476.814 666.364C466.402 667.65 452.198 667.2 444.55 658.841C437.93 651.574 437.93 640.642 437.03 631.383C434.588 606.754 417.299 587.269 401.809 569.457C384.135 549.072 372.887 528.623 374.173 501.101C375.78 467.662 381.5 429.015 404.895 403.293C412.736 394.676 421.412 386.703 428.932 377.829C433.174 372.813 436.709 367.347 439.665 361.495C431.182 364.067 422.633 366.64 414.857 365.353C407.722 373.649 398.467 380.851 389.212 386.703C385.999 388.76 382.914 390.497 379.957 392.94C374.044 397.699 371.538 395.963 366.589 391.011C361.64 386.124 356.948 380.98 352.385 375.707C349.107 371.848 345.958 367.926 342.873 363.939C335.481 362.717 328.283 362.717 321.599 365.804C323.784 369.212 325.969 372.684 328.219 376.092C335.481 387.474 344.351 398.535 339.916 412.939C335.674 426.7 326.741 439.111 316.778 449.336C308.68 457.695 297.818 461.553 286.507 463.804C273.652 466.376 260.348 465.798 247.365 463.933C230.141 461.425 210.988 454.93 201.026 439.626C192.735 426.957 193.313 414.418 197.619 402.393C194.534 405.48 190.742 408.116 186.565 410.303C185.986 414.74 185.729 419.241 185.858 423.742C185.922 427.536 186.115 431.652 183.737 434.61C182.966 435.51 181.937 436.282 180.78 436.41C178.981 436.539 177.374 435.188 176.217 433.838C171.847 428.822 169.276 422.585 167.155 416.219C163.877 416.669 160.471 416.797 157.128 416.733C158.285 420.013 159.506 423.228 160.856 426.443C167.862 443.034 177.76 458.595 191.771 470.042C215.294 489.205 247.044 492.999 276.223 494.349C283.486 494.67 290.877 495.378 297.561 498.336C309.901 503.737 312.537 515.698 312.665 528.173C312.922 545.343 316.907 562.962 324.941 578.202C330.597 588.877 337.281 599.102 341.009 610.612C345.508 624.695 344.544 641.543 335.996 653.889C333.296 657.812 329.44 661.22 324.748 661.927C322.756 662.249 320.699 662.056 318.642 661.863C289.785 659.355 261.055 669.708 234.961 680.833C228.791 683.469 222.814 686.685 217.865 691.25C213.559 695.173 211.566 700.768 207.71 704.754C209.317 703.147 226.991 685.849 251.736 681.026C277.701 675.946 303.667 685.077 324.812 688.935C340.173 691.701 355.92 690.8 371.281 689.193C378.608 688.421 385.292 687.135 392.49 688.357C396.732 689.064 400.267 689.45 404.252 691.057C412.671 694.53 421.991 697.166 431.181 695.945C439.601 694.851 446.607 689.964 454.062 686.428C459.975 683.598 466.338 685.013 472.572 684.948C478.614 684.948 484.205 682.698 490.054 681.219C503.358 677.746 515.955 677.682 529.002 681.99C532.795 683.277 536.522 684.82 540.314 685.977C546.356 687.842 553.361 689.643 559.724 689.321C564.673 689.064 569.558 688.035 574.185 686.17C567.115 686.62 561.524 684.563 555.289 681.605L555.225 681.476Z" fill="#FCB9F2"/>
<path d="M245.181 309.087H244.795C241.389 309.923 237.79 310.63 234.512 310.823C212.274 312.366 190.807 312.045 170.947 301.82C165.42 298.991 162.913 297.126 156.615 299.505C147.488 302.913 138.297 303.749 128.657 303.364C110.147 302.592 93.8859 291.789 82.6385 277.384C55.4517 242.595 66.6349 184.078 103.655 160.735C122.101 149.096 146.01 143.888 166.834 151.218C170.24 150.318 173.711 149.868 177.182 149.868C193.956 126.654 224.228 114.05 252.572 117.651C260.477 94.9515 276.481 73.9882 280.209 80.9331C282.265 84.7271 282.394 92.8295 281.623 101.511C313.694 62.6062 362.99 37.9131 413.507 36.6914C441.208 36.0483 469.745 42.3502 492.368 58.4264C500.595 64.2781 507.922 71.2874 514.092 79.2612C516.984 82.9908 518.848 86.2704 520.134 89.5499C521.933 94.1156 522.769 98.8098 523.926 104.919C528.553 102.218 533.502 100.032 538.708 98.5526C551.369 94.7586 565.124 94.8229 577.399 99.7101C594.624 106.591 607.8 123.76 607.928 142.28C629.138 138.55 652.661 150.511 668.408 163.886C682.419 175.783 696.687 193.852 696.494 213.08C696.301 229.734 685.118 244.782 671.236 253.977C659.602 261.823 626.117 272.047 626.117 272.047C626.117 272.047 627.017 276.227 627.274 277.77C627.788 280.857 626.824 327.414 555.676 325.356C519.619 324.327 495.646 302.656 495.646 302.656C495.646 302.656 483.82 324.97 447.314 339.246C439.666 342.268 430.925 344.904 420.963 346.898C418.906 347.348 416.785 347.734 414.6 348.055C386.385 352.814 357.334 350.756 329.44 344.133C326.034 343.297 322.628 342.461 319.286 341.496C314.015 340.017 307.974 337.316 301.74 333.973C289.721 327.542 277.188 318.925 268.64 312.688C266.904 314.81 264.976 316.803 262.855 318.475C259.256 321.305 253.343 325.613 248.651 323.684C244.924 322.141 243.317 317.575 243.96 313.588C244.217 311.98 244.731 310.373 245.374 308.894L245.181 309.087Z" fill="#6FF7C4"/>
<path d="M195.768 422.006C195.254 418.598 195.254 415.447 195.575 412.039C195.896 408.631 195.961 408.502 196.218 406.766C196.475 405.03 196.668 401.943 197.182 401.75C192.554 403.422 189.726 408.116 185.484 410.624C185.549 414.997 185.677 419.37 185.741 423.742C185.806 428.115 185.613 426.893 187.413 428.115C189.212 429.337 190.369 429.272 191.847 428.822C194.997 427.986 196.153 425.028 195.704 422.07L195.768 422.006Z" fill="#B897F0"/>
<path d="M506.251 319.954C504.901 331.722 514.092 345.355 529.646 345.74C529.389 331.079 523.154 322.784 506.251 319.954Z" fill="#4EFF84" stroke="black" stroke-width="2.18509" stroke-linecap="round" stroke-linejoin="round"/>
<path d="M181.872 142.023C170.11 143.18 156.613 133.727 156.485 118.166C171.139 118.616 179.301 125.046 181.872 142.023Z" fill="#4EFF84" stroke="black" stroke-width="2.18509" stroke-linecap="round" stroke-linejoin="round"/>
<path d="M328.155 149.868V150.318C325.456 150.318 322.435 150.961 319.157 152.761V152.633C315.751 148.324 313.951 141.637 317.293 131.605C325.841 135.528 327.962 143.566 328.155 149.868Z" fill="#4EFF84"/>
<path d="M403.031 179.898C397.632 181.184 391.462 184.206 386.513 189.351C380.6 179.255 384.521 163.95 384.521 163.95C384.521 163.95 401.424 168.516 403.095 179.962L403.031 179.898Z" fill="#4EFF84"/>
<path d="M590.831 210.636C590.253 205.106 588.004 198.611 583.569 193.016C594.302 188.451 609.02 194.238 609.02 194.238C609.02 194.238 602.336 210.443 590.831 210.636Z" fill="#4EFF84"/>
<path d="M472.379 317.189C475.207 314.617 477.778 311.852 479.963 308.829C480.927 307.479 481.891 306.064 482.277 304.392C482.791 302.013 481.57 299.441 479.77 297.898C477.456 295.968 474.114 295.776 471.222 296.547C462.738 298.926 455.283 305.1 446.799 307.929C437.223 311.144 427.068 312.816 416.913 312.688C399.11 312.559 380.985 311.273 363.375 308.636C358.169 307.865 353.027 307.993 347.95 307.35C342.872 306.707 335.481 305.357 333.81 312.045C333.296 314.167 333.939 316.482 335.031 318.347C338.116 323.748 344.158 326.578 350.006 328.764C370.059 336.352 392.04 340.21 413.699 338.41C428.096 337.188 442.686 334.616 455.733 328.249C461.71 325.356 467.43 321.626 472.443 317.125L472.379 317.189Z" fill="#52E2B2"/>
<path d="M471.864 337.124C472.314 337.252 472.507 337.252 472.507 337.252C472.314 337.252 472.186 337.188 471.993 337.124C471.993 337.124 471.993 337.124 471.929 337.124H471.864Z" fill="#49D6AA"/>
<path d="M314.465 262.594C314.658 262.658 314.851 262.787 315.044 262.851C315.044 262.851 314.915 262.787 314.465 262.594Z" fill="#52E2B2"/>
<path d="M315.044 262.851C314.979 262.851 312.023 261.758 311.509 261.694C309.581 261.436 308.874 261.501 306.881 261.694C307.395 261.694 306.688 261.694 306.174 261.758C305.339 261.822 304.503 261.886 303.603 261.886C302.061 261.886 300.518 261.886 299.04 261.758C298.783 261.758 298.59 261.758 298.462 261.758C298.462 261.758 298.333 261.758 298.14 261.758C297.305 261.629 296.469 261.436 295.634 261.243C294.155 260.922 292.677 260.472 291.199 259.957C290.942 259.893 290.813 259.829 290.749 259.829C290.62 259.829 290.492 259.7 290.299 259.636C289.656 259.314 289.078 259.057 288.5 258.736C287.021 257.964 285.543 257.064 284.193 256.035C282.908 255.134 281.622 254.491 280.273 254.041C277.895 252.948 275.324 252.627 272.496 253.012C271.211 253.205 269.925 253.398 268.64 253.591C271.596 253.012 268.126 253.591 267.676 253.591C265.94 253.784 264.076 253.655 262.405 254.234C262.341 254.234 262.213 254.234 262.148 254.234C260.284 254.363 258.421 254.491 256.557 254.491C254.5 254.491 252.443 254.491 250.387 254.491C249.423 254.491 248.523 254.363 247.559 254.299C247.366 254.299 247.173 254.299 247.044 254.299C247.044 254.299 246.916 254.299 246.852 254.299C243.06 253.591 239.332 252.691 235.668 251.34C235.347 251.212 235.09 251.083 234.769 251.019C233.805 250.633 234.19 250.762 235.861 251.469C234.962 251.469 233.098 250.247 232.455 249.926C232.262 249.861 232.069 249.733 231.876 249.669C231.748 249.669 231.619 249.54 231.362 249.411C230.463 248.961 229.627 248.575 228.727 248.125C225.706 246.518 223.007 244.524 220.051 242.724C218.572 241.823 217.094 240.923 215.68 239.894C215.23 239.573 214.845 239.315 214.459 238.994C213.495 238.222 211.053 236.293 212.017 237.065C211.888 237.001 211.181 236.422 210.86 236.165C210.474 235.843 209.703 235.2 209.574 235.136C208.16 233.914 206.746 232.628 205.461 231.213C200.126 225.747 192.028 231.47 193.378 238.287C194.985 246.389 198.263 253.72 203.211 260.343C209.381 268.574 218.444 274.297 227.827 278.091C236.633 281.628 247.044 283.557 256.557 282.721C262.084 282.207 267.676 281.435 272.817 279.313C274.81 278.477 276.674 277.641 278.409 276.677C282.972 278.863 287.857 280.471 292.741 281.178C300.775 282.4 312.344 283.557 318.064 276.677C322.242 271.597 320.571 265.488 314.915 262.851H315.044Z" fill="#52E2B2"/>
<path d="M142.925 280.407C142.41 280.085 141.896 279.699 141.382 279.378C142.475 280.278 141.96 279.892 139.84 278.22C139.261 277.834 136.754 276.677 136.626 276.613C134.762 275.712 132.898 274.683 131.099 273.655C130.199 273.14 129.363 272.626 128.528 272.111C128.206 271.918 127.114 271.082 127.05 271.018C125.636 269.796 124.286 268.446 123.065 267.031C123.129 267.031 121.908 265.552 121.844 265.424C121.137 264.459 120.43 263.43 119.787 262.401C119.144 261.372 118.63 260.279 118.052 259.25C117.923 258.993 117.859 258.8 117.73 258.672C117.73 258.479 117.602 258.286 117.537 257.964C116.059 253.463 114.388 248.447 112.846 244.524C110.789 239.059 103.719 237.708 100.377 242.917C92.7286 254.878 97.8061 271.211 106.226 281.435C114.26 291.21 128.271 299.376 140.996 295.004C147.616 292.753 148.773 284.265 142.925 280.407Z" fill="#52E2B2"/>
<path d="M255.72 161.249C255.399 158.934 254.113 156.427 252.699 154.562C252.699 154.562 251.028 152.311 251.478 152.954C251.285 152.633 251.028 152.311 250.836 151.99C250.064 150.703 249.293 149.417 248.586 148.131C248.522 148.003 248.136 147.102 247.943 146.717C247.815 146.202 247.558 145.495 247.622 145.559C247.301 144.273 246.915 142.987 246.594 141.701C246.465 141.122 246.337 140.608 246.208 140.029C246.208 140.029 246.208 138.486 246.208 138.357C246.079 130.962 235.86 127.875 232.133 134.563C228.341 141.186 227.505 148.324 229.819 155.655C232.197 163.243 240.038 173.853 249.357 171.281C253.856 170.059 256.491 165.879 255.849 161.314L255.72 161.249Z" fill="#52E2B2"/>
<path d="M538.902 140.93C535.045 135.85 530.996 131.605 525.79 127.811C515.892 120.609 503.617 117.909 492.369 123.567C487.035 126.268 487.999 135.721 494.104 136.814C496.225 137.2 498.218 137.907 500.275 138.55C502.717 139.322 502.267 139.065 504.516 140.287C506.509 141.38 508.565 142.28 510.494 143.566C511.201 144.016 511.908 144.531 512.615 145.045C512.679 145.174 513.964 146.267 514.157 146.396C517.371 149.289 520.327 152.505 523.284 155.72C527.14 159.964 531.446 164.015 537.423 164.401C540.701 164.594 543.915 161.893 544.75 158.871C546.421 152.505 542.694 145.945 538.902 140.994V140.93Z" fill="#52E2B2"/>
<path d="M605.036 220.024C602.208 220.796 599.315 221.568 596.68 222.854C596.166 223.111 595.652 223.432 595.138 223.69C593.852 224.011 592.503 224.397 591.281 224.783C590.703 224.783 590.189 224.847 589.61 224.847C588.389 224.847 587.168 225.04 585.947 225.04C585.368 225.04 584.79 225.04 584.147 225.04C583.955 225.04 583.826 225.04 583.762 225.04C583.569 225.04 583.376 225.04 583.183 224.976C582.348 224.847 581.512 224.783 580.677 224.718C580.42 224.718 578.684 224.461 579.905 224.654C572.193 223.304 567.051 231.535 572.321 237.644C577.656 243.753 586.076 246.646 594.109 245.875C598.544 245.425 603.107 244.589 607.092 242.467C611.72 240.023 614.419 235.972 616.283 231.213C618.854 224.59 611.27 218.352 605.1 220.024H605.036Z" fill="#52E2B2"/>
<path d="M342.166 84.4052C338.117 82.6047 334.775 82.1546 330.404 83.1835C326.869 83.9551 323.72 86.0129 321.085 88.4565C316.393 92.9578 313.822 99.7741 314.208 106.269C314.401 109.741 316.714 112.764 320.314 113.15C323.463 113.535 327.512 111.606 328.026 108.134C328.476 105.111 329.504 103.247 331.368 101.832C332.204 101.189 331.754 101.51 332.332 101.317C333.039 100.996 333.875 100.739 334.646 100.546C336.446 100.031 338.374 99.7741 340.174 99.2597C346.408 97.652 348.722 87.3633 342.102 84.4696L342.166 84.4052Z" fill="#52E2B2"/>
<path d="M173.326 395.383C171.462 393.969 168.762 393.712 166.449 393.776C165.292 393.776 164.135 394.097 163.042 394.29C163.364 394.226 161.307 394.355 161.307 394.355C157.965 394.355 155.522 394.805 152.373 393.647C147.874 391.975 143.632 397.891 146.139 401.75C149.095 406.251 153.53 410.431 158.993 411.524C165.292 412.81 175.511 411.524 176.732 403.679C177.31 400.013 176.218 397.57 173.326 395.383Z" fill="#6FF7C4"/>
<path d="M246.466 379.95C242.031 377.314 237.532 379.372 234.64 383.037C233.548 384.516 233.74 384.516 232.391 385.674C233.098 385.095 231.619 386.188 231.427 386.317C230.784 386.702 230.077 387.153 229.434 387.538C227.056 388.824 224.164 389.596 221.465 389.532C217.608 389.468 215.552 394.483 218.315 397.12C222.879 401.493 228.277 403.357 234.576 402.457C240.489 401.621 246.852 397.184 249.551 391.718C251.608 387.538 250.708 382.394 246.466 379.886V379.95Z" fill="#6FF7C4"/>
<path d="M194.021 357.894C190.165 355.065 183.995 355.45 179.56 356.865C175.382 358.151 172.169 361.238 169.984 364.968C167.606 369.083 170.562 375.771 175.897 375.192C176.346 375.192 179.239 375.256 177.375 374.999C178.66 375.192 180.01 375.321 181.295 375.514C180.524 375.449 184.702 376.735 181.81 375.642C184.316 376.607 186.051 377.314 188.751 377.571C193.121 377.957 197.942 374.035 198.906 369.79C199.998 364.839 198.006 360.788 194.085 357.83L194.021 357.894Z" fill="#6FF7C4"/>
<path d="M172.757 428.887C172.243 427.472 171.471 426.057 170.764 424.771C169.543 422.585 168.386 420.334 167.037 418.276C164.852 414.933 156.239 415.704 158.36 420.463C160.481 425.221 164.337 433.131 167.294 439.497C168.001 437.053 169.479 434.931 171.536 433.452C172.178 433.002 172.885 432.552 173.143 431.78C173.335 431.266 173.207 430.751 173.143 430.237C173.014 429.787 172.885 429.337 172.693 428.887H172.757Z" fill="#B897F0"/>
<path d="M352.835 658.97C352.385 657.362 350.907 656.14 349.172 656.205C346.858 656.205 345.444 658.262 343.966 659.741C341.266 662.506 337.346 664.114 333.875 665.657C332.525 666.236 332.525 668.615 333.875 669.194C337.667 670.866 341.652 670.673 345.38 668.744C348.529 667.136 354.056 663.278 352.835 658.97Z" fill="#B897F0"/>
<path d="M335.61 532.932C336.317 527.466 336.896 521.936 336.317 516.405C335.289 505.731 330.212 495.764 322.306 488.561C319.35 485.861 317.036 484.639 313.244 483.546C312.151 483.224 299.875 481.424 299.94 481.681C300.518 484.575 300.84 487.533 300.968 490.491C301.097 493.449 300.582 494.67 302.639 496.214C306.367 498.979 311.187 500.072 314.465 503.416C318.643 507.66 320.185 513.962 321.214 519.685C321.535 521.486 321.985 523.479 322.049 525.344C322.113 527.209 321.663 528.366 321.663 529.974C321.663 534.154 322.178 538.398 322.885 542.513C324.363 550.873 326.869 559.04 329.44 567.078C330.019 568.878 330.597 570.743 331.368 572.479C332.14 574.151 333.746 576.016 335.482 575.437C335.61 573.765 335.353 572.093 335.096 570.422C333.875 561.676 333.232 552.48 334.068 543.671C334.903 534.861 334.968 536.404 335.418 532.803L335.61 532.932Z" fill="#B897F0"/>
<path d="M301.546 334.165C307.78 337.509 313.822 340.21 319.092 341.689C322.434 342.654 325.84 343.49 329.247 344.326C357.141 350.949 386.191 353.007 414.406 348.248C416.592 347.862 418.713 347.476 420.769 347.091C430.731 345.097 439.472 342.396 447.121 339.438C483.627 325.098 495.453 302.849 495.453 302.849C495.453 302.849 519.426 324.52 555.482 325.549C626.63 327.671 627.594 281.05 627.08 277.963C626.823 276.42 625.923 272.24 625.923 272.24C625.923 272.24 659.409 262.015 671.042 254.17C684.925 244.975 696.108 229.927 696.301 213.272C696.493 193.981 682.225 175.975 668.214 164.079C652.467 150.639 628.944 138.743 607.735 142.473C607.606 123.953 594.366 106.783 577.206 99.9028C564.994 95.0156 551.24 95.0156 538.514 98.7453" stroke="black" stroke-width="2.18509" stroke-linecap="round" stroke-linejoin="round"/>
<path d="M268.383 312.816H268.447C276.995 319.118 289.592 327.735 301.547 334.166" stroke="black" stroke-width="2.18509" stroke-linecap="round" stroke-linejoin="round"/>
<path d="M166.834 151.347C146.01 144.016 122.101 149.225 103.655 160.864C66.6349 184.207 55.4517 242.66 82.6385 277.513C93.8859 291.917 110.147 302.72 128.657 303.492C138.297 303.878 147.488 303.042 156.615 299.634C162.913 297.255 165.42 299.055 170.947 301.949C190.807 312.173 212.274 312.43 234.512 310.951C237.725 310.694 241.389 309.987 244.795 309.151" stroke="black" stroke-width="2.18509" stroke-linecap="round" stroke-linejoin="round"/>
<path d="M252.507 117.716C224.163 114.114 193.892 126.718 177.117 149.932" stroke="black" stroke-width="2.18509" stroke-linecap="round" stroke-linejoin="round"/>
<path d="M538.58 98.681C533.438 100.224 528.425 102.346 523.797 105.047C522.64 98.874 521.805 94.244 520.005 89.6784C518.72 86.3345 516.856 83.1193 513.964 79.3896C507.794 71.4158 500.467 64.4066 492.24 58.5548C469.616 42.4786 441.144 36.1767 413.379 36.8198C362.862 38.0416 313.63 62.6703 281.494 101.639" stroke="black" stroke-width="2.18509" stroke-linecap="round" stroke-linejoin="round"/>
<path d="M329.248 344.326C336.125 355.322 343.901 365.803 352.321 375.706C356.82 380.979 361.576 386.124 366.525 391.011C371.474 395.898 373.98 397.699 379.893 392.876C382.85 390.497 385.935 388.696 389.148 386.638C404.766 376.671 420.641 363.038 425.783 346.255" stroke="black" stroke-width="2.18509" stroke-linecap="round" stroke-linejoin="round"/>
<path d="M207.646 704.626C211.438 700.639 213.43 695.044 217.801 691.122C222.75 686.621 228.727 683.341 234.897 680.705C260.991 669.58 289.721 659.227 318.578 661.735C320.635 661.928 322.627 662.12 324.684 661.799C329.376 661.092 333.232 657.683 335.932 653.761C344.48 641.414 345.444 624.566 340.945 610.484C337.281 598.973 330.597 588.749 324.877 578.074C316.843 562.898 312.858 545.214 312.601 528.045C312.408 515.634 309.837 503.609 297.497 498.207C290.813 495.314 283.422 494.606 276.159 494.22C246.98 492.87 215.23 489.076 191.707 469.913C177.696 458.467 167.798 442.841 160.792 426.315C159.443 423.099 158.221 419.884 157.064 416.604" stroke="black" stroke-width="2.18509" stroke-linecap="round" stroke-linejoin="round"/>
<path d="M447.121 339.375C444.358 353.457 438.123 366.833 428.868 377.829C421.349 386.703 412.672 394.741 404.831 403.294C381.436 429.015 375.652 467.663 374.109 501.101C372.824 528.688 384.071 549.073 401.746 569.457C417.235 587.334 434.588 606.818 437.031 631.383C437.931 640.578 437.931 651.51 444.55 658.841C452.199 667.201 466.403 667.651 476.815 666.365C486.391 665.143 495.903 662.571 505.608 663.021C518.527 663.6 530.61 669.451 542.179 675.174C546.356 677.232 550.92 679.419 555.226 681.476C561.46 684.37 567.052 686.492 574.122 686.042C569.558 687.907 564.609 688.936 559.66 689.129C553.298 689.386 546.292 687.65 540.251 685.785C536.394 684.563 532.731 683.02 528.875 681.798C515.827 677.425 503.23 677.489 489.926 681.026C484.142 682.57 478.55 684.756 472.444 684.756C466.21 684.756 459.847 683.405 453.934 686.235C446.479 689.836 439.409 694.659 431.054 695.816C421.863 697.038 412.608 694.466 404.124 690.929C400.139 689.257 396.604 688.936 392.362 688.228C385.164 687.007 378.415 688.293 371.153 689.064C355.728 690.672 339.981 691.572 324.684 688.807C303.539 684.949 277.574 675.818 251.608 680.898C226.863 685.72 209.189 703.018 207.582 704.626" stroke="black" stroke-width="2.18509" stroke-linecap="round" stroke-linejoin="round"/>
<path d="M301.547 334.166C302.704 336.159 303.861 338.152 305.082 340.082C312.73 352.042 320.443 364.067 328.091 376.028C335.418 387.41 344.223 398.47 339.789 412.875C335.547 426.636 326.613 439.047 316.651 449.271C308.553 457.631 297.755 461.489 286.379 463.74C273.525 466.312 260.221 465.733 247.238 463.868C230.013 461.361 210.86 454.866 200.898 439.561C192.607 426.893 193.186 414.354 197.492 402.329" stroke="black" stroke-width="2.18509" stroke-linecap="round" stroke-linejoin="round"/>
<path d="M157 416.604C152.758 416.476 148.516 415.961 144.338 414.932C139.068 413.646 133.798 411.653 130.07 408.309C126.407 404.965 124.864 398.856 126.921 394.998C118.694 395.641 111.753 393.455 107.318 388.696C98.3202 378.986 105.647 362.138 120.301 360.53C124.993 360.016 130.906 361.173 135.212 363.038C135.405 363.103 135.598 363.167 135.79 363.167C135.919 363.167 135.983 363.038 136.047 362.974C139.839 358.28 142.41 353.457 147.552 349.534C152.437 345.805 158.414 342.975 164.97 341.368C178.145 338.152 192.478 340.403 205.139 345.419C207.196 346.255 209.188 347.155 211.116 348.184C217.993 351.914 222.685 358.537 222.942 364.453C225.192 361.688 231.298 359.759 233.483 359.244C237.339 358.28 241.581 358.215 245.694 358.473C253.728 358.987 262.726 361.559 267.482 367.282C273.074 374.034 272.239 381.751 267.354 388.117C264.526 391.783 259.384 394.612 253.728 394.162C253.728 399.049 249.744 403.357 244.473 405.737C239.203 408.116 232.904 408.759 226.734 408.695C216.837 408.63 205.846 406.316 199.805 399.821C199.098 400.721 198.326 401.557 197.491 402.393C194.406 405.48 190.614 408.116 186.436 410.302C180.588 413.26 173.968 415.254 166.962 416.154C163.684 416.604 160.278 416.733 156.936 416.669L157 416.604Z" stroke="black" stroke-width="2.18509" stroke-linecap="round" stroke-linejoin="round"/>
<path d="M167.026 416.154C169.147 422.521 171.718 428.694 176.089 433.774C177.31 435.124 178.852 436.539 180.716 436.41C181.873 436.282 182.901 435.575 183.673 434.61C186.051 431.716 185.858 427.536 185.794 423.742C185.729 419.241 185.922 414.74 186.501 410.303" stroke="black" stroke-width="2.18509" stroke-linecap="round" stroke-linejoin="round"/>
<path d="M191.706 153.083C187.143 150.897 182.194 149.932 177.181 149.932C173.71 149.932 170.24 150.447 166.833 151.283C152.436 154.948 139.389 165.494 135.662 176.747" stroke="black" stroke-width="2.18509" stroke-linecap="round" stroke-linejoin="round"/>
<path d="M208.739 231.085C209.061 246.775 254.308 261.051 271.404 243.817C273.461 255.971 298.526 259.636 304.825 254.428" stroke="black" stroke-width="2.18509" stroke-linecap="round" stroke-linejoin="round"/>
<path d="M439.344 156.105C460.425 130.705 508.757 148.517 513.578 163.307" stroke="black" stroke-width="2.18509" stroke-linecap="round" stroke-linejoin="round"/>
<path d="M520.004 89.6782C536.072 77.7818 543.335 92.1861 538.515 98.6809" stroke="black" stroke-width="2.18509" stroke-linecap="round" stroke-linejoin="round"/>
<path d="M585.947 267.031C604.778 284.136 627.787 270.889 612.748 256.421" stroke="black" stroke-width="2.18509" stroke-linecap="round" stroke-linejoin="round"/>
<path d="M248.393 145.367C247.301 137.136 249.165 127.233 252.507 117.651C260.412 94.9516 276.416 73.9882 280.143 80.9331C282.2 84.7271 282.329 92.8295 281.557 101.511C280.336 115.401 276.866 130.898 275.644 132.891" stroke="black" stroke-width="2.18509" stroke-linecap="round" stroke-linejoin="round"/>
<path d="M423.341 275.134C430.732 297.319 460.618 284.78 453.934 269.218" stroke="black" stroke-width="2.18509" stroke-linecap="round" stroke-linejoin="round"/>
<path d="M267.74 288.316C267.74 288.316 259.449 293.461 256.556 295.776C252.186 299.313 247.494 303.75 245.116 309.087C244.409 310.566 243.959 312.174 243.702 313.781C243.059 317.768 244.731 322.334 248.394 323.877C253.086 325.806 258.999 321.498 262.598 318.668C264.719 316.996 266.647 315.003 268.382 312.881C272.946 307.222 276.095 300.277 277.509 293.397" stroke="black" stroke-width="2.18509" stroke-linecap="round" stroke-linejoin="round"/>
<path d="M139.453 248.19C135.34 250.055 131.098 253.27 128.142 256.678C126.535 258.479 125.507 261.115 126.471 263.302C128.527 267.996 135.019 266.71 139.004 265.938C144.274 264.909 149.287 262.659 153.465 259.315" stroke="black" stroke-width="2.18509" stroke-linecap="round" stroke-linejoin="round"/>
<path d="M198.391 384.323C200.319 385.995 202.89 387.024 205.461 387.089C208.032 387.153 210.603 386.317 212.659 384.774C213.881 383.873 214.909 382.587 215.23 381.108C215.552 379.629 214.909 377.829 213.559 377.186" stroke="black" stroke-width="2.18509" stroke-linecap="round" stroke-linejoin="round"/>
<path d="M145.431 379.372C143.953 379.501 142.668 380.53 142.025 381.816C141.254 383.552 141.768 385.738 143.053 387.153C144.339 388.568 146.267 389.275 148.195 389.404C150.123 389.468 151.987 388.953 153.787 388.246" stroke="black" stroke-width="2.18509" stroke-linecap="round" stroke-linejoin="round"/>
<path d="M506.251 319.954C516.791 326.513 522.447 334.873 523.476 336.866" stroke="black" stroke-width="2.18509" stroke-linecap="round" stroke-linejoin="round"/>
<path d="M181.874 142.023C175.511 131.348 167.22 125.561 165.228 124.532" stroke="black" stroke-width="2.18509" stroke-linecap="round" stroke-linejoin="round"/>
<path d="M319.093 152.632C315.751 148.324 313.952 141.636 317.294 131.604C325.842 135.527 327.963 143.565 328.156 149.867" stroke="black" stroke-width="2.18509" stroke-linecap="round" stroke-linejoin="round"/>
<path d="M314.787 155.783C316.265 154.497 317.744 153.533 319.158 152.761C322.435 150.96 325.456 150.382 328.156 150.317C329.827 150.317 331.369 150.446 332.783 150.703" stroke="black" stroke-width="2.18509" stroke-linecap="round" stroke-linejoin="round"/>
<path d="M386.513 189.351C380.6 179.255 384.521 163.95 384.521 163.95C384.521 163.95 401.424 168.516 403.095 179.962" stroke="black" stroke-width="2.18509" stroke-linecap="round" stroke-linejoin="round"/>
<path d="M382.078 195.074C383.364 192.888 384.842 191.023 386.449 189.287C391.397 184.143 397.568 181.185 402.966 179.834C404.702 179.384 406.373 179.191 407.851 179.062" stroke="black" stroke-width="2.18509" stroke-linecap="round" stroke-linejoin="round"/>
<path d="M394.997 182.985C393.583 178.548 390.498 173.403 390.498 173.403" stroke="black" stroke-width="2.18509" stroke-linecap="round" stroke-linejoin="round"/>
<path d="M583.569 193.016C594.302 188.451 609.02 194.238 609.02 194.238C609.02 194.238 602.336 210.443 590.831 210.636" stroke="black" stroke-width="2.18509" stroke-linecap="round" stroke-linejoin="round"/>
<path d="M578.427 187.937C580.42 189.48 582.091 191.216 583.569 193.017C588.004 198.547 590.189 205.042 590.832 210.636C591.024 212.437 591.089 214.109 590.96 215.588" stroke="black" stroke-width="2.18509" stroke-linecap="round" stroke-linejoin="round"/>
<path d="M588.839 202.276C593.402 201.44 598.865 199.061 598.865 199.061" stroke="black" stroke-width="2.18509" stroke-linecap="round" stroke-linejoin="round"/>
<path d="M323.785 150.897C323.656 148.839 320.893 140.801 320.893 140.801" stroke="black" stroke-width="2.18509" stroke-linecap="round" stroke-linejoin="round"/>
<path d="M366.525 504.316C366.975 517.563 370.317 530.681 376.23 542.577" stroke="black" stroke-width="2.18509" stroke-linecap="round" stroke-linejoin="round"/>
<path d="M366.525 548.687C372.823 571.386 389.084 590.035 396.732 612.348" stroke="black" stroke-width="2.18509" stroke-linecap="round" stroke-linejoin="round"/>
<path d="M375.522 614.342C380.279 621.351 381.95 630.418 379.957 638.649" stroke="black" stroke-width="2.18509" stroke-linecap="round" stroke-linejoin="round"/>
<path d="M342.359 670.801C344.93 671.573 347.758 671.573 350.136 670.351C352.514 669.13 354.249 666.557 353.992 663.921" stroke="black" stroke-width="2.18509" stroke-linecap="round" stroke-linejoin="round"/>
<path d="M315.75 490.491C325.455 496.407 331.561 507.66 331.24 518.978" stroke="black" stroke-width="2.18509" stroke-linecap="round" stroke-linejoin="round"/>
<path d="M356.755 423.227C360.547 415.768 361.383 406.83 359.005 398.792" stroke="black" stroke-width="2.18509" stroke-linecap="round" stroke-linejoin="round"/>
<path d="M191.141 407.859C189.213 417.312 189.47 427.15 191.977 436.475" stroke="black" stroke-width="2.18509" stroke-linecap="round" stroke-linejoin="round"/>
<path d="M162.602 417.247C163.245 420.012 164.08 422.134 165.623 425.864" stroke="black" stroke-width="2.18509" stroke-linecap="round" stroke-linejoin="round"/>
<path d="M371.891 440.59C373.562 436.475 375.362 432.488 377.418 428.501" stroke="black" stroke-width="2.18509" stroke-linecap="round" stroke-linejoin="round"/>
<path d="M423.998 368.44C428.433 363.36 432.096 357.508 434.796 351.271" stroke="black" stroke-width="2.18509" stroke-linecap="round" stroke-linejoin="round"/>
<path d="M570.008 105.562C580.356 111.349 596.488 108.134 602.786 93.9224C589.161 88.4565 579.134 91.0287 570.008 105.562Z" fill="#4EFF84" stroke="black" stroke-width="2.18509" stroke-linecap="round" stroke-linejoin="round"/>
<path d="M570.008 105.562C580.098 98.3594 590.06 96.3016 592.246 96.2373" stroke="black" stroke-width="2.18509" stroke-linecap="round" stroke-linejoin="round"/>
<path d="M431.118 625.016C431.439 625.273 431.825 625.466 432.21 625.724C448.15 635.884 468.781 635.176 486.391 630.161H485.17C487.098 629.196 488.833 628.36 490.505 627.588C492.304 626.302 494.039 624.823 495.582 623.344C497.06 621.865 498.217 620.193 499.374 618.457C500.017 617.428 501.559 615.756 500.788 614.47C500.402 613.763 499.374 613.377 498.731 612.863C497.96 612.284 497.253 611.641 496.61 610.933C495.325 609.583 494.232 608.04 493.075 606.496C492.111 605.21 491.147 603.924 489.798 603.153C488.448 602.445 487.484 601.481 486.455 600.387C485.877 599.809 485.041 599.23 484.977 598.33C484.913 597.429 485.299 596.272 485.363 595.372C485.62 592.992 485.684 590.549 485.363 588.105C485.299 587.591 485.17 587.012 484.849 586.562C484.013 585.469 482.406 585.597 481.121 585.983C477.072 587.076 473.344 589.198 470.323 592.092C469.102 593.25 468.331 594.021 466.596 593.828C464.41 593.635 462.289 593.443 460.104 593.571C458.305 593.571 456.505 593.957 454.77 593.957C453.806 593.957 452.842 593.957 451.877 593.957C451.556 593.957 449.307 594.407 449.178 594.278C446.35 590.806 442.494 588.234 438.252 586.819C436.324 586.176 433.946 585.919 432.532 587.334C431.632 588.234 431.375 589.52 431.246 590.806C430.925 593.828 431.054 596.851 431.118 599.809C431.118 600.002 431.118 600.195 431.054 600.387C430.989 600.58 430.796 600.773 430.604 600.902C426.555 604.117 422.891 607.911 419.87 612.091C419.613 612.412 419.42 612.734 419.356 613.12C419.228 613.699 419.549 614.277 419.87 614.792C420.706 616.206 421.798 617.878 423.148 618.907C424.241 619.808 425.269 620.901 426.426 621.737C428.097 622.894 429.832 623.859 431.439 625.209C431.439 625.209 431.568 625.273 431.568 625.338C431.568 625.402 431.568 625.466 431.503 625.531C431.375 625.724 431.246 625.916 431.182 626.045L432.532 625.595C432.146 625.338 431.825 625.145 431.439 624.888L431.118 625.016Z" fill="#CCBCF3"/>
<path d="M481.892 585.791C481.249 585.791 480.607 585.79 479.964 585.919C479.385 586.048 478.807 586.241 478.229 586.498C477.007 587.012 475.915 587.591 474.822 588.363C472.765 589.906 470.837 591.835 469.616 594.15C469.359 594.665 469.359 595.179 469.616 595.629C469.745 596.015 470.066 596.337 470.516 596.465C471.223 596.594 471.866 596.401 472.251 595.758C472.894 594.729 473.408 594.022 474.115 593.186C474.886 592.35 475.722 591.578 476.557 590.871C476.557 590.871 476.686 590.742 476.75 590.742C476.879 590.678 477.007 590.549 477.072 590.485C477.329 590.292 477.522 590.163 477.779 590.035C478.229 589.713 478.678 589.392 479.193 589.134C479.707 588.877 480.221 588.556 480.735 588.298C481.249 588.041 481.699 587.72 482.213 587.398C482.856 586.948 482.599 585.983 481.828 585.919L481.892 585.791Z" fill="#DDD6F2"/>
<path d="M447.764 593.507C446.285 591.192 443.843 589.262 441.465 588.041C440.244 587.398 438.958 586.883 437.609 586.562C436.259 586.304 434.716 585.983 433.431 586.562C432.853 586.819 432.981 587.591 433.431 587.912C434.459 588.555 435.809 588.684 436.902 589.07C437.994 589.455 439.151 589.906 440.18 590.484C441.208 591.063 442.172 591.706 443.008 592.413C443.972 593.249 444.807 594.214 445.643 595.179C445.964 595.564 446.542 595.629 446.992 595.5C447.378 595.436 447.635 595.179 447.828 594.857C448.085 594.471 448.085 593.892 447.828 593.442L447.764 593.507Z" fill="#DDD6F2"/>
<path d="M500.529 676.46C500.015 672.602 498.344 667.972 494.616 666.171C495.066 664.307 495.709 662.506 495.966 660.577C496.223 658.712 496.416 656.847 496.416 654.982C496.416 651.253 495.966 647.523 495.259 643.858C494.874 641.993 494.488 640.064 493.524 638.392C493.138 637.749 492.688 637.17 492.046 636.848C491.66 636.591 491.21 636.527 490.889 636.205C490.375 635.691 490.117 634.855 489.796 634.212C489.41 633.505 488.961 632.797 488.575 632.154C487.675 630.739 486.775 629.26 485.426 628.232C484.462 627.524 483.24 627.46 482.212 626.881C481.634 626.56 481.505 625.852 480.798 625.659C480.027 625.467 478.42 626.238 477.585 626.431C476.492 626.688 475.335 626.946 474.242 627.138C469.679 628.039 465.116 628.682 460.488 628.939C447.827 629.711 434.651 627.717 423.661 621.094L422.247 621.544C420.769 623.73 419.29 625.981 417.812 628.167C416.398 630.289 414.92 632.476 413.763 634.726C412.413 637.299 411.385 639.999 410.549 642.764C409.778 645.208 408.557 648.23 408.557 650.803C408.557 656.397 408.171 662.056 408.043 667.715C407.914 673.374 407.786 679.161 409.907 684.434C410.549 686.042 411.642 687.199 412.028 688.807C412.542 690.865 413.827 692.794 414.92 694.658C416.591 697.552 418.326 700.51 420.897 702.632C422.118 703.597 423.468 704.369 424.882 705.14C427.324 706.362 429.895 707.519 432.595 707.648C433.302 707.648 434.009 707.648 434.716 707.391C435.358 707.134 435.937 706.619 436.451 706.169C440.886 702.568 447.57 700.96 453.226 700.896C454.318 700.896 455.475 700.896 456.504 701.475C457.082 701.796 457.66 702.246 458.11 702.697C459.139 703.597 460.167 704.819 461.452 705.14C462.738 705.462 464.537 705.076 465.887 705.076C469.486 705.076 473.086 705.333 476.749 705.012C478.099 704.883 479.513 704.883 480.927 704.819C481.441 703.533 482.148 702.375 483.176 701.346C485.747 699.096 488.703 697.552 491.917 696.588C493.588 695.366 494.488 693.565 495.966 692.086C497.444 690.607 498.408 689.193 499.18 687.263C500.529 683.855 501.044 680.126 500.594 676.525L500.529 676.46Z" fill="#CCBCF3"/>
<path d="M484.463 650.352C483.627 646.944 482.599 643.922 479.321 642.185C470.837 637.748 461.068 639.42 453.548 645.015C452.456 645.851 451.299 646.751 450.335 647.716C449.371 648.68 447.893 650.545 447.957 650.738C448.792 651.574 449.756 652.281 450.785 652.86C452.97 650.931 455.091 648.937 457.276 647.008C458.369 645.979 459.461 645.015 460.683 644.115C462.161 643.086 463.96 642.25 465.631 642.893C465.76 642.893 465.953 643.021 466.017 643.15C466.338 643.6 465.76 644.243 465.182 644.436C464.603 644.629 463.896 644.822 463.768 645.401C464.539 645.015 465.567 645.401 466.017 646.172C466.467 646.944 466.146 647.973 465.374 648.423C464.86 648.744 464.089 649.066 464.346 649.58C464.346 649.709 464.539 649.838 464.603 649.902C465.246 650.481 465.824 651.188 465.953 652.088C466.081 652.989 465.567 653.953 464.732 654.082C464.282 654.082 463.832 653.953 463.446 653.889C461.775 653.503 460.04 654.017 458.562 654.918C457.083 655.818 455.926 657.104 454.77 658.39C452.841 660.512 450.592 662.57 448.857 664.885C447.121 667.2 448.857 669.129 449.371 671.315C451.556 681.09 450.399 691.636 446.157 700.767C447.571 700.188 448.6 700.638 450.014 700.638C451.427 700.638 453.356 699.867 454.962 699.738C456.891 699.61 458.112 700.639 459.333 701.796C459.59 701.796 459.783 701.796 459.911 701.796C482.406 697.938 488.833 670.93 484.334 650.352H484.463Z" fill="#DDD6F2"/>
<path d="M506.571 705.204C506.186 703.918 505.093 702.889 503.872 702.246C503.101 701.86 502.329 701.603 501.494 701.41C500.98 701.282 500.465 701.153 499.951 701.089C497.316 700.574 494.745 699.931 492.11 699.417C491.596 699.288 489.925 699.417 489.604 698.902C489.025 698.002 490.568 697.166 491.082 696.845C491.339 696.716 491.596 696.523 491.789 696.395C488.639 697.359 485.619 698.967 483.048 701.153C482.019 702.182 481.313 703.339 480.798 704.626C481.313 704.626 481.891 704.561 482.405 704.433C484.205 704.175 485.876 704.754 487.675 705.204C489.218 705.59 490.825 705.526 492.303 706.105C493.781 706.683 495.195 707.712 495.774 709.127C496.159 710.027 496.481 711.313 497.509 711.442C498.216 711.506 498.859 710.927 499.116 710.284C499.116 710.156 499.244 709.963 499.309 709.899C499.63 709.641 500.144 709.899 500.401 710.156C500.658 710.477 500.915 710.863 501.301 710.992C501.944 711.185 502.522 710.606 502.651 709.963C502.779 709.32 502.651 708.677 502.779 708.034C502.908 707.391 503.422 706.748 504.065 706.876C504.45 706.94 504.772 707.326 505.157 707.391C505.671 707.519 506.186 707.198 506.443 706.748C506.635 706.297 506.635 705.719 506.443 705.204H506.571Z" fill="#B897F0"/>
<path d="M486.584 629.453C486.584 629.453 486.584 629.453 486.584 629.389C487.998 628.681 489.412 627.845 490.761 626.881C489.09 627.653 487.355 628.553 485.427 629.453H486.648H486.584Z" fill="#CCBCF3"/>
<path d="M478.228 623.795C476.557 619.358 471.222 616.142 466.788 615.821C463.831 615.628 460.875 616.528 458.239 617.943C454.705 619.872 452.712 623.537 451.941 627.396C451.748 628.36 451.619 629.325 451.941 630.225C452.326 631.19 453.226 631.897 454.126 632.412C457.018 634.148 460.36 634.984 463.703 635.241C467.045 635.498 470.965 635.82 473.536 634.212C475.786 632.797 478.035 630.868 478.613 628.232C478.935 626.688 478.806 625.145 478.292 623.73L478.228 623.795Z" fill="#DDD6F2"/>
<path d="M495.194 606.175C496.223 607.268 496.865 608.94 497.444 610.162C498.022 611.384 497.637 611.126 497.058 611.77C496.48 612.413 496.287 612.67 495.901 613.056C495.066 613.956 494.23 614.792 493.331 615.564C489.731 618.779 485.554 621.222 481.312 623.473C480.412 623.923 479.512 624.502 478.548 624.695C477.713 624.823 476.941 624.759 476.106 624.695C475.206 624.695 474.242 624.566 473.406 624.245C471.478 623.537 470.193 621.544 469.55 619.55C468.843 617.3 468.715 614.92 469.357 612.605C470.45 608.554 473.856 605.725 477.841 604.632C478.869 604.31 479.962 604.117 481.055 604.246C483.69 604.503 485.811 606.368 488.574 606.046C491.338 605.725 492.366 604.182 494.295 605.339C496.223 606.497 495.002 605.853 495.323 606.175H495.194Z" fill="black"/>
<path d="M459.331 612.155C460.102 613.441 460.552 614.92 460.68 616.528C460.937 619.486 460.102 623.087 457.402 624.63C454.703 626.174 451.618 625.659 448.854 625.209C444.034 624.373 439.278 622.38 435.165 619.807C430.087 616.656 425.717 612.605 421.86 608.04C421.86 608.04 426.616 603.795 427.066 603.41C428.095 602.574 428.545 603.731 429.187 604.567C429.83 605.403 430.666 606.303 431.565 607.075C432.979 608.361 434.715 609.39 436.579 609.776C439.342 610.29 442.17 609.326 444.934 608.618C447.055 608.04 449.304 607.525 451.489 607.654C454.96 607.782 457.724 609.519 459.331 612.219V612.155Z" fill="black"/>
<path d="M494.937 664.242C499.501 668.293 500.914 674.467 500.786 680.383C500.657 686.299 494.037 696.33 488.125 698.645" stroke="black" stroke-width="2.18509" stroke-linecap="round" stroke-linejoin="round"/>
<path d="M486.646 628.81C487.931 629.324 489.859 634.019 491.209 637.363" stroke="black" stroke-width="2.18509" stroke-linecap="round" stroke-linejoin="round"/>
<path d="M428.031 658.519C424.946 656.59 422.118 654.339 419.547 651.831" stroke="black" stroke-width="2.18509" stroke-linecap="round" stroke-linejoin="round"/>
<path d="M489.538 667.972C485.81 686.942 473.02 695.816 472.313 697.359" stroke="black" stroke-width="2.18509" stroke-linecap="round" stroke-linejoin="round"/>
<path d="M461.261 705.011C466.21 704.368 479.385 703.725 484.334 704.304C489.283 704.883 489.219 705.011 491.725 705.397C494.232 705.783 495.325 705.783 496.16 707.841C496.417 708.548 496.481 709.255 496.61 710.027C496.674 710.606 496.996 711.313 497.574 711.377C497.895 711.377 498.153 711.249 498.41 711.056C498.988 710.541 499.181 709.77 499.181 709.062C499.181 708.355 499.052 707.583 498.924 706.876C498.924 706.619 498.924 706.362 499.052 706.233C499.245 706.169 499.438 706.233 499.566 706.426C499.695 706.619 499.695 706.812 499.695 707.005C499.824 707.969 500.016 708.869 500.402 709.77C500.531 710.156 500.723 710.541 501.109 710.799C501.495 711.056 501.945 711.12 502.266 710.927C502.523 710.734 502.651 710.348 502.716 710.027C502.844 708.998 502.716 707.969 502.394 707.005C502.973 706.619 503.873 706.876 504.194 707.455C504.387 707.841 504.451 708.355 504.837 708.548C505.158 708.677 505.544 708.548 505.737 708.291C505.929 708.034 506.058 707.712 506.058 707.39C506.186 706.233 505.865 705.204 505.222 704.175C502.78 700.446 492.947 699.224 488.126 698.838" stroke="black" stroke-width="2.18509" stroke-linecap="round" stroke-linejoin="round"/>
<path d="M466.403 627.331C465.888 627.331 465.439 627.331 465.117 627.395C463.382 627.524 460.683 628.295 462.546 630.353C464.217 632.218 465.76 633.118 467.238 632.154C468.202 631.575 470.002 630.16 469.809 628.874C469.616 627.46 467.817 627.267 466.403 627.267V627.331Z" fill="#B897F0" stroke="black" stroke-width="2.18509" stroke-linecap="round" stroke-linejoin="round"/>
<path d="M442.493 592.542C441.979 592.028 441.401 591.578 440.758 591.127C439.216 590.098 436.452 588.555 435.488 591.127C434.781 592.992 434.588 595.05 435.038 596.979C435.231 598.008 435.681 599.101 436.645 599.68C437.544 600.194 438.766 600.066 439.794 599.68C441.272 599.165 442.622 598.33 443.715 597.236C443.972 596.979 444.229 596.722 444.357 596.4C444.614 595.822 444.486 595.114 444.229 594.6C443.843 593.828 443.136 593.185 442.558 592.542H442.493Z" fill="#B897F0"/>
<path d="M444.999 595.564C442.942 591.32 437.415 589.327 437.544 589.391" stroke="black" stroke-width="2.18509" stroke-linecap="round" stroke-linejoin="round"/>
<path d="M482.341 590.356C482.148 589.52 481.634 588.941 480.606 589.649C479.834 590.163 479.127 590.742 478.356 591.256C476.685 592.35 475.785 594.407 475.014 596.144C474.821 596.594 474.628 597.172 474.95 597.623C475.143 597.944 475.528 598.073 475.914 598.137C477.392 598.523 478.999 598.523 480.541 598.137C480.798 598.137 480.991 598.008 481.184 597.88C481.441 597.687 481.57 597.365 481.634 597.044C482.212 595.115 482.469 592.993 482.469 590.935C482.469 588.877 482.469 590.485 482.469 590.292L482.341 590.356Z" fill="#B897F0"/>
<path d="M473.665 596.851C477.392 590.485 481.57 588.684 481.57 588.684" stroke="black" stroke-width="2.18509" stroke-linecap="round" stroke-linejoin="round"/>
<path d="M463.896 646.558L467.173 630.739C467.366 629.71 468.395 628.81 469.359 628.746L475.85 628.553L481.506 628.424C482.47 628.424 483.113 629.26 482.92 630.289L479.642 646.108L477.393 657.04C477.2 658.069 476.171 658.969 475.207 659.033L463.06 659.355C462.096 659.355 461.453 658.519 461.646 657.49L463.896 646.558Z" fill="#FCB9F2" stroke="black" stroke-width="2.18509" stroke-linecap="round" stroke-linejoin="round"/>
<path d="M476.236 639.42C476.107 639.356 478.614 641.478 478.614 641.478L472.251 645.143L466.917 642.185L470.066 639.742C469.809 639.549 469.23 638.134 470.259 638.005C471.287 637.877 472.058 639.163 472.058 639.163L474.243 638.97C474.243 638.97 475.079 637.941 476.107 637.877C477.136 637.813 476.172 639.42 476.172 639.42H476.236Z" fill="#CCBCF3" stroke="black" stroke-width="2.18509" stroke-linecap="round" stroke-linejoin="round"/>
<path d="M446.221 655.69C445.642 656.847 445.192 658.004 444.999 659.291C444.807 660.577 445.128 662.57 446.221 663.728C446.606 664.178 447.12 664.499 447.313 665.078C447.313 665.207 447.377 665.335 447.506 665.4C447.635 665.464 447.827 665.4 447.956 665.4C449.756 664.499 450.912 663.406 452.198 661.927C453.483 660.448 456.054 658.905 457.854 657.554C459.46 656.333 461.581 654.275 463.702 654.725C464.152 654.789 464.602 654.982 464.988 654.789C465.631 654.532 465.759 653.696 465.438 653.053C465.116 652.41 464.666 651.96 464.281 651.445C464.217 651.317 464.088 651.188 464.088 651.06C464.088 650.802 464.281 650.545 464.602 650.417C464.924 650.288 465.181 650.288 465.438 650.159C466.08 649.773 466.145 648.809 465.759 648.166C465.373 647.523 464.666 647.137 464.024 646.815C464.666 646.43 465.309 646.044 465.888 645.658C466.016 645.594 466.145 645.529 466.209 645.401C466.273 645.272 466.273 645.144 466.209 645.015C466.209 644.179 465.759 643.343 465.052 642.893C464.345 642.443 463.445 642.443 462.61 642.636C459.782 643.15 457.404 645.079 455.411 647.137C454.64 647.909 453.869 648.745 453.162 649.581C452.134 650.674 451.427 651.703 449.884 652.153C448.342 652.603 447.313 653.375 446.478 654.918C446.349 655.175 446.156 655.497 446.028 655.754L446.221 655.69Z" fill="#B897F0"/>
<path d="M430.282 630.675C432.146 631.382 433.752 632.668 435.102 634.147C436.452 635.626 437.609 637.234 438.766 638.906C441.722 643.086 444.421 647.587 447.699 651.51C448.278 652.217 448.92 652.924 449.82 652.924C450.591 652.924 451.17 652.346 451.748 651.767C453.805 649.709 455.926 647.78 458.111 645.915C458.947 645.208 459.847 644.5 460.811 643.922C461.775 643.343 462.867 642.893 463.96 642.957C464.153 642.957 464.41 642.957 464.603 643.021C465.245 643.15 465.824 643.536 466.338 643.986C466.852 644.436 467.109 645.208 466.724 645.722C466.338 646.237 465.502 646.044 464.86 645.851C464.603 645.786 464.346 645.722 464.088 645.722C463.703 645.722 463.253 645.851 463.06 646.172C463.317 646.301 463.639 646.429 463.896 646.494C464.217 646.622 464.603 646.751 464.924 646.944C465.31 647.137 465.759 647.265 466.081 647.587C466.659 648.166 466.788 649.002 466.724 649.773C466.724 649.966 466.724 650.223 466.467 650.352C466.338 650.481 466.081 650.481 465.888 650.416C465.438 650.288 465.053 650.031 464.667 649.838C464.281 649.645 463.767 649.452 463.381 649.58C463.317 649.58 463.253 649.58 463.189 649.709C462.803 649.902 462.803 650.288 462.996 650.545C463.124 650.738 463.317 650.867 463.51 650.995C464.41 651.381 464.988 651.51 465.502 652.474C465.695 652.86 465.888 653.246 465.888 653.632C465.888 654.017 465.888 654.468 465.567 654.789C465.502 654.853 465.374 654.982 465.31 654.982C465.117 654.982 464.924 654.982 464.731 654.982C464.153 654.789 463.51 654.725 462.932 654.532C462.674 654.403 462.482 654.339 462.225 654.275C461.967 654.21 461.646 654.146 461.261 654.275C460.875 654.403 460.296 654.789 459.911 655.175C458.111 656.718 456.247 658.262 454.448 659.805C452.97 661.027 449.884 663.728 448.535 665.142" stroke="black" stroke-width="2.18509" stroke-linecap="round" stroke-linejoin="round"/>
<path d="M486.711 647.716C486.711 647.201 486.646 646.687 486.582 646.108C486.582 645.015 486.389 643.921 485.939 642.957C485.04 640.963 482.854 639.034 480.541 639.613C479.962 639.742 479.384 640.063 479.062 640.513C478.741 640.963 478.741 641.735 479.127 642.121C478.227 641.992 477.263 642.507 476.877 643.343C476.492 644.179 476.62 645.208 477.327 645.915C477.97 646.558 478.934 646.751 479.641 647.394C478.805 647.394 477.906 647.394 477.456 648.101C477.07 648.68 477.263 649.452 477.713 649.966C478.163 650.481 478.805 650.738 479.448 650.995C480.091 651.252 480.798 651.445 481.312 651.831C482.212 652.474 482.662 653.567 482.983 654.596C484.011 658.004 484.268 661.605 485.682 664.885C485.682 665.014 485.811 665.142 485.875 665.142C486.068 665.142 486.197 665.014 486.261 664.885C487.289 663.47 488.382 662.12 489.089 660.512C489.796 658.905 490.246 657.168 489.924 655.432C489.41 652.667 486.839 650.545 486.582 647.716H486.711Z" fill="#B897F0"/>
<path d="M490.633 657.04C490.054 655.175 487.997 652.603 487.033 650.417C486.069 648.231 486.519 645.98 486.262 644.63C486.069 643.343 486.069 642.7 485.105 641.864C484.334 641.221 483.563 640.45 482.663 640.064C482.342 639.935 482.02 639.807 481.635 639.742C480.67 639.614 479.385 639.742 478.807 640.643C478.228 641.543 479.706 642.25 480.285 642.507C480.67 642.7 481.12 642.829 481.249 643.279C481.249 643.408 481.249 643.536 481.185 643.536C481.056 643.536 480.928 643.536 480.863 643.408C480.413 643.022 479.771 642.765 479.128 642.829C478.485 642.893 477.907 643.215 477.585 643.729C477.393 643.986 477.328 644.244 477.328 644.565C477.328 644.887 477.585 645.144 477.843 645.337C478.292 645.658 478.871 645.916 479.385 646.173C479.899 646.43 480.413 646.88 480.542 647.395C479.771 647.523 479.257 647.009 478.485 647.202C477.714 647.395 477.328 647.78 477.136 648.423C476.686 650.095 478.678 650.738 480.092 651.189C480.413 651.253 480.67 651.382 480.863 651.446C481.313 651.639 481.827 651.832 482.149 652.282C483.049 653.568 483.37 655.626 483.948 657.105C484.912 659.741 485.876 662.828 487.419 665.207C488.961 667.586 488.576 666.429 489.283 666.815C495.581 670.223 495.646 658.262 495.581 656.011C494.939 636.913 490.633 635.562 490.633 635.562C490.633 635.562 489.09 652.41 489.154 654.147" stroke="black" stroke-width="2.18509" stroke-linecap="round" stroke-linejoin="round"/>
<path d="M459.718 702.632C458.882 701.346 457.661 700.382 456.247 699.867C454.833 699.353 453.034 699.353 451.684 699.996C450.334 700.639 448.985 700.767 447.506 700.896C444.164 701.153 440.822 701.153 437.48 701.153C434.074 701.153 430.86 702.632 428.546 705.012C430.989 706.233 433.495 707.391 436.259 707.905C436.902 708.034 437.609 708.163 438.316 708.227C441.079 708.548 443.972 708.484 446.735 708.098C449.499 707.712 448.856 707.584 449.884 708.098C450.913 708.613 452.005 709.384 452.97 709.963C453.355 710.22 453.741 710.477 454.126 710.542C454.512 710.606 455.026 710.606 455.348 710.285C455.669 710.027 455.733 709.577 455.862 709.256C455.99 708.934 456.247 708.484 456.633 708.42C457.404 708.291 458.047 709.256 458.882 709.127C461.389 708.741 460.875 704.819 460.104 703.34C459.975 703.082 459.847 702.825 459.654 702.632H459.718Z" fill="#B897F0"/>
<path d="M423.341 618.907C421.734 621.479 413.893 632.09 410.358 643.472C406.823 654.854 408.366 655.69 408.044 661.799C407.98 663.406 407.916 665.014 407.98 666.621C407.98 667.907 408.109 669.194 408.173 670.48C408.751 676.846 409.844 684.434 412.736 690.286C412.929 690.671 413.122 691.057 413.315 691.379C415.307 694.98 417.235 698.131 419.999 700.832C420.835 701.603 421.67 702.375 422.698 703.082C427.069 706.233 432.211 707.712 437.545 708.098C441.016 708.355 444.422 708.227 447.893 708.098C451.363 707.969 450.464 707.905 451.685 708.034C452.906 708.162 453.549 709.513 454.641 709.577C455.155 709.577 455.67 709.127 455.798 708.612C455.927 708.098 455.798 707.519 455.798 707.005C456.248 707.777 456.826 708.612 457.598 708.998C458.369 709.384 459.526 709.384 460.104 708.677C460.426 708.355 460.554 707.905 460.618 707.455C460.94 705.59 460.426 703.532 459.269 702.053C458.112 700.574 456.248 699.545 454.32 699.417C450.721 699.16 447.507 701.796 443.844 702.246C446.479 699.095 447.828 695.559 449.885 692.086C451.942 688.614 451.685 684.884 451.556 681.219C451.363 675.174 450.142 668.936 446.736 663.792C446.222 663.02 445.643 662.249 445.001 661.477C444.229 660.577 443.329 659.805 442.365 659.162C434.01 653.76 421.092 659.548 417.107 668.036" stroke="black" stroke-width="2.18509" stroke-linecap="round" stroke-linejoin="round"/>
<path d="M408.558 676.01C408.558 675.174 408.558 674.402 408.558 673.566C408.558 673.309 408.622 673.181 408.751 673.052C405.28 670.608 401.167 669.258 396.989 668.422C393.39 667.972 389.983 668.293 386.834 669.129C379.186 674.145 373.659 682.505 371.538 691.443C380.857 681.347 394.804 676.01 408.558 679.804C408.365 678.582 408.429 677.296 408.558 676.074V676.01Z" fill="#CCBCF3"/>
<path d="M408.943 670.609C408.943 670.609 408.943 670.544 408.943 670.48C408.943 670.159 408.879 669.837 408.815 669.516C408.622 667.908 408.493 666.236 408.429 664.564C403.673 663.6 398.21 664.564 394.289 665.529C385.291 667.651 381.371 674.724 379.057 676.203C393.582 670.609 405.794 672.023 409.265 674.531C409.265 673.695 408.879 671.38 408.943 670.544V670.609Z" fill="black"/>
<path d="M376.487 706.94C375.202 709.127 374.238 711.377 373.466 713.628C374.302 715.557 375.394 717.422 376.616 719.158C378.544 721.859 380.986 724.174 383.685 726.039C384.714 717.615 387.67 709.32 392.491 701.796C397.247 694.337 403.352 686.942 411.515 684.176C396.797 683.212 383.3 694.272 376.423 706.94H376.487Z" fill="#CCBCF3"/>
<path d="M433.11 688.935C430.218 687.135 427.069 685.72 423.791 684.82C408.044 687.649 398.596 707.198 395.126 723.081C394.676 725.782 394.612 728.418 394.869 730.991C398.982 732.02 403.352 732.341 407.594 732.212C408.301 732.212 408.944 732.213 409.651 732.084C408.816 728.74 408.43 725.268 408.687 721.795C409.78 708.484 419.035 690.35 433.174 688.935H433.11Z" fill="#CCBCF3"/>
<path d="M428.932 634.083C426.876 633.247 425.012 636.462 426.747 637.877C428.611 639.356 430.475 640.771 431.889 642.635C433.303 644.5 434.074 646.751 435.359 648.68C436.516 650.288 438.894 649.709 439.023 647.651C439.408 641.928 433.753 636.141 428.868 634.083H428.932Z" fill="#DDD6F2"/>
<path d="M464.795 598.844C463.06 597.365 460.875 596.915 458.689 596.658C456.826 596.465 453.998 596.272 452.776 597.879C452.327 598.458 452.069 599.423 452.776 599.937C454.255 601.095 455.99 600.773 457.79 601.03C459.718 601.287 461.517 602.059 463.445 602.188C465.117 602.316 466.145 599.873 464.859 598.78L464.795 598.844Z" fill="#DDD6F2"/>
<path d="M440.178 664.307C435.744 661.67 426.103 661.863 425.075 668.422C424.946 669.387 425.782 670.158 426.746 669.708C428.61 668.744 430.024 667.586 432.209 667.265C434.587 666.943 436.901 667.779 438.7 669.322C442.878 672.859 441.914 677.425 442.942 682.183C443.263 683.791 445.77 684.177 446.541 682.634C449.562 676.525 445.834 667.65 440.178 664.307Z" fill="#DDD6F2"/>
<path d="M494.424 672.666C493.46 672.087 492.111 673.052 492.496 674.145C493.139 676.01 493.91 677.939 493.974 679.933C494.039 681.99 493.396 683.92 492.946 685.913C492.689 687.006 493.974 688.357 495.067 687.521C499.759 684.112 499.245 675.624 494.424 672.602V672.666Z" fill="#DDD6F2"/>
<path d="M492.881 646.687C492.56 645.722 491.018 645.787 491.018 646.944C491.018 649.645 491.082 652.603 491.982 655.175C492.239 656.011 493.524 656.075 493.717 655.175C494.424 652.41 493.781 649.323 492.817 646.687H492.881Z" fill="#DDD6F2"/>
<path d="M456.697 635.048C454.705 632.926 450.913 632.669 448.213 631.768C445.386 630.804 442.558 628.939 439.537 629.453C438.701 629.582 438.123 630.675 438.38 631.511C439.537 634.726 443.2 635.948 446.221 636.977C449.049 637.942 453.612 639.421 456.376 637.62C457.276 637.041 457.404 635.884 456.697 635.112V635.048Z" fill="#B897F0"/>
<path d="M433.303 681.54C428.611 678.839 421.669 676.653 416.399 678.582C414.535 679.225 414.407 681.861 416.399 682.44C421.155 683.919 425.847 684.048 430.41 686.556C432.403 687.649 434.138 688.999 435.616 690.671C437.03 692.279 437.737 693.758 439.73 694.594C440.694 694.98 441.722 694.144 442.043 693.308C443.586 688.485 436.966 683.598 433.367 681.54H433.303Z" fill="#B897F0"/>
<path d="M420.512 684.112C417.299 683.598 413.957 683.534 410.679 684.048C407.979 677.682 408.172 670.544 407.915 664.499C403.288 663.663 397.953 664.435 394.29 665.593C381.692 669.644 372.63 682.119 370.895 694.98C369.738 703.404 371.602 712.342 376.615 719.223C378.672 722.052 381.243 724.56 384.199 726.489C391.012 730.991 399.367 732.534 407.53 732.212C415.114 731.955 422.762 730.219 430.153 731.827C434.588 732.791 438.701 734.978 442.043 738C450.72 731.891 450.334 716.908 447.249 708.098C446.092 704.883 444.807 701.732 443.007 698.838C438.123 690.993 429.639 685.656 420.577 684.112H420.512Z" stroke="black" stroke-width="2.18509" stroke-linecap="round" stroke-linejoin="round"/>
<path d="M425.782 719.609C423.083 714.529 414.406 716.136 409.65 715.879C403.802 715.493 397.76 714.143 392.94 710.606C382.078 702.632 386.191 689.385 385.613 678.003C385.549 676.589 383.813 676.139 383.042 677.296C375.458 688.807 374.173 705.847 385.291 715.686C390.369 720.187 396.796 722.76 403.48 723.788C407.079 724.303 410.614 724.496 414.214 724.496C417.491 724.496 421.862 725.396 424.754 723.66C426.168 722.824 426.554 721.088 425.782 719.673V719.609Z" fill="#B897F0"/>
<path d="M427.133 695.559C424.819 689.964 419.034 688.742 413.7 687.199C410.872 686.427 408.173 685.849 406.501 683.276C404.766 680.64 405.216 677.682 404.123 674.917C403.674 673.695 401.938 672.859 400.846 674.081C396.539 679.032 400.91 687.199 405.023 690.8C407.594 693.051 410.615 694.337 413.828 695.366C416.978 696.33 419.806 697.616 422.762 699.031C424.755 699.996 428.225 698.324 427.133 695.687V695.559Z" fill="#DDD6F2"/>
<path d="M410.036 683.919C409.65 682.955 409.393 681.926 409.136 680.961C409.007 680.64 409.136 680.254 409.457 679.997C395.446 675.753 381.114 681.154 371.602 691.443C371.344 692.601 371.087 693.758 370.959 694.916C370.123 701.217 370.959 707.841 373.53 713.628C374.301 711.378 375.265 709.127 376.55 706.941C383.235 694.723 396.089 683.984 410.229 684.112C410.229 684.048 410.229 683.919 410.164 683.855L410.036 683.919Z" fill="black"/>
<path d="M420.512 684.112C418.134 683.727 415.692 683.598 413.314 683.726C412.735 683.855 412.157 684.048 411.579 684.241C403.416 686.942 397.31 694.401 392.554 701.86C387.734 709.384 384.777 717.679 383.749 726.103C383.942 726.232 384.07 726.361 384.263 726.425C387.477 728.547 391.14 730.026 394.868 730.926C394.611 728.354 394.675 725.718 395.125 723.017C398.66 707.198 408.044 687.585 423.79 684.755C422.697 684.434 421.605 684.241 420.512 684.048V684.112Z" fill="black"/>
<path d="M447.25 708.034C446.093 704.819 444.807 701.668 443.008 698.774C440.501 694.787 437.095 691.443 433.11 688.936C419.035 690.286 409.715 708.42 408.623 721.795C408.366 725.268 408.751 728.74 409.587 732.084C416.464 731.634 423.469 730.348 430.218 731.827C434.653 732.791 438.766 734.978 442.108 738C450.785 731.891 450.399 716.908 447.314 708.098L447.25 708.034Z" fill="black"/>
<path d="M452.969 631.19C452.969 631.19 439.279 630.225 428.417 623.023C424.818 620.644 421.476 617.557 419.033 613.57C418.584 610.998 431.502 600.388 431.502 600.388C431.052 598.523 430.731 590.356 431.309 588.749C431.695 587.655 432.338 586.562 433.43 586.048C435.294 585.212 438.186 586.498 439.986 587.205C443.264 588.427 447.12 590.228 448.92 593.443C455.154 592.864 462.867 593.057 468.394 594.086C471.222 587.913 481.569 583.797 484.205 586.691C486.84 589.584 485.876 590.742 484.333 597.751C486.068 598.394 501.686 614.02 501.686 614.02C501.686 614.02 498.216 621.222 490.439 626.495C488.254 627.974 485.811 629.261 482.983 630.289" stroke="black" stroke-width="2.18509" stroke-linecap="round" stroke-linejoin="round"/>
<path d="M457.982 616.656C457.982 616.528 457.982 616.399 457.982 616.271C457.533 612.477 453.483 609.326 449.691 610.419C448.663 610.676 447.763 611.319 447.121 612.091C446.992 612.284 446.863 612.477 446.928 612.734C447.056 613.441 447.892 612.669 448.085 612.477C449.627 611.448 451.234 611.512 452.841 612.026C454.705 612.605 455.797 613.891 456.311 615.692C456.826 617.428 456.247 619.486 454.897 620.708C453.548 621.929 451.17 621.929 449.884 620.579C449.049 619.679 448.856 618.264 449.37 617.106C449.627 616.528 450.077 616.013 450.72 615.756C451.362 615.499 452.069 615.499 452.584 615.885C453.098 616.271 453.419 616.978 453.226 617.557C453.098 618.007 452.648 618.328 452.262 618.2C451.941 618.071 451.748 617.685 451.362 617.685C451.17 617.685 450.977 617.814 450.848 618.007C450.72 618.2 450.72 618.393 450.848 618.586C450.977 619.293 451.684 619.743 452.391 619.679C453.098 619.614 453.741 619.229 454.126 618.714C454.705 617.942 454.962 616.849 454.705 615.885C454.448 614.92 453.676 614.084 452.776 613.763C451.812 613.441 450.72 613.634 449.82 614.084C448.085 615.049 446.992 617.107 447.249 619.1C447.57 621.544 449.884 623.537 452.327 623.473C455.861 623.344 458.239 620 458.047 616.656H457.982Z" fill="white"/>
<path d="M471.993 611.769C472.764 610.355 474.178 609.326 475.721 608.94C478.999 608.104 482.212 610.355 483.241 613.441C483.369 613.827 483.562 614.342 483.498 614.727C483.433 615.049 483.241 615.37 482.919 615.306C482.662 615.306 482.534 615.049 482.405 614.792C481.762 613.57 481.248 612.22 480.027 611.384C479.513 610.998 478.87 610.741 478.227 610.612C477.071 610.355 475.914 610.805 474.95 611.384C472.7 612.734 472.829 616.014 474.178 617.943C474.564 618.457 475.014 618.907 475.528 619.229C476.042 619.486 476.685 619.615 477.263 619.55C478.035 619.422 478.742 618.843 479.127 618.136C479.513 617.428 479.513 616.528 479.256 615.756C479.063 615.242 478.742 614.792 478.292 614.47C477.842 614.149 477.199 614.149 476.749 614.47C476.299 614.792 476.106 615.435 476.428 615.885C476.492 616.014 476.685 616.142 476.813 616.078C476.942 616.078 477.006 615.885 477.071 615.821C477.199 615.692 477.456 615.692 477.649 615.821C477.842 615.949 477.842 616.206 477.842 616.399C477.842 616.914 477.392 617.364 476.942 617.493C476.492 617.621 475.914 617.493 475.528 617.171C475.142 616.85 474.885 616.399 474.757 615.885C474.5 614.856 474.885 613.699 475.721 613.12C476.685 612.477 477.97 612.541 478.999 613.12C480.22 613.763 481.055 615.049 481.184 616.399C481.312 617.75 480.798 619.164 479.834 620.129C478.87 621.094 477.392 621.479 476.042 621.222C475.271 621.094 474.564 620.708 473.986 620.193C473.407 619.679 473.407 619.615 473.214 619.293C473.021 618.972 472.764 618.714 472.572 618.457C471.672 617.107 471.222 615.37 471.415 613.699C471.607 612.027 471.736 612.348 472.057 611.705L471.993 611.769Z" fill="white"/>
<path d="M257.069 519.428C257.069 519.428 301.931 541.098 301.352 541.677C300.774 542.256 290.748 554.088 288.112 554.795C288.112 554.795 292.226 567.078 285.477 568.75C278.729 570.421 270.052 560.197 270.052 560.197C270.052 560.197 264.011 561.74 257.905 561.74C251.799 561.74 245.758 560.197 245.758 560.197C245.758 560.197 237.081 570.421 230.332 568.75C223.584 567.078 227.697 554.795 227.697 554.795C224.612 552.545 215.036 542.256 214.457 541.677C213.879 541.098 257.069 519.428 257.069 519.428Z" stroke="black" stroke-width="2.18509" stroke-linecap="round" stroke-linejoin="round"/>
<path d="M231.94 556.66C231.94 556.66 229.498 561.483 230.655 563.348C231.812 565.213 239.203 558.911 239.203 558.911L231.94 556.66Z" stroke="black" stroke-width="2.18509" stroke-linecap="round" stroke-linejoin="round"/>
<path d="M283.872 556.66C283.872 556.66 286.314 561.483 285.157 563.348C284 565.213 276.609 558.911 276.609 558.911L283.872 556.66Z" stroke="black" stroke-width="2.18509" stroke-linecap="round" stroke-linejoin="round"/>
<path d="M273.009 527.144C264.332 522.9 257.07 519.363 257.07 519.363C257.07 519.363 250.257 522.771 242.03 526.951C242.416 527.401 242.994 527.723 243.573 528.109C244.087 528.495 244.601 528.945 244.858 529.652C244.601 528.945 244.151 528.495 243.573 528.109C244.344 537.497 256.813 538.59 264.14 537.369C264.654 537.176 265.232 536.983 265.875 536.726C269.153 534.282 271.724 530.874 273.009 527.08V527.144Z" fill="#DDD6F2"/>
<path d="M274.809 528.045C274.231 527.723 273.588 527.466 273.01 527.145C271.724 530.939 269.153 534.347 265.875 536.79C269.732 535.376 275.388 532.675 274.809 528.045Z" fill="#CCBCF3"/>
<path d="M301.352 541.613C301.481 541.484 298.396 539.812 293.704 537.433C288.498 534.797 281.364 531.26 274.808 528.044C275.387 532.674 269.731 535.375 265.874 536.79C261.633 539.941 256.105 541.613 250.642 540.648C256.105 541.613 261.633 540.005 265.874 536.79C265.232 537.047 264.653 537.24 264.139 537.433C256.812 538.655 244.408 537.562 243.572 528.173C242.994 527.787 242.415 527.466 242.03 527.016C234.253 531.003 225.191 535.632 219.663 538.59C216.386 540.327 214.329 541.549 214.457 541.677C214.972 542.256 224.612 552.545 227.697 554.795C227.697 554.795 223.584 567.078 230.332 568.749C237.081 570.421 245.758 560.197 245.758 560.197C245.758 560.197 251.799 561.74 257.905 561.74C264.011 561.74 270.052 560.197 270.052 560.197C270.052 560.197 278.729 570.421 285.477 568.749C292.226 567.078 288.112 554.795 288.112 554.795C290.747 554.088 300.774 542.256 301.352 541.677V541.613ZM230.654 563.348C229.497 561.483 231.939 556.66 231.939 556.66L239.202 558.911C239.202 558.911 231.811 565.213 230.654 563.348ZM285.156 563.348C283.999 565.213 276.608 558.911 276.608 558.911L283.87 556.66C283.87 556.66 286.313 561.483 285.156 563.348Z" fill="#CCBCF3"/>
<path d="M283.871 556.66C283.871 556.66 286.313 561.483 285.156 563.348C283.999 565.213 276.608 558.911 276.608 558.911L283.871 556.66Z" fill="#B897F0"/>
<path d="M231.94 556.66L239.202 558.911C239.202 558.911 231.811 565.213 230.654 563.348C229.497 561.483 231.94 556.66 231.94 556.66Z" fill="#B897F0"/>
<path d="M266.582 475.379C264.59 474.221 262.469 473.321 260.155 473C261.762 473.643 263.24 474.414 264.654 475.379C265.296 475.379 265.939 475.379 266.582 475.379Z" fill="#CCBCF3"/>
<path d="M296.018 468.884C291.519 456.602 283.036 452.422 278.344 452.551C269.217 452.744 265.168 464.576 265.49 464.576C260.798 464.447 256.299 463.868 251.157 463.032C248.843 459.174 246.787 452.744 242.802 450.621C229.305 443.484 220.435 464.576 217.479 473.578C211.887 490.555 208.224 507.21 219.407 538.076L219.728 538.591C223.649 536.468 227.634 534.411 231.619 532.353C235.603 530.295 236.246 530.424 238.046 528.945C239.074 528.109 240.102 527.016 241.388 526.501C242.673 525.987 244.666 525.601 246.144 525.151L257.006 521.871C257.97 521.55 258.998 521.292 260.026 521.292C262.405 521.292 265.875 522.514 267.932 523.8C269.86 525.022 271.66 526.501 273.652 527.594C275.644 528.688 278.087 529.588 280.208 530.617C284.771 532.867 289.27 535.118 293.833 537.369L294.026 536.983C304.374 506.052 301.674 484.124 296.147 468.884H296.018Z" fill="#CCBCF3"/>
<path d="M279.758 485.282C278.729 481.874 276.93 478.659 273.973 476.086C264.332 467.727 247.686 471.006 239.267 479.687C235.924 483.224 229.819 491.519 231.747 496.921C232.39 498.722 234.382 500.394 235.346 502.065C235.539 502.387 235.667 502.709 235.732 503.094C235.86 504.123 235.153 504.895 234.832 505.859C234.511 506.824 234.896 508.046 235.089 509.139L235.989 514.734C236.117 515.441 236.053 516.791 236.567 517.306C237.081 517.82 237.853 517.884 238.367 518.206C240.938 519.685 243.123 521.293 245.951 522.257C246.529 522.45 248.843 523.543 249.357 523.286C253.92 520.971 257.005 519.428 257.005 519.428C257.005 519.428 259.769 520.778 263.947 522.772C273.266 520.199 278.279 511.583 279.886 502.58C280.914 496.921 281.3 490.748 279.693 485.346L279.758 485.282Z" fill="#DDD6F2"/>
<path d="M219.407 538.012C208.224 507.21 211.887 490.49 217.479 473.514C220.435 464.511 229.305 443.419 242.802 450.557C246.787 452.679 248.843 459.11 251.157 462.968C256.299 463.804 260.798 464.383 265.49 464.511C265.168 464.511 269.217 452.679 278.344 452.486C283.036 452.358 291.519 456.537 296.018 468.82C301.61 484.124 304.309 505.988 293.897 536.918" stroke="black" stroke-width="2.18509" stroke-linecap="round" stroke-linejoin="round"/>
<path d="M219.663 538.591C231.039 532.482 257.069 519.428 257.069 519.428C257.069 519.428 281.043 531.003 293.704 537.497C298.332 539.877 301.481 541.549 301.352 541.677C300.774 542.256 290.747 554.088 288.112 554.795C288.112 554.795 292.226 567.078 285.477 568.75C278.729 570.421 270.052 560.197 270.052 560.197C270.052 560.197 264.011 561.74 257.905 561.74C251.799 561.74 245.758 560.197 245.758 560.197C245.758 560.197 237.081 570.421 230.332 568.75C223.584 567.078 227.697 554.795 227.697 554.795C224.612 552.545 214.972 542.256 214.457 541.677C214.329 541.549 216.386 540.391 219.663 538.591Z" stroke="black" stroke-width="2.18509" stroke-linecap="round" stroke-linejoin="round"/>
<path d="M252.893 542.449C253.793 541.484 254.307 540.391 254.435 538.912C254.821 535.247 252.314 531.517 248.715 530.552C244.152 529.395 239.846 532.675 235.282 531.324C234.832 531.196 234.447 531.003 233.997 531.003C233.547 531.003 233.161 531.067 232.711 531.196C228.791 532.482 225.706 535.568 221.85 537.047C222.235 536.919 224.099 538.076 224.549 538.205C225.577 538.655 226.541 539.041 227.57 539.427C233.354 541.677 239.524 545.15 245.887 545.085C247.88 545.085 249.936 544.507 251.672 543.413C253.407 542.32 252.571 542.77 252.893 542.449Z" fill="black"/>
<path d="M261.312 490.491H251.607C249.975 490.491 248.651 491.815 248.651 493.449V511.261C248.651 512.895 249.975 514.219 251.607 514.219H261.312C262.945 514.219 264.269 512.895 264.269 511.261V493.449C264.269 491.815 262.945 490.491 261.312 490.491Z" fill="white" stroke="black" stroke-width="2.18509" stroke-linecap="round" stroke-linejoin="round"/>
<path d="M287.022 536.533C287.6 536.019 288.243 535.44 288.757 534.861C286.508 533.446 284.13 532.096 281.752 530.874C281.495 530.746 281.237 530.617 280.916 530.553C280.723 530.553 280.53 530.553 280.273 530.553C278.152 530.553 275.774 530.746 273.718 530.167C271.661 529.588 269.412 529.781 267.548 530.36C265.427 530.938 263.049 531.903 261.763 533.768C260.478 535.633 259.964 537.883 260.478 540.005C260.863 541.677 261.827 543.607 263.434 544.378C265.041 545.15 267.612 545.536 269.733 545.343C271.854 545.15 274.168 544.378 276.289 543.478C280.209 541.742 283.808 539.427 287.022 536.662V536.533Z" fill="black"/>
<path d="M253.728 522.9C253.407 523.35 253.15 523.865 253.407 524.315C253.664 524.829 254.435 525.022 255.078 525.086C257.199 525.344 259.384 525.215 261.441 524.572C261.633 524.572 261.89 524.443 262.019 524.251C262.212 523.929 262.019 523.607 261.762 523.286C260.926 522.386 257.327 519.813 257.327 519.813C257.327 519.813 254.435 521.871 253.792 522.772L253.728 522.9Z" fill="#B897F0" stroke="black" stroke-width="2.18509" stroke-linecap="round" stroke-linejoin="round"/>
<path d="M216.129 528.044C204.817 507.274 205.46 489.269 219.857 485.282C222.106 484.639 224.356 484.832 226.541 485.668C230.718 487.275 233.932 490.876 236.824 494.091C239.716 497.307 240.488 499.107 243.123 499.943C245.758 500.779 245.437 500.651 246.465 500.329C247.493 500.008 247.622 499.493 248.393 499.364C249.164 499.236 250.45 499.815 250.064 500.908C249.679 502.001 248.714 502.001 248.265 502.644C248.65 503.287 249.614 502.837 250.257 503.223C250.964 503.609 250.707 504.766 250.128 505.216C249.55 505.666 248.714 505.859 247.943 506.181C247.686 506.309 247.365 506.502 247.365 506.824C247.365 507.017 247.558 507.21 247.815 507.274C248.265 507.467 248.779 507.467 249.229 507.595C249.679 507.724 250.257 507.917 250.385 508.431C250.514 508.882 250.193 509.396 249.807 509.589C249.421 509.782 248.907 509.846 248.393 509.846C243.766 509.846 239.074 508.046 234.832 506.245C232.068 505.088 229.24 503.544 227.891 500.843" fill="#CCBCF3"/>
<path d="M216.129 528.044C204.817 507.274 205.46 489.269 219.857 485.282C222.106 484.639 224.356 484.832 226.541 485.668C230.718 487.275 233.932 490.876 236.824 494.091C239.716 497.307 240.488 499.107 243.123 499.943C245.758 500.779 245.437 500.651 246.465 500.329C247.493 500.008 247.622 499.493 248.393 499.364C249.164 499.236 250.45 499.815 250.064 500.908C249.679 502.001 248.714 502.001 248.265 502.644C248.65 503.287 249.614 502.837 250.257 503.223C250.964 503.609 250.707 504.766 250.128 505.216C249.55 505.666 248.714 505.859 247.943 506.181C247.686 506.309 247.365 506.502 247.365 506.824C247.365 507.017 247.558 507.21 247.815 507.274C248.265 507.467 248.779 507.467 249.229 507.595C249.679 507.724 250.257 507.917 250.385 508.431C250.514 508.882 250.193 509.396 249.807 509.589C249.421 509.782 248.907 509.846 248.393 509.846C243.766 509.846 239.074 508.046 234.832 506.245C232.068 505.088 229.24 503.544 227.891 500.843" stroke="black" stroke-width="2.18509" stroke-linecap="round" stroke-linejoin="round"/>
<path d="M296.661 528.045C308.68 509.075 301.289 482.903 292.998 482.774C288.756 482.774 284.835 485.861 281.815 488.561C278.794 491.262 278.151 492.034 276.352 493.77C274.552 495.506 273.266 496.792 271.274 497.243C269.539 497.628 267.739 497.243 265.94 497.307C265.233 497.307 264.526 497.435 264.011 497.886C263.497 498.336 263.24 499.172 263.69 499.686C263.947 500.008 264.333 500.136 264.718 500.201C265.554 500.329 266.389 500.265 267.161 499.943C267.161 500.651 266.325 501.165 265.618 501.165C264.911 501.165 264.14 500.908 263.433 501.165C262.212 501.487 261.698 503.223 262.34 504.316C262.983 505.409 264.526 505.795 265.747 505.345C265.618 505.924 265.04 506.181 264.461 506.245C263.883 506.309 263.304 506.31 262.855 506.695C262.276 507.21 262.34 508.174 262.855 508.753C263.369 509.332 264.14 509.589 264.911 509.718C271.724 511.068 279.115 506.052 283.229 501.036C283.614 500.522 284 499.943 283.871 499.365" fill="#CCBCF3"/>
<path d="M296.661 528.045C308.68 509.075 301.289 482.903 292.998 482.774C288.756 482.774 284.835 485.861 281.815 488.561C278.794 491.262 278.151 492.034 276.352 493.77C274.552 495.506 273.266 496.792 271.274 497.243C269.539 497.628 267.739 497.243 265.94 497.307C265.233 497.307 264.526 497.435 264.011 497.886C263.497 498.336 263.24 499.172 263.69 499.686C263.947 500.008 264.333 500.136 264.718 500.201C265.554 500.329 266.389 500.265 267.161 499.943C267.161 500.651 266.325 501.165 265.618 501.165C264.911 501.165 264.14 500.908 263.433 501.165C262.212 501.487 261.698 503.223 262.34 504.316C262.983 505.409 264.526 505.795 265.747 505.345C265.618 505.924 265.04 506.181 264.461 506.245C263.883 506.309 263.304 506.31 262.855 506.695C262.276 507.21 262.34 508.174 262.855 508.753C263.369 509.332 264.14 509.589 264.911 509.718C271.724 511.068 279.115 506.052 283.229 501.036C283.614 500.522 284 499.943 283.871 499.365" stroke="black" stroke-width="2.18509" stroke-linecap="round" stroke-linejoin="round"/>
<path d="M280.4 503.995L277.572 513.64" stroke="black" stroke-width="2.18509" stroke-linecap="round" stroke-linejoin="round"/>
<path d="M234.832 506.245C235.025 507.853 237.403 513.64 237.403 513.64" stroke="black" stroke-width="2.18509" stroke-linecap="round" stroke-linejoin="round"/>
<path d="M263.947 537.819C263.947 537.883 263.947 538.012 263.947 538.076C264.076 540.456 267.804 542.578 271.724 542.128C272.752 541.999 273.717 541.677 274.424 541.227C274.552 541.099 274.745 540.97 274.681 540.841C274.616 540.391 273.717 540.841 273.524 540.906C271.917 541.484 270.31 541.356 268.703 540.906C266.904 540.456 265.94 539.62 265.554 538.462C265.168 537.369 265.94 536.147 267.418 535.44C268.896 534.732 271.21 534.861 272.367 535.761C273.138 536.34 273.202 537.24 272.56 537.948C272.238 538.269 271.724 538.591 271.146 538.719C270.567 538.848 269.796 538.784 269.282 538.526C268.768 538.269 268.511 537.819 268.768 537.433C268.96 537.176 269.41 536.983 269.796 537.112C270.117 537.176 270.31 537.433 270.632 537.498C270.824 537.498 271.017 537.498 271.146 537.369C271.274 537.24 271.274 537.112 271.274 536.983C271.21 536.533 270.503 536.211 269.796 536.211C269.089 536.211 268.446 536.404 267.996 536.726C267.354 537.176 267.032 537.819 267.225 538.462C267.418 539.041 268.061 539.62 268.96 539.877C269.925 540.134 271.017 540.07 271.917 539.813C273.717 539.298 275.002 538.076 274.873 536.855C274.745 535.311 272.624 533.961 270.182 533.897C266.647 533.768 264.012 535.761 263.947 537.819Z" fill="white"/>
<path d="M249.614 540.07C248.715 540.905 247.236 541.484 245.694 541.613C242.352 541.934 239.331 540.391 238.624 538.462C238.56 538.205 238.367 537.883 238.495 537.626C238.56 537.433 238.817 537.24 239.138 537.304C239.395 537.304 239.524 537.497 239.588 537.626C240.166 538.462 240.552 539.298 241.645 539.877C242.159 540.134 242.737 540.327 243.38 540.455C244.537 540.648 245.694 540.455 246.722 540.134C249.1 539.427 249.229 537.369 248.008 536.083C247.686 535.761 247.301 535.44 246.722 535.247C246.208 535.054 245.63 534.925 245.051 534.989C244.216 534.989 243.509 535.375 243.123 535.761C242.737 536.147 242.609 536.726 242.802 537.24C242.93 537.562 243.187 537.883 243.637 538.076C244.087 538.269 244.73 538.333 245.18 538.14C245.63 537.947 245.887 537.562 245.629 537.304C245.565 537.24 245.372 537.112 245.244 537.176C245.115 537.176 245.051 537.304 244.987 537.304C244.794 537.369 244.601 537.304 244.408 537.304C244.216 537.304 244.216 537.047 244.28 536.983C244.344 536.661 244.794 536.404 245.308 536.34C245.822 536.276 246.336 536.34 246.722 536.597C247.108 536.854 247.301 537.112 247.365 537.433C247.493 538.076 247.043 538.783 246.144 539.105C245.18 539.491 243.83 539.298 242.866 538.912C241.709 538.462 241.002 537.626 240.938 536.79C240.873 535.954 241.516 535.118 242.609 534.604C243.701 534.089 245.18 533.896 246.465 534.153C247.172 534.282 247.879 534.539 248.393 534.861C248.907 535.182 248.907 535.247 249.1 535.44C249.293 535.632 249.486 535.825 249.679 536.018C250.45 536.919 250.771 538.012 250.45 539.041C250.128 540.07 250.064 539.877 249.679 540.198L249.614 540.07Z" fill="white"/>
<path d="M230.912 563.991C234.768 563.605 238.368 561.419 240.424 558.139" stroke="black" stroke-width="2.18509" stroke-linecap="round" stroke-linejoin="round"/>
<path d="M275.966 558.332C277.894 560.904 280.337 563.219 283.036 564.955" stroke="black" stroke-width="2.18509" stroke-linecap="round" stroke-linejoin="round"/>
<path d="M239.524 453.58C237.275 452.872 234.897 452.936 232.776 453.965C230.719 454.93 229.626 456.666 229.176 458.853C228.791 460.975 231.233 462.647 232.904 461.039C233.611 460.396 234.575 459.946 235.411 459.431C236.246 458.917 237.082 458.788 238.046 458.981C239.331 459.238 240.488 458.788 241.195 457.695C241.517 457.245 241.516 456.795 241.581 456.28C241.709 455.059 240.617 453.965 239.524 453.58Z" fill="#DDD6F2"/>
<path d="M277.445 456.409C275.902 456.859 275.838 458.724 277.059 459.56C279.373 461.296 281.879 462.904 284.45 464.318C285.414 464.897 286.764 464.19 286.7 463.032C286.507 458.531 281.751 455.058 277.445 456.409Z" fill="#DDD6F2"/>
<path d="M230.783 493.899C230.333 490.683 227.698 488.754 224.613 488.175C221.592 487.661 218.636 489.333 217.222 491.969C216.708 492.934 217.35 494.413 218.571 494.284C221.914 493.963 225.256 495.12 228.341 496.278C229.948 496.857 230.976 495.185 230.783 493.834V493.899Z" fill="#DDD6F2"/>
<path d="M290.941 486.053C288.049 485.861 285.671 487.854 285.092 490.619C284.642 492.677 286.956 493.899 288.499 492.613C288.948 492.227 290.17 492.162 290.555 492.291C290.555 492.291 291.134 492.548 291.198 492.613C291.905 493.063 292.548 493.32 293.383 493.641C294.54 494.092 295.89 493.191 296.147 492.098C297.047 488.754 294.09 486.375 291.005 486.182L290.941 486.053Z" fill="#DDD6F2"/>
<path d="M294.348 541.42C293.512 540.326 292.613 540.005 291.327 539.683C290.299 539.426 289.335 539.683 288.306 539.876C287.15 540.134 286.957 541.613 287.664 542.384C288.371 543.22 288.885 543.863 289.913 544.249C290.942 544.635 291.841 545.021 292.998 544.699C294.219 544.313 295.248 542.577 294.348 541.42Z" fill="#DDD6F2"/>
<path d="M228.47 543.285C227.056 541.87 224.742 542.127 222.942 542.256C221.721 542.385 221.271 544.249 222.621 544.507C224.356 544.828 226.092 545.857 227.891 545.471C228.92 545.278 229.112 543.928 228.47 543.221V543.285Z" fill="#DDD6F2"/>
<path d="M263.176 553.123C261.312 552.802 259.769 553.445 257.97 553.766C256.234 554.088 254.563 554.474 252.828 554.86C251.671 555.117 251.35 557.046 252.507 557.56C255.913 559.039 261.248 559.875 264.204 556.917C265.297 555.824 264.975 553.445 263.24 553.123H263.176Z" fill="#DDD6F2"/>
<path d="M235.282 513.447C234.19 512.547 232.133 512.097 231.105 513.447C230.719 513.961 230.269 514.347 229.948 514.862C229.948 514.862 229.755 515.183 229.626 515.376C229.755 515.248 229.883 515.119 229.626 515.44C229.626 515.505 229.562 515.569 229.562 515.569C229.562 515.569 229.562 515.569 229.562 515.505C229.305 515.762 229.048 516.084 228.855 516.341C228.662 516.534 228.469 516.791 228.277 517.048C227.248 518.398 226.863 519.877 227.313 521.614C227.698 523.028 228.919 524.443 230.398 524.7C232.711 525.15 234.832 524.379 236.118 522.321C236.825 521.228 237.146 520.006 237.275 518.72C237.403 516.727 236.953 514.733 235.347 513.383L235.282 513.447Z" fill="#B897F0"/>
<path d="M229.562 515.376C229.562 515.376 229.498 515.505 229.434 515.505C229.434 515.505 229.434 515.505 229.434 515.441C229.434 515.441 229.434 515.441 229.434 515.376H229.562Z" fill="#B897F0"/>
<path d="M285.671 517.113C285.542 517.048 285.35 516.92 285.221 516.855C284.964 516.662 284.771 516.47 284.514 516.277C284.385 516.212 284.321 516.084 284.257 516.019C283.807 515.312 283.036 514.798 282.329 514.347C280.722 513.254 278.151 513.962 277.251 515.698C275.323 519.428 277.637 523.414 280.915 525.408C282.522 526.437 285.414 526.244 286.699 524.636C287.342 523.865 287.599 523.543 287.92 522.514C288.499 520.585 287.535 518.077 285.735 517.113H285.671Z" fill="#B897F0"/>
<path d="M259.384 504.573C259.127 504.38 258.805 504.573 258.612 504.766C257.52 506.245 255.27 505.795 254.242 504.509C253.021 502.901 253.342 500.458 254.628 498.914C256.106 497.242 258.677 498.914 258.677 500.844C258.677 501.679 258.291 502.58 257.584 503.03C256.684 503.673 255.592 503.351 255.335 502.258C255.077 501.358 255.72 499.429 256.941 500.393C257.327 500.715 257.584 501.294 257.134 501.679C256.749 502.001 256.234 501.679 256.363 501.165C256.427 500.908 256.106 500.779 255.913 500.972C255.592 501.422 255.72 502.065 256.106 502.451C256.62 502.901 257.391 502.708 257.777 502.258C258.869 501.101 257.648 499.365 256.299 499.236C254.628 499.107 253.985 501.101 254.306 502.387C254.628 503.93 256.17 504.702 257.584 504.059C258.805 503.48 259.512 502.13 259.512 500.844C259.512 499.429 258.612 498.143 257.327 497.5C256.62 497.178 255.784 497.05 255.077 497.307C254.306 497.564 253.792 498.078 253.342 498.721C252.442 500.008 252.057 501.744 252.442 503.287C252.764 504.766 253.921 506.181 255.399 506.631C256.877 507.081 258.484 506.567 259.384 505.345C259.576 505.088 259.384 504.766 259.191 504.573H259.384Z" fill="black"/>
<path d="M198.896 586.373C198.896 584.425 201.568 583.59 203.405 584.147C205.242 584.703 206.801 586.151 208.694 586.651C205.91 578.581 203.851 570.232 202.515 561.772C202.348 560.715 202.403 559.267 203.461 559.045C203.851 558.933 204.24 559.045 204.63 559.212C207.525 560.325 209.863 562.384 212.033 564.555C217.377 570.121 221.552 576.856 224.057 584.147C224.057 581.865 224.669 579.583 225.671 577.468C225.95 576.856 226.395 576.188 227.063 575.965C228.065 575.687 228.956 576.522 229.624 577.356C231.182 579.305 232.518 581.475 233.631 583.757C233.52 580.919 236.637 578.637 239.476 578.971C242.315 579.249 244.653 581.475 245.933 584.036" stroke="black" stroke-width="2" stroke-linecap="round" stroke-linejoin="round"/>
</g>
<defs>
<clipPath id="clip0_58_13341">
<rect width="1919" height="1213" fill="white"/>
</clipPath>
</defs>
</svg>
