<svg width="768" height="821" viewBox="0 0 768 821" fill="none" xmlns="http://www.w3.org/2000/svg">
<g clip-path="url(#clip0_117_22045)">
<rect width="768" height="821" fill="white"/>
<path d="M1447.25 1333.3L1505 563.994L1121.42 614.421C985.472 632.293 847.247 619.371 716.969 576.612C624.908 546.396 528.63 531 431.737 531H0V1333.3L54.9082 1353.18C213.035 1410.45 384.562 1419.69 547.927 1379.75C672.97 1349.18 803.311 1347.3 929.181 1374.27L1012.87 1392.2C1160.11 1423.74 1313.73 1402.91 1447.25 1333.3Z" fill="#ADF7DB"/>
<path d="M529.072 575.515C530.075 573.957 530.687 572.176 530.966 570.339C530.966 570.061 531.021 569.727 530.91 569.448C530.52 568.78 529.518 569.17 528.905 569.615C527.568 570.561 526.343 571.675 525.229 572.843C525.619 569.003 526.065 565.163 526.454 561.378C526.566 560.543 526.622 559.652 526.454 558.817C526.232 557.983 525.619 557.203 524.784 557.036C523.67 556.814 522.667 557.649 521.888 558.539C518.936 562.101 517.711 566.721 515.761 570.895C515.26 570.061 514.703 569.281 514.146 568.558C514.035 568.391 513.868 568.224 513.645 568.112C512.921 567.779 512.197 568.669 512.085 569.504C511.863 570.728 512.085 572.009 512.642 573.122" fill="#A1FFDA"/>
<path d="M529.072 575.515C530.075 573.957 530.687 572.176 530.966 570.339C530.966 570.061 531.021 569.727 530.91 569.448C530.52 568.78 529.518 569.17 528.905 569.615C527.568 570.561 526.343 571.675 525.229 572.843C525.619 569.003 526.065 565.163 526.454 561.378C526.566 560.543 526.622 559.652 526.454 558.817C526.232 557.983 525.619 557.203 524.784 557.036C523.67 556.814 522.667 557.649 521.888 558.539C518.936 562.101 517.711 566.721 515.761 570.895C515.26 570.061 514.703 569.281 514.146 568.558C514.035 568.391 513.868 568.224 513.645 568.112C512.921 567.779 512.197 568.669 512.085 569.504C511.863 570.728 512.085 572.009 512.642 573.122" stroke="black" stroke-width="2" stroke-linecap="round" stroke-linejoin="round"/>
<path d="M431.753 616.483C422.083 615.687 412.631 612.069 402.96 610.332C377.004 605.7 351.265 614.312 325.89 618.437C299.133 622.78 274.558 616.194 248.02 614.023C237.768 613.154 227.443 613.516 217.264 612.575C207.085 611.634 202.068 614.891 197.996 622.924C197.342 624.227 196.833 625.602 197.051 627.05C197.487 629.944 200.759 631.392 203.595 632.116C213.629 634.649 224.171 633.78 234.35 635.517C244.53 637.254 255.218 642.465 258.562 652.235C259.289 654.478 259.653 656.794 260.743 658.893C262.198 661.643 264.888 663.669 267.723 664.972C278.339 669.966 290.699 666.781 302.332 664.9C316.22 662.656 330.398 662.439 344.503 662.222C358.609 662.005 371.914 664.972 385.801 665.624C402.67 666.347 419.32 665.479 436.188 665.913C453.565 666.347 470.942 668.374 488.32 667.939C493.7 667.795 499.517 667.288 503.734 663.887C507.951 660.485 509.405 653.32 505.261 649.847C502.207 647.314 496.681 646.735 496.318 642.827C495.954 639.787 499.226 637.761 501.989 636.458C507.369 633.925 512.822 631.464 518.203 628.931C519.075 628.497 520.093 628.063 520.602 627.194C521.111 626.398 521.038 625.385 520.893 624.444C519.439 616.773 510.205 613.661 502.425 612.648C486.284 610.549 469.779 610.983 453.783 614.095C448.257 615.181 442.804 616.483 437.206 616.7C435.388 616.7 433.643 616.7 431.898 616.556L431.753 616.483Z" fill="#7FEFC1"/>
<path d="M520.551 697.141C519.549 695.582 518.936 693.801 518.657 691.964C518.657 691.686 518.602 691.352 518.713 691.074C519.103 690.406 520.106 690.795 520.718 691.241C522.055 692.187 523.28 693.3 524.394 694.469C524.004 690.629 523.559 686.788 523.169 683.003C523.057 682.168 523.002 681.278 523.169 680.443C523.336 679.608 524.004 678.829 524.84 678.662C525.953 678.439 526.956 679.274 527.736 680.165C530.687 683.727 531.913 688.347 533.862 692.521C534.363 691.686 534.92 690.907 535.477 690.183C535.588 690.016 535.756 689.849 535.978 689.738C536.702 689.404 537.426 690.295 537.538 691.129C537.76 692.354 537.538 693.634 536.981 694.747" stroke="black" stroke-width="2" stroke-linecap="round" stroke-linejoin="round"/>
<path d="M330.022 748.736C329.799 745.619 331.303 742.502 333.809 740.665C334.477 740.164 335.313 739.719 336.148 739.886C337.429 740.109 338.153 741.5 338.543 742.725C339.323 745.229 339.768 747.901 339.713 750.517C343.221 744.172 346.841 737.715 352.355 733.096C355.028 730.869 358.203 729.088 361.656 728.754C365.109 728.42 368.896 729.756 370.79 732.706C372.962 736.101 372.238 740.554 371.124 744.45C370.121 747.901 368.896 751.24 367.392 754.468C369.843 755.081 372.182 753.522 374.521 752.632C376.86 751.741 380.313 752.075 380.87 754.468" stroke="black" stroke-width="2" stroke-linecap="round" stroke-linejoin="round"/>
<path d="M441.299 762.15C442.803 759.757 444.529 757.252 447.258 756.361C449.931 755.471 453.607 757.53 453.05 760.313" stroke="black" stroke-width="2" stroke-linecap="round" stroke-linejoin="round"/>
<path d="M618.517 658.959C623.251 659.627 627.874 655.675 632.552 656.621C633.332 656.788 634.111 657.067 634.891 657.011C636.506 656.844 637.564 655.23 638.288 653.783C638.511 653.393 638.734 652.948 639.124 652.781C639.402 652.614 639.737 652.614 640.071 652.558C643.301 652.336 646.587 653.17 649.372 654.84C649.761 651.779 647.478 648.384 645.306 646.38C643.914 645.044 642.354 643.875 640.683 642.929C639.013 641.983 636.673 640.258 635.671 640.592C640.572 638.811 646.308 639.645 650.541 642.707C654.774 645.768 657.336 651 657.113 656.176C657.503 652.948 657.948 649.664 659.174 646.603C660.399 643.542 662.571 640.759 665.579 639.478C666.303 639.144 667.305 639.033 667.695 639.701C667.862 639.979 667.862 640.313 667.862 640.647C667.862 643.263 667.751 645.935 667.472 648.551C667.584 647.66 670.424 646.102 671.148 645.712C672.652 644.877 674.545 643.486 675.715 645.323C677.553 648.328 675.325 652.224 674.044 655.007C674.044 654.562 676.662 653.17 677.163 652.948C678.5 652.28 680.059 651.89 681.563 651.723C681.897 651.723 682.287 651.723 682.565 651.89C682.899 652.113 683.066 652.503 683.122 652.836C683.289 653.56 683.178 654.284 682.899 654.952" fill="#A1FFDA"/>
<path d="M618.517 658.959C623.251 659.627 627.874 655.675 632.552 656.621C633.332 656.788 634.111 657.067 634.891 657.011C636.506 656.844 637.564 655.23 638.288 653.783C638.511 653.393 638.734 652.948 639.124 652.781C639.402 652.614 639.737 652.614 640.071 652.558C643.301 652.336 646.587 653.17 649.372 654.84C649.761 651.779 647.478 648.384 645.306 646.38C643.914 645.044 642.354 643.875 640.683 642.929C639.013 641.983 636.673 640.258 635.671 640.592C640.572 638.811 646.308 639.645 650.541 642.707C654.774 645.768 657.336 651 657.113 656.176C657.503 652.948 657.948 649.664 659.174 646.603C660.399 643.542 662.571 640.759 665.579 639.478C666.303 639.144 667.305 639.033 667.695 639.701C667.862 639.979 667.862 640.313 667.862 640.647C667.862 643.263 667.751 645.935 667.472 648.551C667.584 647.66 670.424 646.102 671.148 645.712C672.652 644.877 674.545 643.486 675.715 645.323C677.553 648.328 675.325 652.224 674.044 655.007C674.044 654.562 676.662 653.17 677.163 652.948C678.5 652.28 680.059 651.89 681.563 651.723C681.897 651.723 682.287 651.723 682.565 651.89C682.899 652.113 683.066 652.503 683.122 652.836C683.289 653.56 683.178 654.284 682.899 654.952" stroke="black" stroke-width="2" stroke-linecap="round" stroke-linejoin="round"/>
<path d="M188.786 463.014C186.785 466.369 184.901 469.841 182.959 473.314C192.2 482.084 199.557 492.619 203.912 504.332C206.914 503.743 209.857 502.978 212.741 502.037C208.562 487.087 201.323 472.549 188.727 463.014H188.786Z" fill="#CCBCF3"/>
<path d="M199.616 449.653C197.968 451.007 196.496 452.478 195.084 454.068C207.915 465.545 220.746 479.377 226.455 495.739C230.34 493.385 233.989 490.56 237.167 487.322C231.811 470.783 218.862 457.246 205.972 445.416C203.736 446.593 201.558 448.005 199.557 449.594L199.616 449.653Z" fill="#CCBCF3"/>
<path d="M216.273 441.825C229.221 449.888 239.051 461.837 245.996 475.374C247.114 473.255 248.056 471.018 248.88 468.664C249.292 467.487 249.645 466.31 249.881 465.074C243.7 456.716 234.99 449.535 228.751 441.236C224.572 440.824 220.393 441.001 216.273 441.825Z" fill="#CCBCF3"/>
<path d="M241.935 444.944C237.756 442.943 233.283 441.707 228.75 441.236C234.989 449.535 243.7 456.716 249.88 465.074C251.587 457.187 250.116 448.888 241.935 444.944Z" fill="#CCBCF3"/>
<path d="M248.88 468.664C251.941 459.777 251.352 449.535 241.935 444.945C228.28 438.352 211.447 440.001 199.675 449.653C183.489 462.896 180.958 490.854 159.063 496.916C159.181 496.916 167.127 501.742 168.539 502.213C197.85 511.984 238.05 500.506 248.939 468.664H248.88Z" stroke="black" stroke-width="2" stroke-linecap="round" stroke-linejoin="round"/>
<path d="M214.213 446.416C207.68 447.181 201.911 451.537 197.733 456.422C193.318 461.601 188.963 467.84 187.432 474.55C186.785 477.434 190.199 481.083 193.083 478.847C197.85 475.198 201.205 470.489 205.149 465.957C206.914 463.956 208.562 461.778 210.681 460.071C212.624 458.482 214.801 457.658 217.038 456.54C221.688 454.244 219.687 445.828 214.272 446.416H214.213Z" fill="#DDD6F2"/>
<path d="M216.273 441.825C212.741 442.531 209.268 443.768 206.031 445.474C218.921 457.246 231.811 470.842 237.226 487.381C240.699 483.909 243.641 479.906 245.996 475.433C239.051 461.896 229.28 449.948 216.273 441.884V441.825Z" fill="black"/>
<path d="M221.982 478.611C216.567 479.671 212.624 483.32 207.68 485.616C203.03 487.793 197.909 489.265 193.73 492.325C192.318 493.385 191.906 495.739 193.73 496.74C199.616 499.859 206.679 498.447 212.506 495.798C218.392 493.149 224.69 489.382 226.043 482.732C226.573 480.142 224.513 478.141 221.923 478.611H221.982Z" fill="#B897F0"/>
<path d="M159.004 496.916C159.122 496.916 167.067 501.742 168.48 502.213C179.486 505.862 192.023 506.568 203.971 504.273C199.616 492.619 192.259 482.025 183.018 473.255C177.191 483.673 171.011 493.561 159.004 496.916Z" fill="black"/>
<path d="M188.786 463.014C201.382 472.548 208.562 487.086 212.8 502.036C217.627 500.447 222.217 498.387 226.514 495.797C220.805 479.435 207.974 465.603 195.143 454.126C192.788 456.833 190.728 459.835 188.845 463.014H188.786Z" fill="black"/>
<path d="M515.977 90.3256C511.268 91.7382 506.677 93.6805 502.439 96.1525C501.38 90.5022 500.615 86.2644 498.967 82.0855C513.681 71.1967 520.332 84.3809 515.918 90.3256H515.977Z" fill="#6FF7C4"/>
<path d="M267.773 336.234C272.894 342.414 272.129 349.477 267.655 355.304C265.066 358.659 260.357 361.248 255.178 360.836C255.178 365.31 251.528 369.253 246.702 371.431C241.876 373.609 236.108 374.197 230.457 374.138C221.393 374.079 211.328 371.961 205.796 366.016C205.148 366.84 204.442 367.605 203.677 368.37C200.852 371.195 197.379 373.609 193.553 375.61C188.197 378.317 182.135 380.142 175.719 380.966C172.718 381.378 169.598 381.496 166.538 381.437C162.653 381.319 158.768 380.848 154.943 379.906C150.116 378.729 145.29 376.905 141.876 373.844C138.521 370.783 137.109 365.192 138.992 361.66C131.458 362.249 125.102 360.248 121.04 355.892C112.8 347.005 119.51 331.584 132.93 330.113C137.226 329.642 142.641 330.701 146.585 332.408C146.761 332.467 146.938 332.526 147.114 332.526C147.232 332.526 147.291 332.408 147.35 332.349C150.822 328.053 153.177 323.638 157.885 320.048C162.359 316.634 167.832 314.044 173.836 312.573C185.902 309.63 199.027 311.69 210.622 316.281C212.506 317.046 214.33 317.87 216.096 318.812C222.394 322.226 226.69 328.288 226.926 333.703C228.986 331.172 234.577 329.406 236.578 328.935C240.11 328.053 243.995 327.994 247.761 328.229C255.119 328.7 263.359 331.054 267.714 336.293L267.773 336.234Z" fill="#A1FFDA"/>
<path d="M336.755 333.115C332.34 327.346 328.161 321.343 324.336 315.163C321.216 314.398 318.097 313.633 315.036 312.75C310.21 311.396 304.677 308.924 298.968 305.863C300.027 307.688 301.087 309.512 302.205 311.278C307.208 319.106 312.27 326.934 317.273 334.763C323.394 331.937 329.986 331.937 336.755 333.056V333.115Z" fill="#B897F0"/>
<path d="M425.336 330.878C428.514 324.462 430.868 317.635 432.222 310.631C425.218 313.397 421.804 315.104 412.681 316.929C410.739 323.226 407.149 329.053 402.616 334.351C409.738 335.587 417.566 333.232 425.336 330.819V330.878Z" fill="#B897F0"/>
<path d="M531.221 623.755C527.219 621.871 523.099 619.87 519.273 617.987C508.62 612.749 497.613 607.392 485.783 606.863C476.954 606.451 468.243 608.805 459.414 609.923C449.879 611.1 436.872 610.689 429.868 603.037C423.805 596.386 423.805 586.38 422.981 577.905C420.745 555.362 404.912 537.528 390.727 521.224C374.541 502.567 364.241 483.85 365.418 458.659C366.89 428.052 372.128 392.679 393.552 369.136C400.733 361.249 408.679 353.95 415.565 345.828C419.45 341.237 422.687 336.234 425.394 330.878C417.625 333.232 409.797 335.587 402.675 334.409C396.142 342.002 387.667 348.594 379.191 353.95C376.248 355.834 373.423 357.423 370.715 359.659C365.301 364.015 363.005 362.426 358.473 357.894C353.941 353.421 349.644 348.712 345.465 343.886C342.464 340.354 339.58 336.764 336.754 333.115C329.986 331.996 323.394 331.996 317.272 334.821C319.274 337.941 321.275 341.119 323.335 344.239C329.986 354.657 338.108 364.78 334.047 377.964C330.162 390.56 321.981 401.919 312.858 411.278C305.442 418.929 295.495 422.461 285.136 424.521C273.364 426.875 261.181 426.346 249.292 424.639C233.518 422.343 215.978 416.398 206.855 402.39C199.262 390.795 199.792 379.318 203.736 368.312C200.91 371.137 197.438 373.55 193.612 375.551C193.082 379.612 192.847 383.732 192.965 387.852C193.023 391.325 193.2 395.092 191.022 397.799C190.316 398.623 189.374 399.33 188.315 399.447C186.667 399.565 185.195 398.329 184.136 397.093C180.133 392.502 177.779 386.793 175.837 380.966C172.835 381.378 169.716 381.496 166.655 381.437C167.714 384.439 168.833 387.382 170.069 390.324C176.484 405.51 185.548 419.753 198.379 430.23C219.921 447.77 248.997 451.242 275.719 452.478C282.37 452.773 289.138 453.42 295.26 456.128C306.56 461.072 308.974 472.019 309.091 483.438C309.327 499.153 312.976 515.28 320.333 529.229C325.513 539 331.634 548.358 335.048 558.894C339.168 571.783 338.285 587.204 330.457 598.505C327.985 602.095 324.453 605.215 320.157 605.862C318.332 606.156 316.448 605.98 314.565 605.803C288.138 603.508 261.828 612.984 237.932 623.166C232.282 625.58 226.808 628.522 222.276 632.701C218.332 636.292 216.508 641.412 212.976 645.062C214.448 643.59 230.634 627.757 253.294 623.343C277.072 618.693 300.851 627.051 320.215 630.583C334.282 633.113 348.703 632.289 362.77 630.818C369.479 630.112 375.601 628.934 382.193 630.053C386.077 630.7 389.315 631.053 392.964 632.525C400.674 635.703 409.209 638.116 417.625 636.998C425.336 635.997 431.751 631.524 438.579 628.287C443.994 625.697 449.821 626.992 455.53 626.933C461.062 626.933 466.183 624.873 471.539 623.52C483.723 620.341 495.259 620.282 507.207 624.226C510.68 625.403 514.093 626.816 517.566 627.875C523.099 629.582 529.514 631.23 535.341 630.936C539.873 630.7 544.346 629.758 548.584 628.052C542.11 628.464 536.989 626.58 531.28 623.873L531.221 623.755Z" fill="#FCB9F2"/>
<path d="M247.291 282.909H246.937C243.818 283.674 240.522 284.321 237.52 284.498C217.155 285.91 197.497 285.616 179.31 276.258C174.248 273.668 171.952 271.961 166.184 274.139C157.827 277.258 149.41 278.023 140.581 277.67C123.63 276.964 108.739 267.076 98.4389 253.892C73.542 222.05 83.7833 168.489 117.685 147.123C134.578 136.47 156.473 131.703 175.543 138.412C178.662 137.588 181.841 137.176 185.019 137.176C200.381 115.929 228.103 104.393 254.059 107.689C261.299 86.9118 275.954 67.7241 279.368 74.0808C281.252 77.5534 281.369 84.9695 280.663 92.9153C310.033 57.3063 355.177 34.7048 401.44 33.5865C426.807 32.9979 452.94 38.766 473.658 53.4805C481.192 58.8366 487.902 65.2521 493.552 72.5505C496.201 75.9642 497.908 78.966 499.085 81.9677C500.733 86.1466 501.498 90.4433 502.557 96.0348C506.795 93.5627 511.327 91.5616 516.095 90.2078C527.69 86.7352 540.285 86.7941 551.527 91.2673C567.301 97.5651 579.367 113.28 579.485 130.231C598.908 126.817 620.45 137.765 634.87 150.007C647.701 160.896 660.768 177.435 660.591 195.034C660.414 210.278 650.173 224.051 637.46 232.467C626.807 239.648 596.142 249.007 596.142 249.007C596.142 249.007 596.966 252.832 597.201 254.245C597.672 257.07 596.789 299.683 531.633 297.8C498.614 296.858 476.66 277.023 476.66 277.023C476.66 277.023 465.83 297.447 432.399 310.513C425.395 313.279 417.39 315.693 408.267 317.517C406.384 317.929 404.441 318.282 402.44 318.577C376.601 322.932 349.998 321.049 324.453 314.986C321.334 314.221 318.214 313.456 315.154 312.573C310.327 311.219 304.795 308.747 299.086 305.687C288.079 299.801 276.602 291.914 268.774 286.205C267.185 288.147 265.419 289.972 263.477 291.502C260.181 294.092 254.766 298.035 250.469 296.269C247.055 294.857 245.584 290.678 246.172 287.029C246.408 285.557 246.879 284.086 247.467 282.732L247.291 282.909Z" fill="#6FF7C4"/>
<path d="M202.04 386.263C201.569 383.143 201.569 380.259 201.864 377.14C202.158 374.02 202.217 373.903 202.452 372.314C202.688 370.724 202.864 367.899 203.335 367.723C199.097 369.253 196.507 373.55 192.623 375.845C192.682 379.847 192.799 383.85 192.858 387.852C192.917 391.854 192.741 390.736 194.389 391.854C196.037 392.973 197.096 392.914 198.45 392.502C201.334 391.737 202.393 389.029 201.981 386.322L202.04 386.263Z" fill="#B897F0"/>
<path d="M486.371 292.855C485.135 303.626 493.552 316.104 507.795 316.457C507.56 303.038 501.851 295.445 486.371 292.855Z" fill="#4EFF84" stroke="black" stroke-width="2" stroke-linecap="round" stroke-linejoin="round"/>
<path d="M189.315 129.995C178.544 131.055 166.184 122.403 166.066 108.159C179.486 108.571 186.961 114.457 189.315 129.995Z" fill="#4EFF84" stroke="black" stroke-width="2" stroke-linecap="round" stroke-linejoin="round"/>
<path d="M323.276 137.176V137.588C320.804 137.588 318.038 138.177 315.036 139.825V139.707C311.917 135.764 310.269 129.642 313.329 120.46C321.157 124.051 323.1 131.408 323.276 137.176Z" fill="#4EFF84"/>
<path d="M391.846 164.663C386.901 165.84 381.251 168.607 376.719 173.315C371.304 164.075 374.894 150.066 374.894 150.066C374.894 150.066 390.374 154.245 391.904 164.722L391.846 164.663Z" fill="#4EFF84"/>
<path d="M563.828 192.797C563.298 187.735 561.238 181.791 557.177 176.67C567.007 172.491 580.485 177.788 580.485 177.788C580.485 177.788 574.364 192.62 563.828 192.797Z" fill="#4EFF84"/>
<path d="M455.353 290.325C457.943 287.97 460.297 285.439 462.298 282.673C463.181 281.437 464.064 280.142 464.417 278.612C464.888 276.434 463.77 274.08 462.122 272.667C460.003 270.902 456.942 270.725 454.294 271.431C446.524 273.609 439.697 279.259 431.928 281.849C423.158 284.792 413.858 286.322 404.559 286.205C388.255 286.087 371.657 284.91 355.53 282.497C350.763 281.79 346.054 281.908 341.404 281.319C336.754 280.731 329.986 279.495 328.455 285.616C327.985 287.558 328.573 289.677 329.574 291.384C332.399 296.328 337.932 298.918 343.288 300.919C361.651 307.864 381.781 311.396 401.616 309.748C414.8 308.63 428.161 306.275 440.109 300.448C445.583 297.8 450.821 294.386 455.412 290.266L455.353 290.325Z" fill="#52E2B2"/>
<path d="M454.882 308.57C455.294 308.688 455.471 308.688 455.471 308.688C455.294 308.688 455.177 308.629 455 308.57C455 308.57 455 308.57 454.941 308.57H454.882Z" fill="#49D6AA"/>
<path d="M310.739 240.354C310.916 240.413 311.092 240.531 311.269 240.589C311.269 240.589 311.151 240.531 310.739 240.354Z" fill="#52E2B2"/>
<path d="M311.269 240.589C311.21 240.589 308.503 239.589 308.032 239.53C306.266 239.295 305.619 239.353 303.794 239.53C304.265 239.53 303.617 239.53 303.147 239.589C302.381 239.648 301.616 239.707 300.792 239.707C299.38 239.707 297.967 239.707 296.613 239.589C296.378 239.589 296.201 239.589 296.084 239.589C296.084 239.589 295.966 239.589 295.789 239.589C295.024 239.471 294.259 239.295 293.494 239.118C292.14 238.824 290.786 238.412 289.433 237.941C289.197 237.882 289.08 237.823 289.021 237.823C288.903 237.823 288.785 237.705 288.609 237.647C288.02 237.352 287.49 237.117 286.961 236.823C285.607 236.116 284.253 235.292 283.017 234.35C281.84 233.526 280.663 232.938 279.427 232.526C277.249 231.525 274.895 231.231 272.305 231.584C271.128 231.761 269.951 231.937 268.774 232.114C271.481 231.584 268.303 232.114 267.891 232.114C266.302 232.29 264.595 232.173 263.064 232.702C263.005 232.702 262.888 232.702 262.829 232.702C261.122 232.82 259.415 232.938 257.708 232.938C255.825 232.938 253.941 232.938 252.058 232.938C251.175 232.938 250.351 232.82 249.468 232.761C249.292 232.761 249.115 232.761 248.997 232.761C248.997 232.761 248.88 232.761 248.821 232.761C245.348 232.114 241.934 231.29 238.579 230.054C238.285 229.936 238.05 229.818 237.755 229.76C236.873 229.406 237.226 229.524 238.756 230.172C237.932 230.172 236.225 229.053 235.637 228.759C235.46 228.7 235.283 228.582 235.107 228.524C234.989 228.524 234.871 228.406 234.636 228.288C233.812 227.876 233.047 227.523 232.223 227.111C229.456 225.64 226.984 223.815 224.277 222.167C222.923 221.343 221.57 220.519 220.275 219.577C219.863 219.283 219.509 219.047 219.156 218.753C218.273 218.047 216.037 216.281 216.92 216.987C216.802 216.929 216.155 216.399 215.86 216.163C215.507 215.869 214.801 215.281 214.683 215.222C213.388 214.103 212.093 212.926 210.916 211.631C206.031 206.628 198.615 211.867 199.851 218.106C201.322 225.522 204.324 232.232 208.856 238.294C214.507 245.828 222.806 251.066 231.399 254.539C239.462 257.776 248.997 259.542 257.708 258.777C262.77 258.306 267.891 257.599 272.599 255.657C274.424 254.892 276.131 254.127 277.72 253.244C281.899 255.245 286.372 256.717 290.845 257.364C298.203 258.482 308.797 259.542 314.035 253.244C317.861 248.594 316.331 243.003 311.151 240.589H311.269Z" fill="#52E2B2"/>
<path d="M153.647 256.658C153.177 256.363 152.706 256.01 152.235 255.716C153.235 256.54 152.765 256.187 150.822 254.656C150.293 254.303 147.997 253.244 147.879 253.185C146.172 252.361 144.466 251.419 142.818 250.478C141.994 250.007 141.228 249.536 140.463 249.065C140.169 248.888 139.168 248.123 139.11 248.064C137.815 246.946 136.579 245.71 135.46 244.415C135.519 244.415 134.401 243.061 134.342 242.944C133.695 242.061 133.047 241.119 132.459 240.177C131.87 239.236 131.399 238.235 130.869 237.293C130.752 237.058 130.693 236.881 130.575 236.764C130.575 236.587 130.457 236.411 130.399 236.116C129.045 231.996 127.515 227.405 126.102 223.815C124.218 218.812 117.744 217.576 114.683 222.343C107.679 233.291 112.329 248.241 120.04 257.599C127.397 266.546 140.228 274.021 151.882 270.018C157.944 267.958 159.003 260.189 153.647 256.658Z" fill="#52E2B2"/>
<path d="M256.943 147.594C256.649 145.476 255.472 143.18 254.177 141.473C254.177 141.473 252.646 139.413 253.058 140.002C252.882 139.707 252.646 139.413 252.47 139.119C251.764 137.942 251.057 136.765 250.41 135.587C250.351 135.47 249.998 134.646 249.821 134.293C249.704 133.822 249.468 133.174 249.527 133.233C249.233 132.056 248.88 130.879 248.585 129.702C248.468 129.172 248.35 128.701 248.232 128.171C248.232 128.171 248.232 126.759 248.232 126.641C248.114 119.872 238.756 117.047 235.342 123.168C231.87 129.231 231.104 135.764 233.223 142.474C235.401 149.419 242.582 159.131 251.116 156.776C255.236 155.658 257.649 151.832 257.061 147.653L256.943 147.594Z" fill="#52E2B2"/>
<path d="M516.272 128.995C512.74 124.345 509.032 120.461 504.264 116.988C495.2 110.396 483.959 107.924 473.658 113.104C468.773 115.576 469.656 124.228 475.248 125.228C477.19 125.581 479.014 126.229 480.898 126.817C483.135 127.524 482.723 127.288 484.783 128.407C486.607 129.407 488.491 130.231 490.256 131.408C490.904 131.82 491.551 132.291 492.199 132.762C492.257 132.88 493.435 133.88 493.611 133.998C496.554 136.647 499.262 139.59 501.969 142.532C505.5 146.417 509.444 150.125 514.918 150.478C517.92 150.655 520.862 148.183 521.628 145.417C523.158 139.59 519.744 133.586 516.272 129.054V128.995Z" fill="#52E2B2"/>
<path d="M576.836 201.39C574.246 202.096 571.598 202.803 569.185 203.98C568.714 204.215 568.243 204.51 567.772 204.745C566.595 205.039 565.359 205.392 564.24 205.746C563.711 205.746 563.24 205.804 562.71 205.804C561.592 205.804 560.474 205.981 559.355 205.981C558.825 205.981 558.296 205.981 557.707 205.981C557.531 205.981 557.413 205.981 557.354 205.981C557.177 205.981 557.001 205.981 556.824 205.922C556.059 205.804 555.294 205.746 554.529 205.687C554.293 205.687 552.704 205.451 553.823 205.628C546.76 204.392 542.051 211.926 546.877 217.517C551.763 223.109 559.473 225.757 566.83 225.051C570.891 224.639 575.07 223.874 578.719 221.932C582.957 219.695 585.429 215.987 587.136 211.631C589.491 205.569 582.545 199.86 576.895 201.39H576.836Z" fill="#52E2B2"/>
<path d="M336.107 77.2592C332.399 75.6112 329.338 75.1992 325.336 76.1409C322.099 76.8472 319.215 78.7307 316.802 80.9673C312.505 85.0873 310.151 91.3263 310.504 97.2709C310.68 100.449 312.799 103.216 316.095 103.569C318.979 103.922 322.687 102.156 323.158 98.9778C323.57 96.2115 324.512 94.5046 326.219 93.2097C326.984 92.6212 326.572 92.9154 327.102 92.7389C327.749 92.4446 328.514 92.2092 329.221 92.0326C330.869 91.5617 332.634 91.3263 334.282 90.8554C339.992 89.384 342.11 79.9667 336.048 77.3181L336.107 77.2592Z" fill="#52E2B2"/>
<path d="M181.487 361.896C179.78 360.601 177.308 360.366 175.189 360.424C174.13 360.424 173.071 360.719 172.07 360.895C172.364 360.836 170.481 360.954 170.481 360.954C167.42 360.954 165.184 361.366 162.3 360.307C158.179 358.776 154.295 364.191 156.59 367.723C159.298 371.843 163.359 375.669 168.362 376.669C174.13 377.846 183.488 376.669 184.607 369.489C185.136 366.134 184.136 363.897 181.487 361.896Z" fill="#6FF7C4"/>
<path d="M248.468 347.77C244.407 345.357 240.286 347.24 237.638 350.595C236.637 351.949 236.814 351.949 235.578 353.008C236.225 352.479 234.872 353.479 234.695 353.597C234.106 353.95 233.459 354.362 232.87 354.715C230.693 355.892 228.044 356.599 225.572 356.54C222.04 356.481 220.157 361.072 222.688 363.485C226.867 367.487 231.811 369.194 237.579 368.37C242.994 367.605 248.821 363.544 251.293 358.541C253.176 354.715 252.352 350.007 248.468 347.711V347.77Z" fill="#6FF7C4"/>
<path d="M200.44 327.582C196.908 324.992 191.258 325.345 187.197 326.64C183.371 327.817 180.428 330.642 178.427 334.056C176.249 337.823 178.956 343.944 183.842 343.414C184.254 343.414 186.902 343.473 185.195 343.238C186.373 343.414 187.609 343.532 188.786 343.709C188.079 343.65 191.905 344.827 189.257 343.826C191.552 344.709 193.141 345.357 195.613 345.592C199.616 345.945 204.03 342.355 204.913 338.47C205.913 333.938 204.089 330.23 200.499 327.523L200.44 327.582Z" fill="#6FF7C4"/>
<path d="M180.968 392.561C180.497 391.266 179.79 389.971 179.143 388.794C178.025 386.793 176.965 384.733 175.729 382.85C173.728 379.789 165.841 380.495 167.783 384.851C169.726 389.206 173.257 396.446 175.965 402.273C176.612 400.036 177.966 398.094 179.849 396.74C180.438 396.328 181.085 395.916 181.321 395.21C181.497 394.739 181.38 394.268 181.321 393.797C181.203 393.385 181.085 392.973 180.909 392.561H180.968Z" fill="#B897F0"/>
<path d="M345.878 603.155C345.465 601.683 344.112 600.565 342.523 600.624C340.404 600.624 339.109 602.507 337.755 603.861C335.283 606.392 331.693 607.863 328.514 609.276C327.278 609.806 327.278 611.983 328.514 612.513C331.987 614.043 335.636 613.867 339.05 612.101C341.934 610.63 346.996 607.098 345.878 603.155Z" fill="#B897F0"/>
<path d="M330.103 487.793C330.751 482.79 331.281 477.728 330.751 472.667C329.809 462.896 325.159 453.773 317.92 447.181C315.212 444.709 313.093 443.591 309.621 442.59C308.62 442.296 297.378 440.648 297.437 440.883C297.967 443.532 298.261 446.239 298.379 448.947C298.497 451.654 298.026 452.773 299.909 454.185C303.323 456.716 307.737 457.717 310.739 460.777C314.565 464.662 315.978 470.43 316.919 475.668C317.214 477.316 317.626 479.141 317.684 480.848C317.743 482.555 317.331 483.614 317.331 485.086C317.331 488.911 317.802 492.796 318.45 496.563C319.803 504.214 322.099 511.689 324.453 519.047C324.983 520.695 325.512 522.402 326.219 523.991C326.925 525.521 328.397 527.228 329.986 526.698C330.103 525.168 329.868 523.638 329.633 522.107C328.514 514.103 327.926 505.686 328.691 497.622C329.456 489.559 329.515 490.971 329.927 487.675L330.103 487.793Z" fill="#B897F0"/>
<path d="M298.909 305.863C304.618 308.924 310.151 311.396 314.977 312.75C318.038 313.633 321.157 314.398 324.276 315.163C349.821 321.225 376.425 323.109 402.263 318.753C404.264 318.4 406.207 318.047 408.09 317.694C417.213 315.869 425.218 313.397 432.222 310.69C465.653 297.565 476.483 277.2 476.483 277.2C476.483 277.2 498.437 297.035 531.456 297.977C596.612 299.919 597.495 257.247 597.024 254.422C596.789 253.009 595.965 249.183 595.965 249.183C595.965 249.183 626.63 239.825 637.283 232.644C649.996 224.228 660.238 210.455 660.414 195.211C660.591 177.553 647.524 161.073 634.693 150.184C620.273 137.883 598.731 126.994 579.308 130.408C579.19 113.457 567.065 97.7419 551.35 91.4441C540.167 86.9709 527.572 86.9709 515.918 90.3846" stroke="black" stroke-width="2" stroke-linecap="round" stroke-linejoin="round"/>
<path d="M268.538 286.322H268.597C276.425 292.09 287.961 299.977 298.909 305.863" stroke="black" stroke-width="2" stroke-linecap="round" stroke-linejoin="round"/>
<path d="M175.543 138.53C156.473 131.82 134.578 136.588 117.685 147.241C83.7833 168.607 73.542 222.109 98.4389 254.01C108.739 267.194 123.63 277.082 140.581 277.788C149.41 278.141 157.827 277.376 166.184 274.257C171.952 272.079 174.248 273.727 179.31 276.376C197.497 285.734 217.155 285.969 237.52 284.616C240.463 284.38 243.818 283.733 246.937 282.968" stroke="black" stroke-width="2" stroke-linecap="round" stroke-linejoin="round"/>
<path d="M254 107.747C228.044 104.451 200.322 115.988 184.96 137.235" stroke="black" stroke-width="2" stroke-linecap="round" stroke-linejoin="round"/>
<path d="M515.977 90.3255C511.268 91.7381 506.677 93.6804 502.439 96.1525C501.38 90.5021 500.615 86.2643 498.967 82.0854C497.79 79.0248 496.083 76.0819 493.434 72.6681C487.784 65.3698 481.074 58.9542 473.54 53.5982C452.822 38.8837 426.748 33.1156 401.321 33.7042C355.059 34.8225 309.974 57.3651 280.545 93.033" stroke="black" stroke-width="2" stroke-linecap="round" stroke-linejoin="round"/>
<path d="M324.276 315.163C330.574 325.228 337.696 334.822 345.406 343.886C349.526 348.712 353.882 353.421 358.414 357.894C362.946 362.367 365.241 364.015 370.656 359.601C373.364 357.423 376.189 355.775 379.132 353.892C393.434 344.769 407.972 332.291 412.681 316.929" stroke="black" stroke-width="2" stroke-linecap="round" stroke-linejoin="round"/>
<path d="M212.918 644.944C216.39 641.295 218.215 636.174 222.217 632.584C226.749 628.464 232.223 625.462 237.873 623.049C261.77 612.866 288.079 603.39 314.506 605.686C316.39 605.862 318.214 606.039 320.098 605.745C324.395 605.097 327.926 601.978 330.398 598.387C338.226 587.087 339.109 571.666 334.989 558.776C331.634 548.24 325.513 538.882 320.275 529.112C312.917 515.221 309.268 499.035 309.033 483.32C308.856 471.961 306.502 460.954 295.201 456.01C289.08 453.361 282.311 452.714 275.66 452.361C248.939 451.125 219.863 447.652 198.321 430.113C185.49 419.636 176.426 405.333 170.01 390.207C168.774 387.264 167.656 384.321 166.596 381.319" stroke="black" stroke-width="2" stroke-linecap="round" stroke-linejoin="round"/>
<path d="M432.222 310.631C429.691 323.521 423.982 335.763 415.506 345.828C408.62 353.95 400.674 361.308 393.493 369.136C372.069 392.679 366.772 428.052 365.359 458.659C364.182 483.909 374.482 502.567 390.668 521.225C404.853 537.587 420.745 555.421 422.981 577.905C423.805 586.321 423.805 596.327 429.868 603.037C436.872 610.689 449.879 611.101 459.414 609.923C468.184 608.805 476.895 606.451 485.783 606.863C497.613 607.393 508.678 612.749 519.273 617.987C523.099 619.87 527.277 621.872 531.221 623.755C536.93 626.404 542.051 628.346 548.525 627.934C544.346 629.641 539.814 630.583 535.282 630.759C529.455 630.995 523.04 629.405 517.507 627.699C513.976 626.58 510.621 625.168 507.089 624.049C495.141 620.047 483.605 620.106 471.421 623.343C466.124 624.756 461.003 626.757 455.412 626.757C449.703 626.757 443.876 625.521 438.461 628.111C431.633 631.407 425.159 635.821 417.507 636.88C409.091 637.999 400.615 635.644 392.846 632.407C389.197 630.877 385.96 630.583 382.075 629.935C375.483 628.817 369.303 629.994 362.652 630.7C348.526 632.172 334.106 632.996 320.098 630.465C300.733 626.933 276.955 618.576 253.176 623.225C230.516 627.64 214.33 643.472 212.858 644.944" stroke="black" stroke-width="2" stroke-linecap="round" stroke-linejoin="round"/>
<path d="M298.909 305.863C299.968 307.688 301.028 309.512 302.146 311.278C309.15 322.226 316.213 333.232 323.217 344.18C329.927 354.598 337.99 364.721 333.929 377.905C330.045 390.501 321.863 401.861 312.74 411.219C305.324 418.87 295.436 422.402 285.018 424.462C273.247 426.816 261.063 426.287 249.174 424.58C233.4 422.284 215.86 416.34 206.737 402.331C199.145 390.736 199.674 379.259 203.618 368.253" stroke="black" stroke-width="2" stroke-linecap="round" stroke-linejoin="round"/>
<path d="M166.538 381.319C162.653 381.201 158.768 380.73 154.943 379.789C150.116 378.612 145.29 376.787 141.876 373.726C138.521 370.666 137.109 365.074 138.992 361.543C131.458 362.131 125.102 360.13 121.04 355.775C112.8 346.887 119.51 331.466 132.93 329.995C137.226 329.524 142.641 330.583 146.585 332.29C146.761 332.349 146.938 332.408 147.114 332.408C147.232 332.408 147.291 332.29 147.35 332.232C150.822 327.935 153.177 323.521 157.885 319.93C162.359 316.516 167.832 313.927 173.836 312.455C185.902 309.512 199.027 311.572 210.622 316.163C212.506 316.928 214.33 317.752 216.096 318.694C222.394 322.108 226.69 328.17 226.926 333.585C228.986 331.054 234.577 329.289 236.578 328.818C240.11 327.935 243.995 327.876 247.761 328.111C255.119 328.582 263.359 330.937 267.714 336.175C272.835 342.355 272.07 349.418 267.597 355.245C265.007 358.6 260.298 361.19 255.119 360.778C255.119 365.251 251.469 369.194 246.643 371.372C241.817 373.55 236.049 374.138 230.398 374.079C221.334 374.021 211.27 371.902 205.737 365.957C205.089 366.781 204.383 367.546 203.618 368.311C200.793 371.137 197.32 373.55 193.494 375.551C188.138 378.258 182.076 380.083 175.661 380.907C172.659 381.319 169.539 381.437 166.479 381.378L166.538 381.319Z" stroke="black" stroke-width="2" stroke-linecap="round" stroke-linejoin="round"/>
<path d="M175.719 380.907C177.661 386.734 180.016 392.385 184.018 397.034C185.136 398.27 186.549 399.565 188.256 399.448C189.315 399.33 190.257 398.682 190.963 397.8C193.141 395.151 192.964 391.325 192.906 387.853C192.847 383.733 193.023 379.612 193.553 375.551" stroke="black" stroke-width="2" stroke-linecap="round" stroke-linejoin="round"/>
<path d="M198.32 140.119C194.142 138.118 189.609 137.235 185.019 137.235C181.84 137.235 178.662 137.706 175.542 138.471C162.358 141.826 150.41 151.479 146.996 161.779" stroke="black" stroke-width="2" stroke-linecap="round" stroke-linejoin="round"/>
<path d="M213.918 211.514C214.212 225.875 255.648 238.942 271.304 223.168C273.188 234.292 296.142 237.647 301.911 232.88" stroke="black" stroke-width="2" stroke-linecap="round" stroke-linejoin="round"/>
<path d="M425.1 142.886C444.406 119.637 488.667 135.941 493.081 149.478" stroke="black" stroke-width="2" stroke-linecap="round" stroke-linejoin="round"/>
<path d="M498.967 82.0855C513.681 71.1967 520.332 84.3809 515.918 90.3256" stroke="black" stroke-width="2" stroke-linecap="round" stroke-linejoin="round"/>
<path d="M559.355 244.416C576.601 260.072 597.672 247.947 583.899 234.704" stroke="black" stroke-width="2" stroke-linecap="round" stroke-linejoin="round"/>
<path d="M250.233 133.056C249.232 125.523 250.939 116.459 254 107.689C261.239 86.9119 275.895 67.7242 279.309 74.0809C281.192 77.5535 281.31 84.9696 280.604 92.9154C279.485 105.629 276.307 119.813 275.189 121.638" stroke="black" stroke-width="2" stroke-linecap="round" stroke-linejoin="round"/>
<path d="M410.445 251.832C417.213 272.138 444.582 260.661 438.461 246.417" stroke="black" stroke-width="2" stroke-linecap="round" stroke-linejoin="round"/>
<path d="M267.95 263.897C267.95 263.897 260.357 268.606 257.708 270.725C253.706 273.962 249.409 278.023 247.232 282.909C246.584 284.262 246.172 285.734 245.937 287.205C245.348 290.854 246.878 295.033 250.233 296.446C254.53 298.212 259.945 294.268 263.241 291.678C265.183 290.148 266.949 288.324 268.538 286.381C272.717 281.202 275.601 274.845 276.896 268.547" stroke="black" stroke-width="2" stroke-linecap="round" stroke-linejoin="round"/>
<path d="M150.469 227.17C146.702 228.877 142.818 231.82 140.11 234.94C138.639 236.588 137.697 239.001 138.58 241.002C140.463 245.299 146.408 244.121 150.057 243.415C154.884 242.473 159.474 240.413 163.3 237.353" stroke="black" stroke-width="2" stroke-linecap="round" stroke-linejoin="round"/>
<path d="M204.442 351.772C206.208 353.303 208.562 354.245 210.916 354.303C213.271 354.362 215.625 353.597 217.508 352.184C218.627 351.36 219.568 350.183 219.863 348.83C220.157 347.476 219.568 345.828 218.332 345.239" stroke="black" stroke-width="2" stroke-linecap="round" stroke-linejoin="round"/>
<path d="M155.943 347.241C154.589 347.358 153.412 348.3 152.824 349.477C152.117 351.066 152.588 353.068 153.765 354.363C154.942 355.657 156.708 356.305 158.474 356.423C160.24 356.481 161.947 356.011 163.595 355.363" stroke="black" stroke-width="2" stroke-linecap="round" stroke-linejoin="round"/>
<path d="M486.372 292.855C496.024 298.859 501.204 306.511 502.146 308.335" stroke="black" stroke-width="2" stroke-linecap="round" stroke-linejoin="round"/>
<path d="M189.316 129.996C183.489 120.225 175.896 114.928 174.071 113.986" stroke="black" stroke-width="2" stroke-linecap="round" stroke-linejoin="round"/>
<path d="M314.977 139.707C311.916 135.764 310.268 129.642 313.329 120.46C321.157 124.051 323.099 131.408 323.276 137.176" stroke="black" stroke-width="2" stroke-linecap="round" stroke-linejoin="round"/>
<path d="M311.033 142.591C312.387 141.414 313.741 140.531 315.036 139.824C318.038 138.176 320.804 137.647 323.276 137.588C324.806 137.588 326.219 137.706 327.514 137.941" stroke="black" stroke-width="2" stroke-linecap="round" stroke-linejoin="round"/>
<path d="M376.719 173.315C371.304 164.075 374.894 150.066 374.894 150.066C374.894 150.066 390.374 154.245 391.904 164.722" stroke="black" stroke-width="2" stroke-linecap="round" stroke-linejoin="round"/>
<path d="M372.658 178.554C373.835 176.552 375.189 174.846 376.66 173.256C381.192 168.548 386.842 165.84 391.787 164.604C393.376 164.192 394.906 164.016 396.26 163.898" stroke="black" stroke-width="2" stroke-linecap="round" stroke-linejoin="round"/>
<path d="M384.488 167.488C383.193 163.427 380.368 158.718 380.368 158.718" stroke="black" stroke-width="2" stroke-linecap="round" stroke-linejoin="round"/>
<path d="M557.177 176.67C567.007 172.491 580.485 177.788 580.485 177.788C580.485 177.788 574.364 192.62 563.828 192.797" stroke="black" stroke-width="2" stroke-linecap="round" stroke-linejoin="round"/>
<path d="M552.469 172.02C554.293 173.433 555.824 175.022 557.177 176.67C561.239 181.732 563.24 187.676 563.828 192.797C564.005 194.445 564.064 195.975 563.946 197.329" stroke="black" stroke-width="2" stroke-linecap="round" stroke-linejoin="round"/>
<path d="M562.004 185.146C566.183 184.38 571.186 182.203 571.186 182.203" stroke="black" stroke-width="2" stroke-linecap="round" stroke-linejoin="round"/>
<path d="M319.274 138.118C319.156 136.235 316.625 128.877 316.625 128.877" stroke="black" stroke-width="2" stroke-linecap="round" stroke-linejoin="round"/>
<path d="M358.414 461.601C358.826 473.726 361.887 485.733 367.302 496.622" stroke="black" stroke-width="2" stroke-linecap="round" stroke-linejoin="round"/>
<path d="M358.414 502.213C364.182 522.99 379.073 540.059 386.077 560.482" stroke="black" stroke-width="2" stroke-linecap="round" stroke-linejoin="round"/>
<path d="M366.654 562.307C371.01 568.723 372.54 577.022 370.715 584.555" stroke="black" stroke-width="2" stroke-linecap="round" stroke-linejoin="round"/>
<path d="M336.284 613.984C338.638 614.691 341.228 614.691 343.406 613.572C345.583 612.454 347.172 610.1 346.937 607.687" stroke="black" stroke-width="2" stroke-linecap="round" stroke-linejoin="round"/>
<path d="M311.916 448.947C320.804 454.362 326.395 464.662 326.101 475.021" stroke="black" stroke-width="2" stroke-linecap="round" stroke-linejoin="round"/>
<path d="M349.468 387.381C352.94 380.554 353.706 372.372 351.528 365.015" stroke="black" stroke-width="2" stroke-linecap="round" stroke-linejoin="round"/>
<path d="M197.803 373.314C196.037 381.967 196.272 390.972 198.568 399.506" stroke="black" stroke-width="2" stroke-linecap="round" stroke-linejoin="round"/>
<path d="M171.668 381.908C172.257 384.439 173.022 386.381 174.434 389.795" stroke="black" stroke-width="2" stroke-linecap="round" stroke-linejoin="round"/>
<path d="M363.329 403.273C364.859 399.506 366.507 395.857 368.39 392.208" stroke="black" stroke-width="2" stroke-linecap="round" stroke-linejoin="round"/>
<path d="M411.047 337.235C415.108 332.585 418.463 327.229 420.935 321.52" stroke="black" stroke-width="2" stroke-linecap="round" stroke-linejoin="round"/>
<path d="M544.759 96.6232C554.235 101.92 569.008 98.9775 574.776 85.9699C562.298 80.967 553.116 83.3213 544.759 96.6232Z" fill="#4EFF84" stroke="black" stroke-width="2" stroke-linecap="round" stroke-linejoin="round"/>
<path d="M544.759 96.6233C553.999 90.0312 563.122 88.1477 565.123 88.0889" stroke="black" stroke-width="2" stroke-linecap="round" stroke-linejoin="round"/>
<path d="M417.567 572.077C417.861 572.313 418.214 572.489 418.567 572.725C433.164 582.024 452.057 581.377 468.184 576.786H467.066C468.832 575.903 470.421 575.138 471.951 574.432C473.599 573.255 475.189 571.901 476.601 570.547C477.955 569.193 479.014 567.663 480.074 566.074C480.662 565.132 482.075 563.602 481.369 562.425C481.015 561.777 480.074 561.424 479.485 560.953C478.779 560.424 478.131 559.835 477.543 559.188C476.366 557.952 475.365 556.539 474.306 555.126C473.423 553.949 472.54 552.772 471.304 552.066C470.068 551.418 469.185 550.535 468.243 549.535C467.714 549.005 466.948 548.475 466.89 547.651C466.831 546.827 467.184 545.768 467.243 544.944C467.478 542.766 467.537 540.53 467.243 538.293C467.184 537.822 467.066 537.292 466.772 536.88C466.007 535.88 464.535 535.998 463.358 536.351C459.65 537.351 456.236 539.294 453.47 541.942C452.352 543.002 451.645 543.708 450.056 543.531C448.055 543.355 446.113 543.178 444.112 543.296C442.464 543.296 440.815 543.649 439.226 543.649C438.343 543.649 437.461 543.649 436.578 543.649C436.283 543.649 434.223 544.061 434.106 543.943C431.516 540.765 427.984 538.411 424.1 537.116C422.334 536.527 420.156 536.292 418.861 537.587C418.037 538.411 417.802 539.588 417.684 540.765C417.39 543.531 417.508 546.298 417.567 549.005C417.567 549.182 417.567 549.358 417.508 549.535C417.449 549.711 417.272 549.888 417.096 550.006C413.388 552.949 410.033 556.421 407.266 560.247C407.031 560.541 406.854 560.836 406.796 561.189C406.678 561.718 406.972 562.248 407.266 562.719C408.032 564.014 409.032 565.544 410.268 566.486C411.269 567.31 412.211 568.311 413.27 569.076C414.8 570.135 416.389 571.018 417.861 572.254C417.861 572.254 417.979 572.313 417.979 572.372C417.979 572.431 417.979 572.489 417.92 572.548C417.802 572.725 417.684 572.901 417.625 573.019L418.861 572.607C418.508 572.372 418.214 572.195 417.861 571.96L417.567 572.077Z" fill="#CCBCF3"/>
<path d="M464.064 536.174C463.476 536.174 462.887 536.174 462.299 536.292C461.769 536.41 461.239 536.586 460.71 536.822C459.591 537.293 458.591 537.822 457.59 538.529C455.707 539.941 453.941 541.707 452.823 543.826C452.587 544.297 452.587 544.768 452.823 545.18C452.94 545.533 453.235 545.827 453.647 545.945C454.294 546.062 454.883 545.886 455.236 545.297C455.824 544.356 456.295 543.708 456.943 542.943C457.649 542.178 458.414 541.472 459.179 540.824C459.179 540.824 459.297 540.706 459.356 540.706C459.474 540.647 459.591 540.53 459.65 540.471C459.886 540.294 460.062 540.177 460.298 540.059C460.71 539.765 461.122 539.47 461.592 539.235C462.063 538.999 462.534 538.705 463.005 538.47C463.476 538.234 463.888 537.94 464.359 537.646C464.947 537.234 464.712 536.351 464.006 536.292L464.064 536.174Z" fill="#DDD6F2"/>
<path d="M432.811 543.237C431.457 541.118 429.221 539.352 427.043 538.234C425.925 537.646 424.747 537.175 423.511 536.88C422.275 536.645 420.863 536.351 419.686 536.88C419.156 537.116 419.274 537.822 419.686 538.116C420.627 538.705 421.863 538.823 422.864 539.176C423.864 539.529 424.924 539.941 425.866 540.471C426.807 541 427.69 541.589 428.455 542.236C429.338 543.002 430.103 543.884 430.869 544.767C431.163 545.12 431.693 545.179 432.105 545.062C432.458 545.003 432.693 544.767 432.87 544.473C433.105 544.12 433.105 543.59 432.87 543.178L432.811 543.237Z" fill="#DDD6F2"/>
<path d="M481.133 619.164C480.662 615.633 479.132 611.395 475.718 609.747C476.13 608.04 476.719 606.392 476.954 604.626C477.189 602.919 477.366 601.212 477.366 599.505C477.366 596.092 476.954 592.678 476.307 589.323C475.953 587.616 475.6 585.85 474.717 584.32C474.364 583.732 473.952 583.202 473.364 582.907C473.011 582.672 472.599 582.613 472.304 582.319C471.833 581.848 471.598 581.083 471.304 580.494C470.951 579.847 470.539 579.199 470.185 578.611C469.361 577.316 468.537 575.962 467.301 575.021C466.418 574.373 465.3 574.314 464.358 573.785C463.829 573.49 463.711 572.843 463.064 572.666C462.357 572.49 460.886 573.196 460.121 573.373C459.12 573.608 458.061 573.843 457.06 574.02C452.881 574.844 448.702 575.433 444.464 575.668C432.869 576.374 420.804 574.55 410.739 568.487L409.444 568.899C408.09 570.9 406.737 572.961 405.383 574.962C404.088 576.904 402.734 578.905 401.675 580.965C400.439 583.32 399.497 585.792 398.732 588.322C398.026 590.559 396.907 593.325 396.907 595.68C396.907 600.8 396.554 605.98 396.436 611.159C396.319 616.339 396.201 621.636 398.143 626.462C398.732 627.934 399.732 628.993 400.086 630.465C400.556 632.348 401.734 634.114 402.734 635.821C404.265 638.469 405.854 641.177 408.208 643.119C409.326 644.002 410.562 644.708 411.857 645.415C414.094 646.533 416.448 647.592 418.92 647.71C419.568 647.71 420.215 647.71 420.862 647.475C421.451 647.239 421.981 646.768 422.452 646.356C426.513 643.06 432.634 641.589 437.814 641.53C438.814 641.53 439.874 641.53 440.815 642.06C441.345 642.354 441.875 642.766 442.287 643.178C443.228 644.002 444.17 645.12 445.347 645.415C446.525 645.709 448.173 645.356 449.409 645.356C452.705 645.356 456.001 645.591 459.356 645.297C460.592 645.179 461.886 645.179 463.181 645.12C463.652 643.943 464.3 642.884 465.241 641.942C467.596 639.882 470.303 638.469 473.246 637.586C474.776 636.468 475.6 634.82 476.954 633.466C478.308 632.113 479.191 630.818 479.897 629.052C481.133 625.933 481.604 622.519 481.192 619.223L481.133 619.164Z" fill="#CCBCF3"/>
<path d="M466.419 595.267C465.654 592.148 464.712 589.382 461.71 587.793C453.941 583.731 444.994 585.262 438.108 590.382C437.107 591.147 436.048 591.971 435.165 592.854C434.282 593.737 432.929 595.444 432.987 595.621C433.753 596.386 434.635 597.033 435.577 597.563C437.578 595.797 439.521 593.973 441.522 592.207C442.522 591.265 443.523 590.382 444.641 589.558C445.995 588.617 447.643 587.851 449.173 588.44C449.291 588.44 449.468 588.558 449.526 588.675C449.821 589.087 449.291 589.676 448.761 589.853C448.232 590.029 447.584 590.206 447.466 590.735C448.173 590.382 449.114 590.735 449.526 591.442C449.938 592.148 449.644 593.09 448.938 593.502C448.467 593.796 447.761 594.09 447.996 594.561C447.996 594.679 448.173 594.797 448.232 594.855C448.82 595.385 449.35 596.033 449.468 596.857C449.585 597.681 449.114 598.564 448.349 598.681C447.937 598.681 447.525 598.564 447.172 598.505C445.642 598.152 444.053 598.622 442.699 599.446C441.345 600.27 440.286 601.448 439.226 602.625C437.461 604.567 435.401 606.451 433.811 608.569C432.222 610.688 433.811 612.454 434.282 614.455C436.283 623.402 435.224 633.054 431.339 641.412C432.634 640.882 433.576 641.294 434.871 641.294C436.166 641.294 437.931 640.588 439.403 640.47C441.169 640.353 442.287 641.294 443.405 642.354C443.641 642.354 443.817 642.354 443.935 642.354C464.535 638.822 470.421 614.102 466.301 595.267H466.419Z" fill="#DDD6F2"/>
<path d="M486.666 645.473C486.313 644.296 485.312 643.354 484.194 642.766C483.487 642.413 482.781 642.177 482.016 642.001C481.545 641.883 481.074 641.765 480.603 641.706C478.19 641.235 475.836 640.647 473.423 640.176C472.952 640.058 471.422 640.176 471.127 639.705C470.598 638.881 472.01 638.116 472.481 637.822C472.716 637.704 472.952 637.527 473.128 637.41C470.244 638.293 467.478 639.764 465.124 641.765C464.182 642.707 463.535 643.766 463.064 644.943C463.535 644.943 464.064 644.885 464.535 644.767C466.183 644.531 467.714 645.061 469.362 645.473C470.774 645.826 472.246 645.767 473.599 646.297C474.953 646.827 476.248 647.769 476.778 649.063C477.131 649.888 477.425 651.065 478.367 651.182C479.014 651.241 479.603 650.712 479.838 650.123C479.838 650.005 479.956 649.829 480.015 649.77C480.309 649.534 480.78 649.77 481.015 650.005C481.251 650.3 481.486 650.653 481.839 650.77C482.428 650.947 482.958 650.417 483.075 649.829C483.193 649.24 483.075 648.652 483.193 648.063C483.311 647.474 483.782 646.886 484.37 647.003C484.723 647.062 485.018 647.416 485.371 647.474C485.842 647.592 486.313 647.298 486.548 646.886C486.725 646.474 486.725 645.944 486.548 645.473H486.666Z" fill="#B897F0"/>
<path d="M468.361 576.138C468.361 576.138 468.361 576.139 468.361 576.08C469.656 575.432 470.951 574.667 472.187 573.784C470.656 574.49 469.067 575.314 467.302 576.138H468.42H468.361Z" fill="#CCBCF3"/>
<path d="M460.71 570.959C459.179 566.898 454.294 563.955 450.233 563.661C447.526 563.484 444.818 564.308 442.405 565.603C439.168 567.369 437.343 570.724 436.637 574.255C436.46 575.138 436.342 576.021 436.637 576.845C436.99 577.728 437.814 578.375 438.638 578.846C441.287 580.435 444.347 581.201 447.408 581.436C450.468 581.671 454.059 581.966 456.413 580.494C458.473 579.199 460.533 577.434 461.063 575.021C461.357 573.608 461.239 572.195 460.769 570.901L460.71 570.959Z" fill="#DDD6F2"/>
<path d="M476.248 554.832C477.189 555.832 477.778 557.363 478.308 558.481C478.837 559.599 478.484 559.364 477.955 559.953C477.425 560.541 477.248 560.777 476.895 561.13C476.13 561.954 475.365 562.719 474.541 563.425C471.245 566.368 467.419 568.605 463.534 570.665C462.71 571.077 461.886 571.606 461.004 571.783C460.238 571.901 459.532 571.842 458.767 571.783C457.943 571.783 457.06 571.665 456.295 571.371C454.529 570.724 453.352 568.899 452.763 567.074C452.116 565.014 451.998 562.837 452.587 560.718C453.587 557.01 456.707 554.42 460.356 553.419C461.298 553.125 462.298 552.948 463.299 553.066C465.712 553.302 467.654 555.009 470.185 554.714C472.716 554.42 473.658 553.007 475.424 554.067C477.189 555.126 476.071 554.538 476.365 554.832H476.248Z" fill="black"/>
<path d="M443.405 560.306C444.112 561.483 444.524 562.837 444.641 564.308C444.877 567.016 444.112 570.312 441.639 571.724C439.167 573.137 436.342 572.666 433.811 572.254C429.397 571.489 425.042 569.664 421.275 567.31C416.625 564.426 412.623 560.718 409.091 556.539C409.091 556.539 413.447 552.654 413.859 552.301C414.8 551.536 415.212 552.595 415.801 553.361C416.389 554.126 417.155 554.95 417.979 555.656C419.274 556.833 420.863 557.775 422.57 558.128C425.1 558.599 427.69 557.716 430.221 557.069C432.163 556.539 434.223 556.068 436.225 556.186C439.403 556.303 441.934 557.893 443.405 560.365V560.306Z" fill="black"/>
<path d="M476.012 607.981C480.191 611.689 481.486 617.339 481.368 622.754C481.251 628.169 475.188 637.351 469.773 639.47" stroke="black" stroke-width="2" stroke-linecap="round" stroke-linejoin="round"/>
<path d="M468.42 575.55C469.597 576.021 471.363 580.318 472.599 583.378" stroke="black" stroke-width="2" stroke-linecap="round" stroke-linejoin="round"/>
<path d="M414.741 602.742C411.916 600.977 409.326 598.917 406.972 596.621" stroke="black" stroke-width="2" stroke-linecap="round" stroke-linejoin="round"/>
<path d="M471.068 611.395C467.655 628.758 455.942 636.88 455.294 638.293" stroke="black" stroke-width="2" stroke-linecap="round" stroke-linejoin="round"/>
<path d="M445.171 645.297C449.703 644.708 461.769 644.12 466.301 644.649C470.833 645.179 470.774 645.297 473.07 645.65C475.365 646.003 476.366 646.003 477.131 647.887C477.366 648.534 477.425 649.181 477.543 649.888C477.602 650.417 477.896 651.065 478.426 651.124C478.72 651.124 478.956 651.006 479.191 650.829C479.721 650.359 479.897 649.652 479.897 649.005C479.897 648.357 479.78 647.651 479.662 647.004C479.662 646.768 479.662 646.533 479.78 646.415C479.956 646.356 480.133 646.415 480.25 646.592C480.368 646.768 480.368 646.945 480.368 647.121C480.486 648.004 480.662 648.828 481.016 649.652C481.133 650.005 481.31 650.359 481.663 650.594C482.016 650.83 482.428 650.888 482.723 650.712C482.958 650.535 483.076 650.182 483.135 649.888C483.252 648.946 483.135 648.004 482.84 647.121C483.37 646.768 484.194 647.004 484.488 647.533C484.665 647.887 484.724 648.358 485.077 648.534C485.371 648.652 485.724 648.534 485.901 648.299C486.077 648.063 486.195 647.769 486.195 647.475C486.313 646.415 486.019 645.473 485.43 644.532C483.193 641.118 474.188 640 469.774 639.646" stroke="black" stroke-width="2" stroke-linecap="round" stroke-linejoin="round"/>
<path d="M449.88 574.197C449.409 574.197 448.997 574.197 448.703 574.255C447.113 574.373 444.641 575.079 446.348 576.963C447.879 578.67 449.291 579.494 450.645 578.611C451.528 578.081 453.176 576.786 452.999 575.609C452.823 574.314 451.175 574.138 449.88 574.138V574.197Z" fill="#B897F0" stroke="black" stroke-width="2" stroke-linecap="round" stroke-linejoin="round"/>
<path d="M427.984 542.354C427.514 541.883 426.984 541.471 426.395 541.059C424.983 540.118 422.452 538.705 421.569 541.059C420.922 542.766 420.745 544.65 421.157 546.415C421.334 547.357 421.746 548.358 422.628 548.888C423.452 549.358 424.571 549.241 425.512 548.888C426.866 548.417 428.102 547.651 429.103 546.651C429.338 546.415 429.574 546.18 429.691 545.886C429.927 545.356 429.809 544.709 429.574 544.238C429.22 543.531 428.573 542.943 428.043 542.354H427.984Z" fill="#B897F0"/>
<path d="M430.28 545.12C428.397 541.236 423.335 539.411 423.452 539.47" stroke="black" stroke-width="2" stroke-linecap="round" stroke-linejoin="round"/>
<path d="M464.476 540.353C464.3 539.588 463.829 539.058 462.887 539.706C462.181 540.177 461.533 540.706 460.827 541.177C459.297 542.178 458.473 544.061 457.767 545.651C457.59 546.063 457.413 546.592 457.708 547.004C457.884 547.299 458.237 547.416 458.591 547.475C459.944 547.828 461.416 547.828 462.828 547.475C463.064 547.475 463.24 547.357 463.417 547.24C463.652 547.063 463.77 546.769 463.829 546.475C464.359 544.709 464.594 542.767 464.594 540.883C464.594 539 464.594 540.471 464.594 540.294L464.476 540.353Z" fill="#B897F0"/>
<path d="M456.53 546.298C459.944 540.471 463.77 538.823 463.77 538.823" stroke="black" stroke-width="2" stroke-linecap="round" stroke-linejoin="round"/>
<path d="M447.584 591.795L450.586 577.316C450.763 576.374 451.704 575.55 452.587 575.492L458.532 575.315L463.711 575.197C464.594 575.197 465.183 575.962 465.006 576.904L462.004 591.383L459.944 601.389C459.768 602.331 458.826 603.155 457.943 603.214L446.819 603.508C445.936 603.508 445.348 602.743 445.524 601.801L447.584 591.795Z" fill="#FCB9F2" stroke="black" stroke-width="2" stroke-linecap="round" stroke-linejoin="round"/>
<path d="M458.885 585.262C458.767 585.203 461.062 587.145 461.062 587.145L455.236 590.5L450.35 587.793L453.234 585.556C452.999 585.38 452.469 584.085 453.411 583.967C454.353 583.849 455.059 585.027 455.059 585.027L457.06 584.85C457.06 584.85 457.825 583.908 458.767 583.849C459.709 583.791 458.826 585.262 458.826 585.262H458.885Z" fill="#CCBCF3" stroke="black" stroke-width="2" stroke-linecap="round" stroke-linejoin="round"/>
<path d="M431.398 600.153C430.868 601.212 430.456 602.272 430.28 603.449C430.103 604.626 430.397 606.451 431.398 607.51C431.751 607.922 432.222 608.217 432.399 608.746C432.399 608.864 432.457 608.982 432.575 609.041C432.693 609.099 432.869 609.041 432.987 609.041C434.635 608.217 435.695 607.216 436.872 605.862C438.049 604.509 440.403 603.096 442.051 601.86C443.523 600.742 445.465 598.858 447.407 599.27C447.819 599.329 448.231 599.506 448.584 599.329C449.173 599.094 449.291 598.328 448.996 597.74C448.702 597.151 448.29 596.739 447.937 596.268C447.878 596.151 447.76 596.033 447.76 595.915C447.76 595.68 447.937 595.444 448.231 595.327C448.526 595.209 448.761 595.209 448.996 595.091C449.585 594.738 449.644 593.855 449.291 593.267C448.938 592.678 448.29 592.325 447.702 592.031C448.29 591.677 448.879 591.324 449.408 590.971C449.526 590.912 449.644 590.853 449.703 590.736C449.762 590.618 449.762 590.5 449.703 590.383C449.703 589.617 449.291 588.852 448.643 588.44C447.996 588.028 447.172 588.028 446.407 588.205C443.817 588.676 441.639 590.441 439.815 592.325C439.108 593.031 438.402 593.796 437.755 594.561C436.813 595.562 436.165 596.504 434.753 596.916C433.34 597.328 432.399 598.034 431.633 599.447C431.516 599.682 431.339 599.976 431.221 600.212L431.398 600.153Z" fill="#B897F0"/>
<path d="M416.802 577.257C418.508 577.904 419.98 579.081 421.216 580.435C422.452 581.789 423.511 583.26 424.571 584.791C427.278 588.616 429.75 592.736 432.752 596.327C433.282 596.974 433.87 597.622 434.694 597.622C435.401 597.622 435.93 597.092 436.46 596.562C438.343 594.679 440.286 592.913 442.287 591.206C443.052 590.559 443.876 589.911 444.759 589.382C445.642 588.852 446.642 588.44 447.643 588.499C447.82 588.499 448.055 588.499 448.232 588.558C448.82 588.675 449.35 589.028 449.821 589.44C450.292 589.852 450.527 590.559 450.174 591.03C449.821 591.5 449.056 591.324 448.467 591.147C448.232 591.088 447.996 591.03 447.761 591.03C447.408 591.03 446.996 591.147 446.819 591.442C447.054 591.559 447.349 591.677 447.584 591.736C447.878 591.854 448.232 591.971 448.526 592.148C448.879 592.324 449.291 592.442 449.585 592.736C450.115 593.266 450.233 594.031 450.174 594.738C450.174 594.914 450.174 595.15 449.939 595.267C449.821 595.385 449.585 595.385 449.409 595.326C448.997 595.209 448.644 594.973 448.291 594.796C447.937 594.62 447.466 594.443 447.113 594.561C447.054 594.561 446.996 594.561 446.937 594.679C446.584 594.855 446.584 595.208 446.76 595.444C446.878 595.62 447.054 595.738 447.231 595.856C448.055 596.209 448.585 596.327 449.056 597.21C449.232 597.563 449.409 597.916 449.409 598.269C449.409 598.622 449.409 599.034 449.114 599.329C449.056 599.387 448.938 599.505 448.879 599.505C448.703 599.505 448.526 599.505 448.349 599.505C447.82 599.329 447.231 599.27 446.701 599.093C446.466 598.975 446.289 598.917 446.054 598.858C445.818 598.799 445.524 598.74 445.171 598.858C444.818 598.975 444.288 599.329 443.935 599.682C442.287 601.094 440.58 602.507 438.932 603.919C437.578 605.038 434.753 607.51 433.517 608.805" stroke="black" stroke-width="2" stroke-linecap="round" stroke-linejoin="round"/>
<path d="M468.479 592.854C468.479 592.383 468.42 591.913 468.361 591.383C468.361 590.382 468.184 589.382 467.772 588.499C466.948 586.674 464.947 584.908 462.828 585.438C462.299 585.556 461.769 585.85 461.475 586.262C461.18 586.674 461.18 587.381 461.534 587.734C460.71 587.616 459.827 588.087 459.473 588.852C459.12 589.617 459.238 590.559 459.885 591.206C460.474 591.795 461.357 591.971 462.004 592.56C461.239 592.56 460.415 592.56 460.003 593.207C459.65 593.737 459.827 594.444 460.239 594.914C460.651 595.385 461.239 595.621 461.828 595.856C462.416 596.092 463.064 596.268 463.535 596.621C464.359 597.21 464.771 598.21 465.065 599.152C466.007 602.272 466.242 605.568 467.537 608.569C467.537 608.687 467.655 608.805 467.714 608.805C467.89 608.805 468.008 608.687 468.067 608.569C469.008 607.275 470.009 606.038 470.656 604.567C471.304 603.096 471.716 601.506 471.422 599.917C470.951 597.386 468.596 595.444 468.361 592.854H468.479Z" fill="#B897F0"/>
<path d="M472.069 601.389C471.539 599.682 469.656 597.328 468.773 595.327C467.89 593.326 468.302 591.265 468.067 590.029C467.89 588.852 467.89 588.264 467.007 587.499C466.301 586.91 465.595 586.204 464.771 585.851C464.476 585.733 464.182 585.615 463.829 585.556C462.946 585.439 461.769 585.556 461.239 586.38C460.709 587.204 462.063 587.852 462.593 588.087C462.946 588.264 463.358 588.381 463.476 588.793C463.476 588.911 463.476 589.029 463.417 589.029C463.299 589.029 463.181 589.029 463.122 588.911C462.71 588.558 462.122 588.323 461.533 588.381C460.945 588.44 460.415 588.735 460.121 589.205C459.944 589.441 459.885 589.676 459.885 589.971C459.885 590.265 460.121 590.5 460.356 590.677C460.768 590.971 461.298 591.207 461.769 591.442C462.24 591.677 462.71 592.089 462.828 592.56C462.122 592.678 461.651 592.207 460.945 592.384C460.238 592.56 459.885 592.913 459.709 593.502C459.297 595.032 461.121 595.621 462.416 596.033C462.71 596.092 462.946 596.21 463.122 596.268C463.534 596.445 464.005 596.622 464.3 597.034C465.124 598.211 465.418 600.094 465.948 601.448C466.831 603.861 467.713 606.686 469.126 608.864C470.539 611.042 470.185 609.982 470.833 610.335C476.601 613.455 476.66 602.507 476.601 600.447C476.012 582.966 472.069 581.73 472.069 581.73C472.069 581.73 470.656 597.151 470.715 598.74" stroke="black" stroke-width="2" stroke-linecap="round" stroke-linejoin="round"/>
<path d="M443.758 643.119C442.993 641.942 441.875 641.059 440.58 640.588C439.285 640.117 437.637 640.117 436.401 640.706C435.165 641.294 433.929 641.412 432.575 641.53C429.515 641.765 426.454 641.765 423.394 641.765C420.274 641.765 417.331 643.119 415.212 645.297C417.449 646.415 419.744 647.475 422.275 647.945C422.864 648.063 423.511 648.181 424.159 648.24C426.69 648.534 429.338 648.475 431.869 648.122C434.4 647.769 433.812 647.651 434.753 648.122C435.695 648.593 436.696 649.299 437.578 649.829C437.932 650.064 438.285 650.3 438.638 650.359C438.991 650.417 439.462 650.417 439.756 650.123C440.05 649.888 440.109 649.476 440.227 649.181C440.345 648.887 440.58 648.475 440.933 648.416C441.64 648.299 442.228 649.181 442.993 649.064C445.289 648.711 444.818 645.12 444.112 643.766C443.994 643.531 443.876 643.296 443.7 643.119H443.758Z" fill="#B897F0"/>
<path d="M410.445 566.486C408.973 568.84 401.793 578.552 398.556 588.97C395.318 599.387 396.731 600.153 396.437 605.744C396.378 607.215 396.319 608.687 396.378 610.158C396.378 611.336 396.496 612.513 396.554 613.69C397.084 619.517 398.085 626.462 400.733 631.818C400.91 632.171 401.087 632.524 401.263 632.819C403.088 636.115 404.853 638.999 407.384 641.471C408.149 642.177 408.915 642.883 409.856 643.531C413.859 646.415 418.567 647.769 423.453 648.122C426.631 648.357 429.75 648.239 432.929 648.122C436.107 648.004 435.283 647.945 436.401 648.063C437.52 648.181 438.108 649.417 439.109 649.476C439.58 649.476 440.05 649.064 440.168 648.593C440.286 648.122 440.168 647.592 440.168 647.121C440.58 647.827 441.11 648.593 441.816 648.946C442.523 649.299 443.582 649.299 444.112 648.651C444.406 648.357 444.524 647.945 444.583 647.533C444.877 645.826 444.406 643.943 443.347 642.589C442.287 641.235 440.58 640.294 438.814 640.176C435.518 639.941 432.576 642.354 429.221 642.766C431.634 639.882 432.87 636.644 434.753 633.466C436.637 630.288 436.401 626.874 436.284 623.519C436.107 617.987 434.989 612.277 431.869 607.569C431.398 606.862 430.869 606.156 430.28 605.45C429.574 604.626 428.75 603.919 427.867 603.331C420.215 598.387 408.385 603.684 404.736 611.453" stroke="black" stroke-width="2" stroke-linecap="round" stroke-linejoin="round"/>
<path d="M396.908 618.752C396.908 617.987 396.908 617.28 396.908 616.515C396.908 616.28 396.966 616.162 397.084 616.044C393.906 613.808 390.139 612.572 386.313 611.807C383.017 611.395 379.898 611.689 377.014 612.454C370.009 617.045 364.948 624.697 363.005 632.878C371.54 623.637 384.312 618.752 396.908 622.225C396.731 621.106 396.79 619.929 396.908 618.811V618.752Z" fill="#CCBCF3"/>
<path d="M397.261 613.808C397.261 613.808 397.261 613.749 397.261 613.69C397.261 613.396 397.202 613.102 397.143 612.807C396.966 611.336 396.849 609.806 396.79 608.275C392.434 607.392 387.431 608.275 383.841 609.158C375.601 611.101 372.01 617.575 369.892 618.929C383.193 613.808 394.376 615.103 397.555 617.398C397.555 616.633 397.202 614.514 397.261 613.749V613.808Z" fill="black"/>
<path d="M367.537 647.062C366.36 649.063 365.477 651.123 364.771 653.183C365.536 654.949 366.537 656.656 367.655 658.245C369.421 660.717 371.657 662.836 374.129 664.543C375.071 656.833 377.779 649.24 382.193 642.354C386.548 635.526 392.14 628.757 399.615 626.227C386.136 625.344 373.776 635.467 367.478 647.062H367.537Z" fill="#CCBCF3"/>
<path d="M419.391 630.582C416.742 628.934 413.858 627.639 410.857 626.815C396.436 629.405 387.784 647.298 384.606 661.836C384.194 664.308 384.135 666.721 384.371 669.075C388.138 670.017 392.14 670.311 396.024 670.194C396.672 670.194 397.26 670.194 397.908 670.076C397.143 667.015 396.79 663.837 397.025 660.659C398.026 648.475 406.501 631.877 419.45 630.582H419.391Z" fill="#CCBCF3"/>
<path d="M415.565 580.377C413.682 579.611 411.975 582.554 413.564 583.849C415.271 585.203 416.978 586.498 418.273 588.205C419.568 589.912 420.274 591.972 421.451 593.737C422.511 595.209 424.688 594.679 424.806 592.796C425.159 587.557 419.98 582.26 415.507 580.377H415.565Z" fill="#DDD6F2"/>
<path d="M448.408 548.123C446.819 546.769 444.818 546.357 442.816 546.121C441.11 545.945 438.52 545.768 437.402 547.24C436.99 547.769 436.754 548.652 437.402 549.123C438.755 550.183 440.344 549.888 441.993 550.124C443.758 550.359 445.406 551.066 447.172 551.183C448.702 551.301 449.644 549.064 448.467 548.064L448.408 548.123Z" fill="#DDD6F2"/>
<path d="M425.866 608.039C421.804 605.626 412.976 605.803 412.034 611.806C411.916 612.689 412.681 613.396 413.564 612.984C415.271 612.101 416.566 611.041 418.567 610.747C420.745 610.453 422.864 611.218 424.512 612.63C428.338 615.868 427.455 620.047 428.396 624.402C428.691 625.873 430.986 626.227 431.693 624.814C434.459 619.223 431.045 611.1 425.866 608.039Z" fill="#DDD6F2"/>
<path d="M475.542 615.691C474.659 615.161 473.423 616.044 473.776 617.045C474.365 618.752 475.071 620.517 475.13 622.342C475.189 624.226 474.6 625.991 474.188 627.816C473.953 628.816 475.13 630.052 476.13 629.287C480.427 626.168 479.956 618.399 475.542 615.632V615.691Z" fill="#DDD6F2"/>
<path d="M474.129 591.913C473.835 591.03 472.422 591.089 472.422 592.148C472.422 594.62 472.481 597.328 473.305 599.682C473.54 600.447 474.718 600.506 474.894 599.682C475.542 597.151 474.953 594.326 474.07 591.913H474.129Z" fill="#DDD6F2"/>
<path d="M440.992 581.259C439.167 579.317 435.695 579.082 433.223 578.258C430.633 577.375 428.043 575.668 425.277 576.139C424.512 576.256 423.982 577.257 424.218 578.022C425.277 580.965 428.632 582.083 431.398 583.025C433.988 583.908 438.167 585.262 440.698 583.614C441.522 583.084 441.64 582.025 440.992 581.318V581.259Z" fill="#B897F0"/>
<path d="M419.568 623.814C415.271 621.342 408.915 619.34 404.088 621.106C402.381 621.695 402.264 624.108 404.088 624.638C408.444 625.991 412.74 626.109 416.919 628.404C418.744 629.405 420.333 630.641 421.687 632.171C422.982 633.643 423.629 634.997 425.454 635.762C426.337 636.115 427.278 635.35 427.573 634.585C428.985 630.17 422.923 625.697 419.627 623.814H419.568Z" fill="#B897F0"/>
<path d="M407.855 626.168C404.912 625.697 401.852 625.638 398.85 626.109C396.378 620.282 396.554 613.749 396.319 608.216C392.081 607.451 387.196 608.157 383.841 609.217C372.305 612.925 364.006 624.343 362.417 636.115C361.357 643.825 363.064 652.007 367.655 658.304C369.539 660.894 371.893 663.19 374.6 664.955C380.839 669.075 388.491 670.488 395.966 670.194C402.911 669.958 409.915 668.369 416.684 669.84C420.745 670.723 424.512 672.725 427.572 675.491C435.518 669.899 435.165 656.185 432.34 648.122C431.281 645.179 430.103 642.295 428.455 639.646C423.982 632.466 416.213 627.581 407.914 626.168H407.855Z" stroke="black" stroke-width="2" stroke-linecap="round" stroke-linejoin="round"/>
<path d="M412.681 658.658C410.209 654.008 402.263 655.479 397.908 655.244C392.552 654.891 387.019 653.655 382.605 650.418C372.658 643.119 376.425 630.995 375.895 620.577C375.836 619.282 374.247 618.87 373.541 619.929C366.595 630.465 365.418 646.062 375.601 655.067C380.25 659.187 386.136 661.542 392.258 662.484C395.554 662.954 398.791 663.131 402.087 663.131C405.089 663.131 409.091 663.955 411.739 662.366C413.034 661.601 413.388 660.011 412.681 658.717V658.658Z" fill="#B897F0"/>
<path d="M413.918 636.645C411.799 631.524 406.501 630.406 401.616 628.993C399.027 628.287 396.555 627.757 395.024 625.403C393.435 622.99 393.847 620.282 392.846 617.751C392.434 616.633 390.845 615.868 389.845 616.986C385.901 621.518 389.904 628.993 393.67 632.289C396.025 634.349 398.791 635.527 401.734 636.468C404.618 637.351 407.208 638.528 409.915 639.823C411.74 640.706 414.918 639.176 413.918 636.763V636.645Z" fill="#DDD6F2"/>
<path d="M398.261 625.991C397.908 625.108 397.673 624.167 397.437 623.284C397.319 622.989 397.437 622.636 397.731 622.401C384.9 618.516 371.775 623.46 363.064 632.878C362.829 633.937 362.593 634.996 362.475 636.056C361.71 641.824 362.475 647.886 364.83 653.184C365.536 651.124 366.419 649.064 367.596 647.062C373.717 635.879 385.489 626.05 398.438 626.168C398.438 626.109 398.438 625.991 398.379 625.932L398.261 625.991Z" fill="black"/>
<path d="M407.855 626.168C405.677 625.815 403.441 625.697 401.263 625.815C400.733 625.932 400.204 626.109 399.674 626.286C392.199 628.758 386.608 635.585 382.252 642.413C377.838 649.299 375.13 656.892 374.188 664.602C374.365 664.72 374.483 664.837 374.659 664.896C377.602 666.839 380.957 668.192 384.371 669.016C384.135 666.662 384.194 664.249 384.606 661.777C387.844 647.298 396.437 629.346 410.857 626.756C409.856 626.462 408.856 626.286 407.855 626.109V626.168Z" fill="black"/>
<path d="M432.34 648.063C431.281 645.12 430.104 642.236 428.456 639.588C426.16 635.939 423.041 632.878 419.391 630.583C406.502 631.819 397.967 648.416 396.967 660.659C396.731 663.837 397.084 667.016 397.85 670.076C404.147 669.664 410.563 668.487 416.743 669.841C420.804 670.724 424.571 672.725 427.632 675.491C435.577 669.9 435.224 656.186 432.399 648.122L432.34 648.063Z" fill="black"/>
<path d="M437.578 577.728C437.578 577.728 425.041 576.845 415.094 570.253C411.798 568.075 408.738 565.25 406.501 561.601C406.089 559.247 417.92 549.535 417.92 549.535C417.508 547.828 417.213 540.353 417.743 538.882C418.096 537.881 418.685 536.881 419.685 536.41C421.392 535.645 424.041 536.822 425.689 537.469C428.691 538.588 432.222 540.236 433.87 543.178C439.579 542.649 446.642 542.825 451.704 543.767C454.294 538.117 463.77 534.35 466.183 536.998C468.596 539.647 467.713 540.706 466.301 547.122C467.89 547.711 482.193 562.013 482.193 562.013C482.193 562.013 479.014 568.605 471.892 573.431C469.891 574.785 467.655 575.962 465.065 576.904" stroke="black" stroke-width="2" stroke-linecap="round" stroke-linejoin="round"/>
<path d="M442.169 564.426C442.169 564.308 442.169 564.19 442.169 564.073C441.757 560.6 438.049 557.716 434.577 558.717C433.635 558.952 432.811 559.541 432.222 560.247C432.105 560.423 431.987 560.6 432.046 560.835C432.163 561.483 432.929 560.777 433.105 560.6C434.518 559.658 435.989 559.717 437.461 560.188C439.168 560.718 440.168 561.895 440.639 563.543C441.11 565.132 440.58 567.016 439.344 568.134C438.108 569.252 435.93 569.252 434.753 568.016C433.988 567.192 433.811 565.897 434.282 564.838C434.518 564.308 434.93 563.837 435.518 563.602C436.107 563.366 436.754 563.366 437.225 563.72C437.696 564.073 437.99 564.72 437.814 565.25C437.696 565.662 437.284 565.956 436.931 565.838C436.637 565.721 436.46 565.368 436.107 565.368C435.93 565.368 435.754 565.485 435.636 565.662C435.518 565.838 435.518 566.015 435.636 566.192C435.754 566.839 436.401 567.251 437.049 567.192C437.696 567.133 438.285 566.78 438.638 566.309C439.168 565.603 439.403 564.602 439.168 563.72C438.932 562.837 438.226 562.072 437.402 561.777C436.519 561.483 435.518 561.66 434.694 562.072C433.105 562.954 432.105 564.838 432.34 566.662C432.634 568.899 434.753 570.724 436.99 570.665C440.227 570.547 442.405 567.486 442.228 564.426H442.169Z" fill="white"/>
<path d="M455 559.953C455.707 558.658 457.001 557.716 458.414 557.363C461.416 556.598 464.359 558.658 465.3 561.483C465.418 561.836 465.595 562.307 465.536 562.66C465.477 562.955 465.3 563.249 465.006 563.19C464.771 563.19 464.653 562.955 464.535 562.719C463.947 561.601 463.476 560.365 462.357 559.6C461.887 559.247 461.298 559.011 460.709 558.893C459.65 558.658 458.591 559.07 457.708 559.6C455.648 560.836 455.765 563.837 457.001 565.603C457.355 566.074 457.767 566.486 458.237 566.78C458.708 567.016 459.297 567.134 459.827 567.075C460.533 566.957 461.18 566.427 461.533 565.78C461.887 565.132 461.887 564.308 461.651 563.602C461.475 563.131 461.18 562.719 460.768 562.425C460.356 562.131 459.768 562.131 459.356 562.425C458.944 562.719 458.767 563.308 459.061 563.72C459.12 563.837 459.297 563.955 459.415 563.896C459.532 563.896 459.591 563.72 459.65 563.661C459.768 563.543 460.003 563.543 460.18 563.661C460.356 563.779 460.356 564.014 460.356 564.191C460.356 564.661 459.944 565.073 459.532 565.191C459.12 565.309 458.591 565.191 458.237 564.897C457.884 564.603 457.649 564.191 457.531 563.72C457.296 562.778 457.649 561.719 458.414 561.189C459.297 560.6 460.474 560.659 461.416 561.189C462.534 561.777 463.299 562.955 463.417 564.191C463.535 565.427 463.064 566.721 462.181 567.604C461.298 568.487 459.944 568.84 458.708 568.605C458.002 568.487 457.355 568.134 456.825 567.663C456.295 567.192 456.295 567.134 456.119 566.839C455.942 566.545 455.707 566.31 455.53 566.074C454.706 564.838 454.294 563.249 454.471 561.719C454.647 560.188 454.765 560.483 455.059 559.894L455 559.953Z" fill="white"/>
<path d="M258.179 475.433C258.179 475.433 299.262 495.268 298.732 495.797C298.203 496.327 289.021 507.157 286.608 507.804C286.608 507.804 290.374 519.046 284.194 520.577C278.014 522.107 270.068 512.749 270.068 512.749C270.068 512.749 264.536 514.161 258.944 514.161C253.353 514.161 247.82 512.749 247.82 512.749C247.82 512.749 239.874 522.107 233.694 520.577C227.514 519.046 231.281 507.804 231.281 507.804C228.456 505.744 219.686 496.327 219.156 495.797C218.627 495.268 258.179 475.433 258.179 475.433Z" stroke="black" stroke-width="2" stroke-linecap="round" stroke-linejoin="round"/>
<path d="M235.166 509.511C235.166 509.511 232.929 513.926 233.989 515.632C235.048 517.339 241.817 511.571 241.817 511.571L235.166 509.511Z" stroke="black" stroke-width="2" stroke-linecap="round" stroke-linejoin="round"/>
<path d="M282.723 509.511C282.723 509.511 284.96 513.926 283.9 515.632C282.841 517.339 276.072 511.571 276.072 511.571L282.723 509.511Z" stroke="black" stroke-width="2" stroke-linecap="round" stroke-linejoin="round"/>
<path d="M272.776 482.496C264.83 478.611 258.179 475.374 258.179 475.374C258.179 475.374 251.94 478.494 244.406 482.319C244.76 482.731 245.289 483.026 245.819 483.379C246.29 483.732 246.761 484.144 246.996 484.791C246.761 484.144 246.349 483.732 245.819 483.379C246.525 491.972 257.944 492.973 264.654 491.854C265.124 491.678 265.654 491.501 266.243 491.266C269.245 489.029 271.599 485.91 272.776 482.437V482.496Z" fill="#DDD6F2"/>
<path d="M274.424 483.32C273.894 483.026 273.306 482.79 272.776 482.496C271.599 485.969 269.244 489.088 266.243 491.325C269.774 490.03 274.954 487.558 274.424 483.32Z" fill="#CCBCF3"/>
<path d="M298.733 495.739C298.85 495.621 296.025 494.091 291.728 491.913C286.961 489.5 280.428 486.263 274.424 483.32C274.954 487.557 269.774 490.029 266.243 491.324C262.358 494.208 257.297 495.739 252.294 494.856C257.297 495.739 262.358 494.267 266.243 491.324C265.654 491.56 265.125 491.736 264.654 491.913C257.944 493.031 246.584 492.031 245.819 483.437C245.29 483.084 244.76 482.79 244.407 482.378C237.285 486.027 228.986 490.265 223.924 492.972C220.922 494.562 219.039 495.68 219.157 495.798C219.627 496.327 228.456 505.745 231.281 507.805C231.281 507.805 227.514 519.046 233.694 520.577C239.875 522.107 247.82 512.749 247.82 512.749C247.82 512.749 253.353 514.161 258.945 514.161C264.536 514.161 270.069 512.749 270.069 512.749C270.069 512.749 278.015 522.107 284.195 520.577C290.375 519.046 286.608 507.805 286.608 507.805C289.021 507.157 298.203 496.327 298.733 495.798V495.739ZM233.989 515.633C232.929 513.926 235.166 509.511 235.166 509.511L241.817 511.571C241.817 511.571 235.048 517.34 233.989 515.633ZM283.9 515.633C282.841 517.34 276.072 511.571 276.072 511.571L282.723 509.511C282.723 509.511 284.96 513.926 283.9 515.633Z" fill="#CCBCF3"/>
<path d="M282.723 509.512C282.723 509.512 284.96 513.926 283.9 515.633C282.841 517.34 276.072 511.572 276.072 511.572L282.723 509.512Z" fill="#B897F0"/>
<path d="M235.166 509.512L241.817 511.572C241.817 511.572 235.048 517.34 233.989 515.633C232.929 513.926 235.166 509.512 235.166 509.512Z" fill="#B897F0"/>
<path d="M266.89 435.115C265.066 434.056 263.123 433.232 261.004 432.938C262.476 433.526 263.83 434.232 265.124 435.115C265.713 435.115 266.302 435.115 266.89 435.115Z" fill="#CCBCF3"/>
<path d="M293.847 429.17C289.727 417.929 281.958 414.103 277.661 414.221C269.303 414.397 265.595 425.227 265.89 425.227C261.593 425.109 257.473 424.58 252.764 423.814C250.646 420.283 248.762 414.397 245.113 412.455C232.753 405.922 224.63 425.227 221.923 433.467C216.802 449.006 213.447 464.25 223.689 492.502L223.983 492.972C227.573 491.03 231.222 489.147 234.872 487.263C238.521 485.38 239.109 485.498 240.757 484.144C241.699 483.379 242.641 482.378 243.818 481.907C244.995 481.436 246.82 481.083 248.174 480.671L258.12 477.669C259.003 477.375 259.945 477.14 260.887 477.14C263.065 477.14 266.243 478.258 268.126 479.435C269.892 480.553 271.54 481.907 273.365 482.908C275.189 483.908 277.426 484.732 279.368 485.674C283.547 487.734 287.667 489.794 291.846 491.854L292.023 491.501C301.499 463.19 299.027 443.12 293.965 429.17H293.847Z" fill="#CCBCF3"/>
<path d="M278.956 444.179C278.014 441.06 276.366 438.117 273.659 435.762C264.83 428.111 249.586 431.113 241.876 439.058C238.815 442.296 233.224 449.888 234.989 454.832C235.578 456.48 237.402 458.011 238.285 459.541C238.462 459.835 238.58 460.13 238.638 460.483C238.756 461.424 238.109 462.131 237.814 463.014C237.52 463.897 237.873 465.015 238.05 466.015L238.874 471.136C238.992 471.783 238.933 473.02 239.404 473.49C239.874 473.961 240.581 474.02 241.052 474.314C243.406 475.668 245.407 477.14 247.997 478.022C248.527 478.199 250.645 479.2 251.116 478.964C255.295 476.845 258.12 475.433 258.12 475.433C258.12 475.433 260.651 476.669 264.477 478.493C273.011 476.139 277.602 468.252 279.074 460.012C280.016 454.832 280.369 449.182 278.897 444.238L278.956 444.179Z" fill="#DDD6F2"/>
<path d="M223.689 492.443C213.447 464.25 216.802 448.947 221.923 433.408C224.63 425.168 232.753 405.863 245.113 412.396C248.762 414.338 250.646 420.224 252.764 423.755C257.473 424.521 261.593 425.05 265.89 425.168C265.595 425.168 269.303 414.338 277.661 414.161C281.958 414.044 289.727 417.87 293.847 429.111C298.968 443.12 301.44 463.131 291.905 491.442" stroke="black" stroke-width="2" stroke-linecap="round" stroke-linejoin="round"/>
<path d="M223.924 492.972C234.342 487.381 258.179 475.433 258.179 475.433C258.179 475.433 280.133 486.027 291.728 491.972C295.966 494.149 298.85 495.68 298.733 495.797C298.203 496.327 289.021 507.157 286.608 507.804C286.608 507.804 290.375 519.046 284.195 520.577C278.015 522.107 270.069 512.749 270.069 512.749C270.069 512.749 264.536 514.161 258.945 514.161C253.353 514.161 247.82 512.749 247.82 512.749C247.82 512.749 239.875 522.107 233.694 520.577C227.514 519.046 231.281 507.804 231.281 507.804C228.456 505.744 219.627 496.327 219.157 495.797C219.039 495.68 220.922 494.62 223.924 492.972Z" stroke="black" stroke-width="2" stroke-linecap="round" stroke-linejoin="round"/>
<path d="M254.354 496.504C255.178 495.621 255.649 494.62 255.766 493.267C256.119 489.912 253.824 486.498 250.528 485.615C246.349 484.556 242.406 487.557 238.227 486.321C237.815 486.204 237.461 486.027 237.049 486.027C236.637 486.027 236.284 486.086 235.872 486.204C232.282 487.381 229.457 490.206 225.925 491.56C226.278 491.442 227.985 492.502 228.397 492.619C229.339 493.031 230.222 493.384 231.164 493.737C236.461 495.798 242.111 498.976 247.938 498.917C249.763 498.917 251.646 498.387 253.235 497.387C254.825 496.386 254.059 496.798 254.354 496.504Z" fill="black"/>
<path d="M262.064 448.947H253.176C251.681 448.947 250.469 450.159 250.469 451.654V467.958C250.469 469.453 251.681 470.665 253.176 470.665H262.064C263.559 470.665 264.771 469.453 264.771 467.958V451.654C264.771 450.159 263.559 448.947 262.064 448.947Z" fill="white" stroke="black" stroke-width="2" stroke-linecap="round" stroke-linejoin="round"/>
<path d="M285.607 491.089C286.137 490.618 286.725 490.089 287.196 489.559C285.136 488.264 282.958 487.028 280.781 485.91C280.545 485.792 280.31 485.674 280.015 485.615C279.839 485.615 279.662 485.615 279.427 485.615C277.485 485.615 275.307 485.792 273.423 485.262C271.54 484.733 269.48 484.909 267.773 485.439C265.831 485.969 263.653 486.851 262.476 488.558C261.299 490.265 260.828 492.325 261.299 494.267C261.652 495.798 262.535 497.564 264.006 498.27C265.477 498.976 267.832 499.329 269.774 499.153C271.716 498.976 273.835 498.27 275.778 497.446C279.368 495.857 282.664 493.738 285.607 491.207V491.089Z" fill="black"/>
<path d="M255.119 478.611C254.825 479.023 254.589 479.494 254.825 479.906C255.06 480.377 255.766 480.554 256.355 480.612C258.297 480.848 260.298 480.73 262.182 480.142C262.358 480.142 262.594 480.024 262.712 479.847C262.888 479.553 262.712 479.259 262.476 478.964C261.711 478.14 258.415 475.786 258.415 475.786C258.415 475.786 255.766 477.67 255.178 478.494L255.119 478.611Z" fill="#B897F0" stroke="black" stroke-width="2" stroke-linecap="round" stroke-linejoin="round"/>
<path d="M220.687 483.32C210.328 464.309 210.916 447.829 224.1 444.179C226.16 443.591 228.221 443.767 230.222 444.533C234.047 446.004 236.99 449.3 239.639 452.243C242.288 455.186 242.994 456.834 245.407 457.599C247.82 458.364 247.526 458.246 248.468 457.952C249.409 457.658 249.527 457.187 250.233 457.069C250.94 456.952 252.117 457.481 251.764 458.482C251.411 459.483 250.528 459.483 250.116 460.071C250.469 460.66 251.352 460.248 251.94 460.601C252.588 460.954 252.352 462.013 251.823 462.425C251.293 462.837 250.528 463.014 249.821 463.308C249.586 463.426 249.292 463.603 249.292 463.897C249.292 464.073 249.468 464.25 249.704 464.309C250.116 464.485 250.587 464.485 250.999 464.603C251.411 464.721 251.94 464.897 252.058 465.368C252.176 465.78 251.881 466.251 251.528 466.428C251.175 466.604 250.704 466.663 250.233 466.663C245.996 466.663 241.699 465.015 237.814 463.367C235.283 462.308 232.694 460.895 231.458 458.423" fill="#CCBCF3"/>
<path d="M220.687 483.32C210.328 464.309 210.916 447.829 224.1 444.179C226.16 443.591 228.221 443.767 230.222 444.533C234.047 446.004 236.99 449.3 239.639 452.243C242.288 455.186 242.994 456.834 245.407 457.599C247.82 458.364 247.526 458.246 248.468 457.952C249.409 457.658 249.527 457.187 250.233 457.069C250.94 456.952 252.117 457.481 251.764 458.482C251.411 459.483 250.528 459.483 250.116 460.071C250.469 460.66 251.352 460.248 251.94 460.601C252.588 460.954 252.352 462.013 251.823 462.425C251.293 462.837 250.528 463.014 249.821 463.308C249.586 463.426 249.292 463.603 249.292 463.897C249.292 464.073 249.468 464.25 249.704 464.309C250.116 464.485 250.587 464.485 250.999 464.603C251.411 464.721 251.94 464.897 252.058 465.368C252.176 465.78 251.881 466.251 251.528 466.428C251.175 466.604 250.704 466.663 250.233 466.663C245.996 466.663 241.699 465.015 237.814 463.367C235.283 462.308 232.694 460.895 231.458 458.423" stroke="black" stroke-width="2" stroke-linecap="round" stroke-linejoin="round"/>
<path d="M294.436 483.32C305.442 465.957 298.674 442.002 291.081 441.884C287.196 441.884 283.606 444.709 280.84 447.181C278.074 449.653 277.485 450.359 275.837 451.948C274.189 453.538 273.012 454.715 271.187 455.127C269.598 455.48 267.95 455.127 266.302 455.186C265.654 455.186 265.007 455.303 264.536 455.715C264.065 456.127 263.83 456.893 264.242 457.363C264.477 457.658 264.83 457.775 265.184 457.834C265.949 457.952 266.714 457.893 267.42 457.599C267.42 458.246 266.655 458.717 266.008 458.717C265.36 458.717 264.654 458.482 264.006 458.717C262.888 459.011 262.417 460.601 263.006 461.601C263.594 462.602 265.007 462.955 266.125 462.543C266.008 463.073 265.478 463.308 264.948 463.367C264.418 463.426 263.889 463.426 263.477 463.779C262.947 464.25 263.006 465.133 263.477 465.662C263.948 466.192 264.654 466.428 265.36 466.545C271.599 467.781 278.368 463.19 282.135 458.599C282.488 458.129 282.841 457.599 282.723 457.069" fill="#CCBCF3"/>
<path d="M294.436 483.32C305.442 465.957 298.674 442.002 291.081 441.884C287.196 441.884 283.606 444.709 280.84 447.181C278.074 449.653 277.485 450.359 275.837 451.948C274.189 453.538 273.012 454.715 271.187 455.127C269.598 455.48 267.95 455.127 266.302 455.186C265.654 455.186 265.007 455.303 264.536 455.715C264.065 456.127 263.83 456.893 264.242 457.363C264.477 457.658 264.83 457.775 265.184 457.834C265.949 457.952 266.714 457.893 267.42 457.599C267.42 458.246 266.655 458.717 266.008 458.717C265.36 458.717 264.654 458.482 264.006 458.717C262.888 459.011 262.417 460.601 263.006 461.601C263.594 462.602 265.007 462.955 266.125 462.543C266.008 463.073 265.478 463.308 264.948 463.367C264.418 463.426 263.889 463.426 263.477 463.779C262.947 464.25 263.006 465.133 263.477 465.662C263.948 466.192 264.654 466.428 265.36 466.545C271.599 467.781 278.368 463.19 282.135 458.599C282.488 458.129 282.841 457.599 282.723 457.069" stroke="black" stroke-width="2" stroke-linecap="round" stroke-linejoin="round"/>
<path d="M279.545 461.307L276.955 470.135" stroke="black" stroke-width="2" stroke-linecap="round" stroke-linejoin="round"/>
<path d="M237.814 463.367C237.991 464.838 240.169 470.135 240.169 470.135" stroke="black" stroke-width="2" stroke-linecap="round" stroke-linejoin="round"/>
<path d="M264.477 492.266C264.477 492.325 264.477 492.443 264.477 492.502C264.595 494.679 268.009 496.622 271.599 496.21C272.541 496.092 273.423 495.798 274.071 495.386C274.189 495.268 274.365 495.15 274.306 495.032C274.247 494.62 273.423 495.032 273.247 495.091C271.775 495.621 270.304 495.503 268.833 495.091C267.185 494.679 266.302 493.914 265.948 492.855C265.595 491.854 266.302 490.736 267.655 490.088C269.009 489.441 271.128 489.559 272.187 490.383C272.894 490.912 272.953 491.736 272.364 492.384C272.07 492.678 271.599 492.972 271.069 493.09C270.539 493.208 269.833 493.149 269.362 492.914C268.891 492.678 268.656 492.266 268.891 491.913C269.068 491.678 269.48 491.501 269.833 491.619C270.127 491.678 270.304 491.913 270.598 491.972C270.775 491.972 270.951 491.972 271.069 491.854C271.187 491.736 271.187 491.619 271.187 491.501C271.128 491.089 270.481 490.795 269.833 490.795C269.186 490.795 268.597 490.971 268.185 491.266C267.597 491.678 267.302 492.266 267.479 492.855C267.655 493.384 268.244 493.914 269.068 494.15C269.951 494.385 270.951 494.326 271.775 494.091C273.423 493.62 274.601 492.502 274.483 491.383C274.365 489.971 272.423 488.735 270.186 488.676C266.949 488.558 264.536 490.383 264.477 492.266Z" fill="white"/>
<path d="M251.352 494.326C250.528 495.091 249.174 495.621 247.762 495.738C244.701 496.033 241.935 494.62 241.287 492.854C241.228 492.619 241.052 492.325 241.169 492.089C241.228 491.913 241.464 491.736 241.758 491.795C241.993 491.795 242.111 491.972 242.17 492.089C242.7 492.854 243.053 493.62 244.054 494.149C244.524 494.385 245.054 494.561 245.643 494.679C246.702 494.856 247.762 494.679 248.703 494.385C250.881 493.737 250.999 491.854 249.88 490.677C249.586 490.382 249.233 490.088 248.703 489.912C248.232 489.735 247.703 489.617 247.173 489.676C246.408 489.676 245.76 490.029 245.407 490.382C245.054 490.736 244.936 491.265 245.113 491.736C245.231 492.03 245.466 492.325 245.878 492.501C246.29 492.678 246.879 492.737 247.291 492.56C247.703 492.384 247.938 492.03 247.703 491.795C247.644 491.736 247.467 491.618 247.35 491.677C247.232 491.677 247.173 491.795 247.114 491.795C246.938 491.854 246.761 491.795 246.584 491.795C246.408 491.795 246.408 491.56 246.467 491.501C246.526 491.206 246.938 490.971 247.408 490.912C247.879 490.853 248.35 490.912 248.703 491.148C249.056 491.383 249.233 491.618 249.292 491.913C249.41 492.501 248.998 493.149 248.174 493.443C247.291 493.796 246.055 493.62 245.172 493.266C244.112 492.854 243.465 492.089 243.406 491.324C243.347 490.559 243.936 489.794 244.936 489.323C245.937 488.852 247.291 488.676 248.468 488.911C249.115 489.029 249.763 489.264 250.234 489.558C250.704 489.853 250.704 489.912 250.881 490.088C251.058 490.265 251.234 490.441 251.411 490.618C252.117 491.442 252.411 492.442 252.117 493.384C251.823 494.326 251.764 494.149 251.411 494.444L251.352 494.326Z" fill="white"/>
<path d="M234.224 516.221C237.756 515.868 241.052 513.867 242.935 510.865" stroke="black" stroke-width="2" stroke-linecap="round" stroke-linejoin="round"/>
<path d="M275.484 511.042C277.249 513.396 279.486 515.515 281.958 517.104" stroke="black" stroke-width="2" stroke-linecap="round" stroke-linejoin="round"/>
<path d="M242.111 415.162C240.051 414.515 237.873 414.574 235.931 415.515C234.047 416.398 233.047 417.988 232.635 419.989C232.282 421.931 234.518 423.461 236.049 421.99C236.696 421.401 237.579 420.989 238.344 420.518C239.109 420.048 239.874 419.93 240.757 420.106C241.934 420.342 242.994 419.93 243.641 418.929C243.936 418.517 243.936 418.105 243.994 417.634C244.112 416.516 243.112 415.515 242.111 415.162Z" fill="#DDD6F2"/>
<path d="M276.838 417.752C275.425 418.164 275.366 419.871 276.484 420.636C278.603 422.225 280.899 423.697 283.253 424.991C284.136 425.521 285.372 424.874 285.313 423.814C285.136 419.694 280.781 416.516 276.838 417.752Z" fill="#DDD6F2"/>
<path d="M234.106 452.066C233.694 449.123 231.281 447.357 228.456 446.828C225.69 446.357 222.982 447.887 221.687 450.3C221.217 451.183 221.805 452.537 222.923 452.419C225.984 452.125 229.045 453.184 231.87 454.244C233.341 454.774 234.283 453.243 234.106 452.007V452.066Z" fill="#DDD6F2"/>
<path d="M289.197 444.885C286.549 444.709 284.371 446.533 283.841 449.064C283.429 450.948 285.548 452.066 286.961 450.889C287.373 450.536 288.491 450.477 288.844 450.595C288.844 450.595 289.374 450.83 289.433 450.889C290.08 451.301 290.669 451.536 291.434 451.831C292.493 452.243 293.729 451.419 293.965 450.418C294.789 447.357 292.081 445.18 289.256 445.003L289.197 444.885Z" fill="#DDD6F2"/>
<path d="M292.317 495.562C291.552 494.562 290.728 494.267 289.551 493.973C288.609 493.738 287.726 493.973 286.784 494.15C285.725 494.385 285.548 495.739 286.196 496.445C286.843 497.21 287.314 497.799 288.256 498.152C289.198 498.505 290.022 498.858 291.081 498.564C292.199 498.211 293.141 496.622 292.317 495.562Z" fill="#DDD6F2"/>
<path d="M231.988 497.269C230.693 495.974 228.574 496.209 226.926 496.327C225.808 496.445 225.396 498.152 226.632 498.387C228.221 498.681 229.81 499.623 231.458 499.27C232.4 499.093 232.576 497.857 231.988 497.21V497.269Z" fill="#DDD6F2"/>
<path d="M263.771 506.275C262.064 505.98 260.651 506.569 259.003 506.863C257.414 507.157 255.884 507.511 254.295 507.864C253.235 508.099 252.941 509.865 254 510.336C257.12 511.689 262.005 512.455 264.713 509.747C265.713 508.747 265.419 506.569 263.83 506.275H263.771Z" fill="#DDD6F2"/>
<path d="M238.226 469.959C237.226 469.135 235.342 468.723 234.4 469.959C234.047 470.43 233.635 470.783 233.341 471.254C233.341 471.254 233.164 471.548 233.047 471.725C233.164 471.607 233.282 471.489 233.047 471.783C233.047 471.842 232.988 471.901 232.988 471.901C232.988 471.901 232.988 471.901 232.988 471.842C232.752 472.078 232.517 472.372 232.34 472.607C232.164 472.784 231.987 473.019 231.811 473.255C230.869 474.491 230.516 475.845 230.928 477.434C231.281 478.729 232.399 480.024 233.753 480.259C235.872 480.671 237.814 479.965 238.991 478.081C239.639 477.081 239.933 475.962 240.051 474.785C240.169 472.961 239.757 471.136 238.285 469.9L238.226 469.959Z" fill="#B897F0"/>
<path d="M232.988 471.725C232.988 471.725 232.929 471.842 232.87 471.842C232.87 471.842 232.87 471.842 232.87 471.783C232.87 471.783 232.87 471.783 232.87 471.725H232.988Z" fill="#B897F0"/>
<path d="M284.371 473.314C284.253 473.255 284.077 473.137 283.959 473.078C283.724 472.902 283.547 472.725 283.312 472.549C283.194 472.49 283.135 472.372 283.076 472.313C282.664 471.666 281.958 471.195 281.31 470.783C279.839 469.782 277.485 470.43 276.661 472.019C274.895 475.433 277.014 479.082 280.016 480.906C281.487 481.848 284.136 481.671 285.313 480.2C285.901 479.494 286.137 479.199 286.431 478.258C286.961 476.492 286.078 474.197 284.43 473.314H284.371Z" fill="#B897F0"/>
<path d="M260.298 461.837C260.063 461.66 259.768 461.837 259.592 462.013C258.591 463.367 256.531 462.955 255.59 461.778C254.471 460.306 254.766 458.07 255.943 456.657C257.296 455.127 259.651 456.657 259.651 458.423C259.651 459.188 259.298 460.012 258.65 460.424C257.826 461.013 256.826 460.718 256.59 459.718C256.355 458.894 256.943 457.128 258.062 458.011C258.415 458.305 258.65 458.835 258.238 459.188C257.885 459.482 257.414 459.188 257.532 458.717C257.591 458.482 257.296 458.364 257.12 458.541C256.826 458.953 256.943 459.541 257.296 459.894C257.767 460.306 258.474 460.13 258.827 459.718C259.827 458.658 258.709 457.069 257.473 456.952C255.943 456.834 255.354 458.658 255.648 459.836C255.943 461.248 257.355 461.954 258.65 461.366C259.768 460.836 260.416 459.6 260.416 458.423C260.416 457.128 259.592 455.951 258.415 455.362C257.767 455.068 257.002 454.95 256.355 455.186C255.648 455.421 255.178 455.892 254.766 456.481C253.942 457.658 253.588 459.247 253.942 460.66C254.236 462.013 255.295 463.308 256.649 463.72C258.003 464.132 259.474 463.661 260.298 462.543C260.475 462.308 260.298 462.013 260.122 461.837H260.298Z" fill="black"/>
<path d="M199 586.373C199 584.425 201.673 583.59 203.511 584.147C205.349 584.703 206.909 586.151 208.802 586.651C206.017 578.581 203.957 570.232 202.62 561.772C202.453 560.715 202.509 559.267 203.567 559.045C203.957 558.933 204.347 559.045 204.737 559.212C207.633 560.325 209.972 562.384 212.144 564.555C217.49 570.121 221.667 576.856 224.174 584.147C224.174 581.865 224.786 579.583 225.789 577.468C226.067 576.856 226.513 576.188 227.181 575.965C228.184 575.687 229.075 576.522 229.743 577.356C231.303 579.305 232.639 581.475 233.753 583.757C233.642 580.919 236.761 578.637 239.601 578.971C242.441 579.249 244.78 581.475 246.061 584.036" stroke="black" stroke-width="2" stroke-linecap="round" stroke-linejoin="round"/>
</g>
<defs>
<clipPath id="clip0_117_22045">
<rect width="768" height="821" fill="white"/>
</clipPath>
</defs>
</svg>
